{"glyphs":{"0":{"ha":627,"x_min":17,"x_max":610,"o":"m 252 20 q 333 57 296 20 q 403 175 369 94 q 463 384 440 263 q 486 611 486 504 q 457 748 486 700 q 375 796 428 796 q 302 766 336 796 q 240 677 269 736 q 206 590 222 638 q 178 489 190 543 q 150 341 159 412 q 140 215 140 270 q 169 70 140 119 q 252 20 197 20 m 610 607 q 564 332 610 470 q 443 103 518 194 q 328 4 389 37 q 201 -29 267 -29 q 64 34 112 -29 q 17 216 17 98 q 63 486 17 351 q 184 711 109 621 q 302 810 239 776 q 428 844 364 844 q 562 782 514 844 q 610 607 610 720 z "},"1":{"ha":627,"x_min":-36,"x_max":529,"o":"m -36 -5 l 0 53 q 92 65 44 60 q 195 75 140 71 q 227 197 211 136 q 260 330 242 258 l 286 440 q 295 478 288 450 q 351 722 327 610 q 287 698 338 717 q 208 667 237 679 l 160 697 q 375 798 290 755 q 503 871 460 841 q 461 713 481 795 q 418 538 440 631 l 387 407 q 379 371 385 397 q 311 75 341 214 q 424 62 369 70 q 529 43 478 54 q 513 13 519 22 q 503 -4 508 3 q 361 1 426 -1 q 239 3 297 3 l 172 3 q 97 1 151 3 q -36 -5 44 -1 z "},"2":{"ha":627,"x_min":-78,"x_max":574,"o":"m 410 -24 q 339 -12 376 -20 q 264 5 302 -5 l 158 35 q 99 48 126 44 q 49 53 71 53 q -10 29 20 53 q -19 22 -16 24 l -72 -18 q -74 -8 -73 -14 q -78 18 -78 11 q -75 28 -78 24 q -65 40 -73 33 l -54 52 q 26 135 -14 95 q 110 214 67 175 l 221 317 l 241 336 q 456 652 456 534 q 419 750 456 711 q 329 790 382 790 q 243 756 275 790 q 211 664 211 722 q 223 564 211 640 q 224 559 223 561 q 170 573 197 568 q 114 582 143 578 q 113 599 113 591 q 113 616 113 608 q 198 778 113 710 q 399 846 283 846 q 526 801 478 846 q 574 682 574 756 q 533 552 574 616 q 400 406 493 487 l 301 319 q 239 262 300 318 q 115 149 177 205 q 182 139 155 143 q 224 132 209 135 l 298 115 q 338 106 313 113 q 408 94 393 94 q 478 132 445 94 l 480 134 l 562 228 l 570 174 l 524 107 q 508 83 518 98 q 410 -24 448 -9 z "},"3":{"ha":627,"x_min":-96,"x_max":581,"o":"m -96 33 q -62 66 -80 47 q -21 110 -43 84 q 93 61 44 76 q 184 46 142 46 q 361 122 290 46 q 433 304 433 197 q 402 401 433 366 q 319 437 372 437 q 172 410 275 437 q 142 401 152 404 l 143 433 q 391 558 317 501 q 465 679 465 615 q 443 740 465 718 q 379 761 420 761 q 313 748 352 761 q 214 705 274 735 l 216 737 q 316 803 275 779 q 393 842 357 827 q 426 845 412 844 q 452 846 441 846 q 545 812 509 846 q 581 722 581 778 q 410 519 581 628 l 403 515 q 512 462 471 507 q 553 349 553 416 q 508 212 553 283 q 378 75 463 142 q 244 -3 311 22 q 107 -29 178 -29 q 7 -14 56 -29 q -96 33 -41 1 z "},"4":{"ha":627,"x_min":-8,"x_max":583,"o":"m 339 306 l 408 571 q 423 622 410 576 q 446 710 437 668 q 244 483 322 574 q 103 307 167 392 q 177 306 134 307 q 228 304 220 304 q 292 304 269 304 q 339 306 316 304 m 315 224 l 43 224 l -8 224 l -8 241 q 102 393 9 286 q 142 439 128 422 l 256 572 q 343 671 288 609 q 480 822 399 733 q 527 841 493 827 q 583 864 561 855 q 560 767 573 821 q 545 703 547 713 l 449 306 l 576 298 q 550 257 562 275 q 525 225 537 239 q 490 224 509 224 q 429 224 470 224 q 414 165 420 197 q 412 155 413 159 l 406 124 q 402 105 404 114 q 401 86 401 96 q 405 56 401 72 q 420 8 409 39 q 400 -1 414 5 q 338 -28 358 -20 l 295 -43 q 275 -35 283 -41 q 262 -19 268 -30 q 269 41 262 5 q 289 126 275 77 l 315 224 z "},"5":{"ha":627,"x_min":-46,"x_max":711,"o":"m -46 -4 q -7 48 -24 25 q 25 90 9 71 q 118 63 85 71 q 174 56 150 56 q 340 120 275 56 q 406 288 406 185 q 361 398 406 355 q 249 441 317 441 q 196 433 223 441 q 135 404 168 424 l 107 419 q 174 583 141 496 q 258 825 208 671 q 344 818 311 820 q 406 815 378 815 q 565 841 503 815 q 711 939 627 866 l 711 901 q 627 799 660 836 q 570 746 593 762 q 511 719 543 727 q 419 711 480 711 l 378 711 q 318 713 363 711 q 292 714 301 713 q 262 647 281 691 q 236 591 242 604 l 205 528 q 266 534 238 532 q 318 536 294 536 q 464 486 410 536 q 517 350 517 436 q 483 209 517 271 q 364 78 448 146 q 232 -5 288 17 q 111 -28 176 -28 q 40 -22 78 -28 q -46 -4 1 -16 z "},"6":{"ha":627,"x_min":20,"x_max":657,"o":"m 143 290 l 143 267 q 178 103 143 159 q 279 47 213 47 q 398 97 350 47 q 446 220 446 146 q 410 329 446 288 q 318 371 375 371 q 248 356 286 371 q 178 317 210 342 l 143 290 m 150 353 q 203 391 174 372 q 271 431 233 410 q 332 451 304 444 q 385 457 360 457 q 506 408 459 457 q 553 281 553 359 q 529 175 553 226 q 461 82 505 123 q 341 3 408 33 q 216 -26 273 -26 q 72 36 124 -26 q 20 208 20 98 q 78 456 20 319 q 228 689 137 593 q 391 810 299 764 q 561 856 484 856 q 605 850 583 856 q 657 831 627 844 q 627 789 648 818 q 596 745 607 760 q 528 768 557 760 q 473 775 498 775 q 272 662 360 775 q 150 353 184 548 z "},"7":{"ha":627,"x_min":109,"x_max":694,"o":"m 262 4 q 239 -3 254 1 q 126 -35 162 -26 q 113 24 117 0 q 109 62 109 47 q 157 191 109 109 q 310 403 205 273 l 568 722 q 494 719 540 722 q 478 718 483 718 l 239 705 q 201 703 219 704 q 174 703 184 703 q 146 708 157 703 q 136 722 136 714 q 137 727 136 724 q 142 739 138 730 l 151 768 q 171 828 157 786 q 192 892 185 870 l 218 899 q 249 831 229 849 q 309 814 268 814 q 366 815 330 814 q 444 819 401 817 l 693 833 l 694 817 l 444 490 q 288 258 332 342 q 244 113 244 174 q 252 58 244 94 q 262 4 260 21 z "},"8":{"ha":627,"x_min":-14,"x_max":627,"o":"m 355 507 q 465 597 429 546 q 501 713 501 648 q 477 774 501 749 q 418 799 454 799 q 324 749 364 799 q 283 633 283 699 q 300 571 283 600 q 355 507 316 542 m 294 411 q 159 312 201 368 q 117 179 117 256 q 149 77 117 115 q 236 39 182 39 q 366 93 313 39 q 418 231 418 146 q 300 406 418 298 q 294 411 296 410 m 249 446 q 190 513 208 477 q 172 595 172 548 q 193 684 172 642 q 256 761 214 726 q 368 830 306 804 q 484 856 430 856 q 587 822 548 856 q 627 732 627 787 q 572 608 627 669 q 399 476 518 547 q 514 363 488 404 q 541 271 541 322 q 516 176 541 220 q 441 89 492 132 q 305 4 374 33 q 170 -25 235 -25 q 35 21 83 -25 q -14 147 -14 66 q 45 300 -14 232 q 249 446 104 368 z "},"9":{"ha":627,"x_min":-61,"x_max":604,"o":"m 476 500 q 479 532 477 511 q 482 589 482 576 q 447 720 482 673 q 347 766 411 766 q 233 712 281 766 q 184 576 184 657 q 218 465 184 507 q 306 422 251 422 q 374 439 337 422 q 476 500 412 455 m -61 3 q -15 54 -31 36 q 12 87 1 73 q 93 56 56 66 q 164 46 129 46 q 362 146 284 46 q 468 436 440 245 q 434 417 456 429 q 239 342 300 342 q 118 391 165 342 q 72 519 72 440 q 104 647 72 590 q 201 750 136 703 q 320 814 258 791 q 429 838 382 838 q 558 778 512 838 q 604 612 604 719 q 556 355 604 490 q 440 143 509 219 q 277 18 370 65 q 100 -29 184 -29 q 16 -22 54 -29 q -61 3 -22 -14 z "}," ":{"ha":314,"x_min":0,"x_max":0,"o":""},"!":{"ha":382,"x_min":40,"x_max":380,"o":"m 40 96 q 94 140 67 120 q 150 175 121 160 q 182 120 167 146 q 214 71 198 94 q 160 25 184 44 q 111 -9 135 5 q 70 42 87 16 q 40 96 52 68 m 118 238 q 193 587 123 313 q 248 800 228 722 q 311 829 277 816 q 380 854 344 843 q 297 626 331 724 q 249 476 262 528 l 231 408 q 213 344 222 378 q 197 274 205 311 q 157 255 183 267 q 118 238 131 243 z "},"\"":{"ha":460,"x_min":61,"x_max":399,"o":"m 351 586 l 330 586 l 286 896 q 286 900 286 897 q 283 922 283 915 q 299 974 283 956 q 342 991 314 991 q 384 974 369 991 q 399 924 399 956 q 398 908 399 914 q 397 896 398 902 l 351 586 m 129 586 l 107 586 l 64 896 q 62 913 62 907 q 61 924 61 920 q 76 974 61 956 q 118 991 91 991 q 161 974 146 991 q 176 924 176 956 q 174 901 176 918 q 174 896 174 897 l 129 586 z "},"#":{"ha":1068,"x_min":71,"x_max":997,"o":"m 475 589 l 407 395 l 603 395 l 672 589 l 475 589 m 528 987 l 618 987 l 504 668 l 699 668 l 812 987 l 901 987 l 789 668 l 997 668 l 970 589 l 760 589 l 692 395 l 917 395 l 888 317 l 664 317 l 551 -1 l 461 -1 l 574 317 l 379 317 l 267 -1 l 178 -1 l 290 317 l 71 317 l 100 395 l 318 395 l 386 589 l 150 589 l 179 668 l 415 668 l 528 987 z "},"$":{"ha":627,"x_min":-35,"x_max":586,"o":"m 237 79 q 355 133 316 98 q 395 221 395 169 q 373 297 395 262 q 309 364 352 332 l 237 79 m 125 -179 q 148 -97 132 -155 q 175 -4 165 -38 q 149 -6 161 -5 q 121 -7 136 -7 q 48 1 85 -7 q -35 25 12 8 l 43 115 q 123 90 85 100 q 199 77 161 80 l 277 386 q 175 471 207 428 q 143 564 143 513 q 216 721 143 643 q 390 823 290 800 q 406 893 399 860 q 418 957 412 926 l 475 971 q 454 900 464 935 q 435 831 444 865 q 445 831 438 831 q 454 832 451 832 q 520 821 488 832 q 586 787 553 810 l 528 713 q 458 748 482 738 q 414 762 434 758 l 347 493 q 460 404 430 443 q 490 311 490 364 q 417 137 490 220 q 218 3 345 54 q 198 -90 205 -52 q 186 -158 191 -128 l 125 -179 m 378 768 q 273 721 314 762 q 232 625 232 680 q 252 563 232 591 q 313 513 271 536 l 378 768 z "},"%":{"ha":946,"x_min":57,"x_max":892,"o":"m 297 783 q 191 701 239 783 q 143 514 143 619 q 161 437 143 464 q 211 411 178 411 q 319 495 272 411 q 366 686 366 579 q 347 758 366 732 q 297 783 329 783 m 436 793 q 446 763 443 778 q 449 729 449 748 q 430 601 449 667 q 379 488 410 534 q 276 392 342 431 q 158 353 210 353 q 84 388 111 353 q 57 486 57 422 q 147 737 57 631 q 353 843 237 843 q 419 838 358 843 q 534 833 479 833 q 623 840 591 833 q 672 860 655 846 q 758 962 698 882 q 774 983 768 976 q 809 967 791 974 q 850 954 827 960 q 714 750 777 847 q 604 576 650 652 l 428 286 q 279 17 342 144 q 175 -227 216 -111 l 122 -142 q 138 -111 126 -134 q 302 183 218 45 l 546 576 q 611 685 578 629 q 679 802 644 741 q 609 795 644 798 q 541 793 574 793 l 436 793 m 741 404 q 634 322 682 404 q 586 135 586 240 q 604 59 586 85 q 656 32 622 32 q 763 116 716 32 q 810 307 810 200 q 791 378 810 353 q 741 404 772 404 m 501 104 q 528 248 501 176 q 599 366 555 319 q 694 435 637 407 q 793 464 751 464 q 866 432 841 464 q 892 340 892 401 q 869 202 892 271 q 806 83 846 134 q 708 4 768 37 q 603 -28 648 -28 q 528 6 554 -28 q 501 104 501 41 z "},"&":{"ha":1074,"x_min":22,"x_max":1125,"o":"m 151 374 q 203 404 180 390 q 243 428 227 417 l 355 498 l 355 509 l 355 519 q 344 558 355 545 q 310 571 332 571 q 213 514 260 571 q 151 374 165 458 m 771 485 l 737 482 q 600 431 644 477 q 509 249 555 385 l 465 261 q 585 533 542 485 q 710 582 629 582 l 786 582 l 901 625 l 895 590 l 928 590 q 1020 617 993 590 q 1092 765 1048 644 l 1125 736 l 1107 677 q 1041 527 1074 567 q 943 486 1008 486 l 873 486 q 823 326 848 382 q 764 225 798 269 q 550 41 669 105 q 301 -22 431 -22 q 93 37 163 -22 q 22 214 22 96 q 61 381 22 295 q 171 539 100 467 q 275 620 222 591 q 372 648 328 648 q 426 629 404 648 q 465 570 448 610 l 509 597 q 567 655 547 623 q 587 725 587 688 q 583 757 587 743 q 567 787 578 772 q 615 819 589 804 q 673 851 642 835 q 697 819 690 836 q 704 782 704 802 q 642 652 704 718 q 359 446 580 586 l 243 372 q 161 306 180 332 q 142 228 142 279 q 198 104 142 150 q 351 58 254 58 q 641 164 536 58 q 771 485 745 271 z "},"'":{"ha":236,"x_min":61,"x_max":176,"o":"m 129 586 l 107 586 l 62 896 q 61 907 62 901 q 61 922 61 912 q 76 974 61 956 q 118 991 90 991 q 161 974 146 991 q 176 924 176 956 q 174 901 176 918 q 174 896 174 897 l 129 586 z "},"(":{"ha":463,"x_min":92,"x_max":528,"o":"m 138 -292 q 103 -160 114 -229 q 92 -8 92 -91 q 196 508 92 258 q 482 928 300 758 l 528 917 q 273 532 357 751 q 189 40 189 314 q 201 -117 189 -41 q 239 -269 214 -193 q 192 -281 216 -276 q 138 -292 167 -287 z "},")":{"ha":463,"x_min":-114,"x_max":371,"o":"m 304 928 q 355 794 338 863 q 371 643 371 725 q 330 362 371 509 q 208 62 289 215 q 80 -137 151 -48 q -79 -298 9 -226 l -114 -283 q 167 135 68 -104 q 267 633 267 374 q 252 758 267 701 q 203 878 237 816 q 254 904 228 891 q 304 928 279 917 z "},"*":{"ha":595,"x_min":115,"x_max":549,"o":"m 140 473 q 130 496 136 485 q 115 519 123 508 l 272 591 l 281 621 l 172 715 q 193 730 183 722 q 214 753 203 739 l 304 656 l 329 664 l 366 832 q 383 829 374 830 q 399 828 391 828 q 410 828 404 828 q 422 829 416 829 l 374 685 q 370 672 371 678 q 368 664 368 666 q 369 658 368 661 q 371 656 370 656 l 378 652 l 525 732 q 535 710 529 722 q 549 686 541 699 l 389 615 l 383 590 l 486 488 q 464 472 474 481 q 444 452 453 463 l 354 555 l 329 546 l 294 374 q 279 378 287 376 q 264 379 271 379 q 243 377 258 379 q 239 376 240 376 l 290 549 l 278 555 l 140 473 z "},"+":{"ha":1157,"x_min":172,"x_max":985,"o":"m 539 828 l 619 828 l 619 454 l 985 454 l 985 375 l 619 375 l 619 0 l 539 0 l 539 375 l 172 375 l 172 454 l 539 454 l 539 828 z "},",":{"ha":314,"x_min":-68,"x_max":184,"o":"m -68 -175 q 42 -8 12 -83 q 79 172 73 67 q 133 191 107 182 q 184 210 159 200 q 138 6 180 87 q -35 -191 96 -75 l -68 -175 z "},"-":{"ha":463,"x_min":37,"x_max":415,"o":"m 374 273 q 343 270 359 271 q 298 269 327 269 l 254 269 l 37 269 l 83 347 l 415 347 l 374 273 z "},"­":{"ha":463,"x_min":37,"x_max":415,"o":"m 374 273 q 343 270 359 271 q 298 269 327 269 l 254 269 l 37 269 l 83 347 l 415 347 l 374 273 z "},".":{"ha":314,"x_min":16,"x_max":195,"o":"m 97 -8 q 51 33 71 9 q 16 89 31 57 q 53 125 33 106 q 115 182 74 144 q 160 124 140 150 q 195 78 180 98 q 146 28 170 50 q 97 -8 122 7 z "},"/":{"ha":386,"x_min":-75,"x_max":447,"o":"m -75 -25 q 43 191 -26 64 q 121 333 113 317 l 204 490 q 272 626 210 501 q 382 848 333 750 l 447 848 q 376 714 416 786 q 330 632 336 643 l 109 204 q 86 162 103 193 q -8 -25 29 58 l -75 -25 z "},":":{"ha":346,"x_min":22,"x_max":304,"o":"m 205 411 q 162 456 180 432 q 131 509 144 479 q 179 556 155 534 q 228 600 203 579 q 266 551 247 576 q 304 498 284 526 q 258 449 283 471 q 205 411 234 427 m 100 -8 q 57 39 76 15 q 22 92 38 64 q 105 160 49 115 q 131 180 122 174 q 170 131 152 156 q 201 79 187 106 q 156 28 180 50 q 100 -8 131 7 z "},";":{"ha":346,"x_min":-81,"x_max":301,"o":"m 207 410 q 162 460 182 434 q 123 515 141 487 q 170 559 145 536 q 224 608 194 582 q 263 555 244 582 q 301 500 283 528 q 254 452 277 474 q 207 410 231 429 m -81 -176 q 36 -9 1 -89 q 75 171 71 70 q 94 176 81 173 q 189 207 154 195 q 118 -24 173 68 q -46 -192 64 -117 l -81 -176 z "},";":{"ha":346,"x_min":-81,"x_max":301,"o":"m 207 410 q 162 460 182 434 q 123 515 141 487 q 170 559 145 536 q 224 608 194 582 q 263 555 244 582 q 301 500 283 528 q 254 452 277 474 q 207 410 231 429 m -81 -176 q 36 -9 1 -89 q 75 171 71 70 q 94 176 81 173 q 189 207 154 195 q 118 -24 173 68 q -46 -192 64 -117 l -81 -176 z "},"<":{"ha":1157,"x_min":179,"x_max":978,"o":"m 978 777 l 978 690 l 300 414 l 978 139 l 978 52 l 179 379 l 179 449 l 978 777 z "},"=":{"ha":1157,"x_min":172,"x_max":985,"o":"m 172 323 l 985 323 l 985 244 l 172 244 l 172 323 m 172 583 l 985 583 l 985 504 l 172 504 l 172 583 z "},">":{"ha":1157,"x_min":179,"x_max":978,"o":"m 179 777 l 978 449 l 978 379 l 179 52 l 179 139 l 857 414 l 179 690 l 179 777 z "},"?":{"ha":463,"x_min":57,"x_max":481,"o":"m 126 204 q 90 283 100 251 q 79 343 79 315 q 82 377 79 360 q 92 414 85 395 l 197 481 q 224 498 206 488 q 363 667 363 586 q 330 754 363 724 q 233 783 297 783 q 208 782 222 783 q 175 779 194 781 l 215 835 q 266 847 243 844 q 309 851 288 851 q 434 813 387 851 q 481 710 481 774 q 454 626 481 664 q 366 543 428 587 l 301 498 l 296 495 q 180 349 180 414 q 187 300 180 324 q 210 244 194 277 l 126 204 m 115 -17 q 80 30 94 5 q 57 86 66 55 q 105 121 81 104 q 157 154 130 138 l 211 52 q 167 13 191 30 q 115 -17 143 -4 z "},"@":{"ha":1369,"x_min":98,"x_max":1272,"o":"m 807 228 q 713 120 765 156 q 597 85 661 85 q 461 147 513 85 q 410 313 410 210 q 443 459 410 386 q 536 590 476 532 q 634 658 581 633 q 739 682 688 682 q 836 649 798 682 q 889 550 874 615 l 925 672 l 1022 672 l 907 258 q 906 255 907 257 q 895 184 895 215 q 912 134 895 153 q 958 115 929 115 q 1012 127 981 115 q 1069 160 1042 139 q 1196 317 1152 221 q 1240 530 1240 412 q 1206 701 1240 625 q 1103 839 1173 777 q 956 922 1042 892 q 775 951 871 951 q 544 912 648 951 q 357 793 439 872 q 223 594 269 707 q 178 343 178 480 q 216 137 178 224 q 339 -22 255 49 q 516 -122 416 -88 q 733 -155 616 -155 q 948 -120 844 -155 q 1149 -16 1053 -85 l 1169 -40 q 957 -153 1069 -115 q 725 -191 845 -191 q 493 -159 598 -191 q 307 -65 388 -127 q 152 121 205 12 q 98 364 98 231 q 157 623 98 503 q 326 835 215 743 q 524 947 415 909 q 757 985 632 985 q 1132 858 992 985 q 1272 519 1272 731 q 1233 318 1272 413 q 1122 158 1194 223 q 1039 104 1084 123 q 947 85 994 85 q 846 120 882 85 q 807 228 811 156 m 745 654 q 677 633 708 654 q 615 566 647 612 q 537 407 566 492 q 509 254 509 321 q 536 155 509 191 q 610 118 564 118 q 695 148 654 118 q 774 239 736 178 q 836 376 812 302 q 859 510 859 450 q 826 614 859 573 q 745 654 794 654 z "},"A":{"ha":861,"x_min":-110,"x_max":859,"o":"m 232 164 q 98 22 158 64 q -26 -20 39 -20 q -63 -18 -43 -20 q -110 -12 -83 -16 q -84 41 -97 14 q -60 96 -72 68 q -33 94 -54 96 q 1 92 -11 92 q 89 109 47 92 q 164 160 132 127 q 287 312 203 200 q 467 562 371 423 l 533 660 q 562 701 545 676 q 581 730 578 726 l 471 746 q 420 751 439 749 q 387 753 401 753 q 274 718 313 753 q 235 615 235 682 q 242 557 235 590 q 265 479 250 524 q 220 448 245 465 q 157 410 195 431 q 138 471 144 443 q 132 522 132 499 q 161 639 132 581 q 249 753 191 697 q 353 827 300 804 q 468 850 406 850 q 504 848 481 850 q 555 842 526 846 l 598 836 q 623 833 612 834 q 637 832 633 832 q 681 843 662 832 q 726 885 701 854 l 750 871 q 728 725 739 801 q 710 567 718 649 l 688 355 q 674 209 677 257 q 671 129 671 161 q 685 79 671 94 q 737 65 700 65 q 752 66 739 65 q 776 68 765 67 l 859 74 l 827 24 l 785 16 q 682 -5 700 -2 l 587 -25 l 555 -7 q 549 17 551 5 q 547 41 547 28 q 549 88 547 58 q 555 151 551 117 l 571 285 l 472 285 q 417 281 469 285 q 314 273 365 277 l 232 164 m 363 342 q 399 338 380 340 q 419 336 418 336 l 476 336 l 578 336 q 586 415 581 373 q 597 513 591 457 l 623 708 q 553 608 600 675 q 363 342 432 430 z "},"B":{"ha":878,"x_min":41,"x_max":843,"o":"m 265 75 q 384 63 317 71 q 465 56 451 56 q 621 119 558 56 q 684 275 684 183 q 643 378 684 340 q 530 415 602 415 q 485 411 514 415 q 467 408 473 409 l 449 339 q 387 191 426 246 q 265 75 347 135 m 478 453 q 652 521 582 456 q 722 672 722 586 q 686 758 722 730 q 575 786 650 786 l 570 786 l 478 453 m 54 -3 l 104 61 l 146 72 q 261 135 229 94 q 329 309 294 176 l 458 785 q 236 709 311 773 q 161 532 161 646 q 165 481 161 509 q 175 421 168 454 q 115 395 155 412 q 56 371 75 379 q 45 432 48 408 q 41 472 41 456 q 163 715 41 613 q 473 829 286 817 l 587 879 l 575 833 q 774 799 705 833 q 843 699 843 764 q 794 572 843 632 q 647 460 745 513 q 769 408 732 443 q 806 307 806 372 q 771 188 806 246 q 673 85 736 130 q 535 16 614 42 q 389 -9 457 -9 q 361 -8 387 -9 q 308 -7 334 -7 l 258 -5 q 233 -4 251 -5 q 142 -1 175 -1 q 97 -2 117 -1 q 54 -3 76 -2 z "},"C":{"ha":768,"x_min":25,"x_max":782,"o":"m 661 135 l 647 89 q 453 1 544 31 q 282 -28 361 -28 q 92 40 159 -28 q 25 233 25 109 q 70 468 25 351 q 192 667 115 585 q 382 802 270 751 q 599 852 494 852 q 701 836 656 852 q 782 782 745 819 q 744 696 762 738 q 710 612 726 654 l 670 599 q 670 617 670 608 q 671 642 671 627 q 632 753 671 714 q 524 793 594 793 q 398 756 462 793 q 283 657 334 720 q 193 479 227 586 q 158 269 158 373 q 212 94 158 157 q 363 32 266 32 q 490 57 416 32 q 661 135 563 82 z "},"D":{"ha":1019,"x_min":35,"x_max":1003,"o":"m 35 0 q 64 30 51 14 q 87 62 77 45 q 185 78 152 68 q 238 106 218 87 q 266 140 254 120 q 294 199 279 159 q 336 314 319 259 q 353 378 353 370 q 361 410 353 380 q 375 464 369 439 l 421 644 q 438 713 430 679 q 452 781 446 747 q 235 695 309 765 q 161 504 161 625 q 163 468 161 489 q 168 415 164 447 q 110 391 151 408 q 46 364 68 374 q 39 417 41 392 q 36 456 36 441 q 156 699 36 597 q 481 829 276 800 l 587 873 l 587 860 q 586 850 587 858 q 585 836 585 843 q 905 768 806 832 q 1003 567 1003 705 q 961 350 1003 457 q 850 178 918 243 q 745 98 808 137 q 607 31 681 60 q 524 7 568 14 q 410 0 479 0 l 338 0 l 35 0 m 260 71 l 431 71 q 622 95 552 71 q 742 174 691 119 q 836 340 799 235 q 872 550 872 445 q 804 732 872 674 q 591 790 736 790 l 575 790 q 542 682 562 759 q 538 664 539 670 l 476 416 q 396 211 444 282 q 260 71 349 139 z "},"E":{"ha":958,"x_min":35,"x_max":922,"o":"m 65 0 l 113 49 q 231 110 191 66 q 298 267 270 153 l 329 393 l 283 395 q 304 414 290 401 q 346 453 332 441 l 428 778 l 410 778 q 216 734 282 778 q 150 607 150 690 q 156 555 150 582 q 174 496 161 528 q 108 455 134 471 q 60 427 82 439 q 41 488 47 461 q 35 539 35 515 q 156 745 35 661 q 464 829 278 829 l 468 829 l 559 856 l 560 829 q 665 830 606 830 q 860 831 724 831 q 894 811 879 824 q 922 775 909 798 q 871 727 897 749 q 818 685 846 705 l 787 737 q 760 772 772 764 q 707 781 747 781 l 546 781 l 461 457 q 506 453 482 454 q 575 452 530 452 l 724 452 l 672 408 l 507 397 q 498 397 504 397 q 444 390 465 393 l 429 335 l 428 330 q 253 68 385 172 l 699 68 q 772 80 757 68 q 787 127 787 93 q 785 148 787 136 q 779 179 783 161 l 895 220 q 896 207 895 214 q 896 191 896 200 q 856 97 896 141 q 707 -14 816 52 q 696 -15 701 -15 q 682 -16 692 -16 l 656 -16 l 65 0 z "},"F":{"ha":790,"x_min":-83,"x_max":884,"o":"m 75 375 q 64 449 67 421 q 61 497 61 477 q 97 649 61 581 q 201 765 133 718 q 307 814 250 800 q 468 829 363 829 l 526 829 l 665 829 q 778 834 741 829 q 843 850 815 839 l 884 867 q 877 837 881 850 q 871 822 873 825 l 791 765 l 750 765 q 677 766 717 765 q 566 770 638 768 q 547 706 561 756 q 514 581 533 656 l 473 410 q 497 407 485 408 q 528 406 509 406 l 685 399 l 640 359 q 527 348 570 353 q 452 335 484 342 l 428 246 l 427 243 q 283 -36 380 62 q 142 -153 195 -126 q 21 -179 90 -179 q 8 -178 17 -179 q -4 -178 0 -178 l -83 -174 q -54 -124 -73 -155 q -26 -79 -35 -93 l 64 -79 q 168 -70 140 -79 q 212 -36 195 -60 q 262 64 238 -1 q 314 243 286 130 l 338 338 l 292 340 q 328 382 306 356 q 357 416 349 408 l 452 775 q 439 777 448 775 q 375 781 394 781 q 228 722 282 781 q 174 564 174 663 q 179 505 174 538 q 196 431 184 473 q 121 397 146 408 q 75 375 96 385 z "},"G":{"ha":781,"x_min":16,"x_max":812,"o":"m 151 -228 q 240 -234 204 -232 q 296 -236 277 -236 q 406 -199 370 -236 q 479 -12 441 -163 l 498 65 q 357 2 423 23 q 233 -20 290 -20 q 73 41 131 -20 q 16 210 16 102 q 74 459 16 324 q 221 682 132 593 q 403 804 298 760 q 614 848 508 848 q 741 818 689 848 q 812 732 793 787 l 696 611 q 645 743 686 701 q 529 786 604 786 q 399 749 465 786 q 281 647 333 713 q 181 462 218 568 q 143 260 143 356 q 188 101 143 161 q 304 41 233 41 q 409 66 356 41 q 518 140 462 90 l 567 336 l 532 336 q 368 341 479 336 q 359 342 362 342 q 412 372 387 357 q 460 400 437 387 q 578 396 513 398 q 772 393 644 395 l 677 336 l 637 174 q 625 125 633 157 q 503 -170 574 -84 q 358 -296 431 -256 q 199 -336 285 -336 q 149 -334 176 -336 q 89 -325 122 -331 l 151 -228 z "},"H":{"ha":1000,"x_min":-60,"x_max":1147,"o":"m 732 418 q 583 410 636 413 q 519 406 530 407 l 435 393 q 379 256 415 319 q 289 135 344 193 q 161 20 201 43 q 77 -4 121 -4 q 28 -3 62 -4 q -60 0 -7 -2 l 3 100 q 43 99 24 99 q 79 98 62 98 q 239 156 191 98 q 328 396 288 213 q 311 403 324 397 q 291 413 297 409 l 347 468 l 419 768 q 406 769 412 769 q 385 770 399 770 q 242 731 290 770 q 195 615 195 692 q 198 570 195 597 q 212 492 202 542 l 94 454 q 88 504 90 482 q 86 542 86 526 q 112 650 86 600 q 193 747 138 699 q 477 830 282 825 q 488 831 484 831 l 571 833 l 571 812 l 530 765 l 460 471 q 517 468 488 469 q 593 467 546 467 l 660 468 q 710 468 692 468 q 745 470 728 469 l 777 593 q 877 829 817 752 q 1048 977 937 906 q 1082 985 1065 982 q 1118 987 1099 987 q 1136 987 1130 987 q 1147 986 1143 987 l 1099 888 l 1039 890 l 1035 890 q 958 842 987 890 q 878 581 930 793 l 774 154 q 765 115 768 134 q 762 83 762 97 q 778 69 762 73 q 833 65 794 65 l 860 65 l 936 65 l 914 26 q 829 7 873 16 q 722 -9 785 -1 l 668 -18 l 661 -18 q 637 -12 646 -18 q 629 7 629 -5 q 634 41 629 16 q 647 96 639 65 l 732 418 z "},"I":{"ha":602,"x_min":26,"x_max":572,"o":"m 81 58 q 117 60 85 58 q 174 64 149 62 q 279 254 239 92 l 282 265 l 330 468 l 404 768 q 390 769 397 769 q 370 770 383 770 q 227 731 274 770 q 179 614 179 692 q 182 571 179 595 q 191 517 185 547 l 74 489 q 71 512 72 500 q 71 542 71 524 q 90 636 71 593 q 151 724 109 679 q 278 806 208 781 q 471 831 348 831 l 572 831 l 515 765 l 427 400 l 425 393 q 239 58 368 154 l 304 58 q 440 67 391 58 q 534 97 489 77 l 534 90 q 430 20 492 43 q 279 -3 367 -3 q 236 -1 266 -3 q 191 0 206 0 l 26 0 l 81 58 z "},"J":{"ha":528,"x_min":-212,"x_max":571,"o":"m -212 -195 l -151 -90 q -86 -98 -108 -96 q -50 -100 -65 -100 q 54 -81 7 -100 q 138 -25 101 -62 q 233 201 186 25 l 237 219 l 258 298 q 264 319 260 307 q 271 353 271 347 q 268 367 271 360 q 260 379 265 374 l 237 406 q 267 432 250 418 q 306 461 285 446 l 389 772 q 375 773 384 772 q 363 774 366 774 q 227 731 272 774 q 182 603 182 688 q 185 551 182 578 q 196 489 189 524 q 137 467 175 481 q 83 448 100 454 q 73 503 76 480 q 69 543 69 526 q 105 666 69 608 q 211 774 140 724 q 321 820 256 805 q 479 835 387 835 l 571 835 q 505 778 551 814 l 501 774 l 396 378 q 352 214 365 260 q 330 144 338 168 q 287 56 312 93 q 207 -28 262 18 q 8 -170 71 -144 q -146 -196 -55 -196 q -178 -195 -156 -196 q -212 -195 -200 -195 z "},"K":{"ha":968,"x_min":-31,"x_max":1082,"o":"m -31 0 l 17 64 q 50 67 28 65 q 214 113 178 79 q 274 197 248 142 q 330 374 299 252 l 435 775 l 404 775 q 218 735 281 775 q 155 618 155 696 q 162 562 155 593 q 183 481 168 530 q 123 454 153 467 q 65 432 94 442 q 46 504 52 472 q 40 564 40 536 q 159 754 40 675 q 460 833 279 833 q 600 829 502 833 q 612 828 608 828 l 550 782 l 476 498 l 533 542 q 618 611 534 542 q 782 737 702 680 l 836 778 q 847 786 840 781 q 993 851 937 851 q 1025 846 1008 851 q 1065 831 1042 842 l 1007 711 q 958 730 979 724 q 921 736 937 736 q 791 681 873 736 q 567 498 709 626 q 665 231 618 353 q 667 225 666 227 l 718 97 q 826 -109 781 -56 q 932 -161 872 -161 q 1007 -137 971 -161 q 1072 -67 1044 -113 q 1078 -135 1074 -94 q 1082 -191 1081 -176 q 1022 -207 1053 -202 q 950 -212 991 -212 q 793 -177 864 -212 q 677 -77 722 -141 q 523 293 618 12 q 507 340 513 324 l 475 436 l 458 431 q 386 239 438 322 q 235 77 334 156 l 404 71 l 357 36 q 342 25 351 32 q 283 1 317 4 q 277 1 283 1 q 143 -1 216 -1 q 85 -1 143 -1 q -31 0 27 0 z "},"L":{"ha":765,"x_min":-140,"x_max":720,"o":"m -140 -12 l -67 76 q -11 81 -33 79 q 29 83 11 83 q 81 129 60 92 q 127 277 101 166 l 174 468 q 215 601 195 554 q 262 681 235 648 q 406 812 343 772 q 528 852 468 852 q 570 848 547 852 q 625 833 594 843 l 559 750 q 543 753 555 751 q 447 764 475 764 q 370 726 399 764 q 317 596 340 688 l 271 411 q 264 382 269 401 q 103 85 214 176 l 350 85 q 551 109 502 85 q 639 200 600 133 l 697 300 l 715 273 q 719 266 718 270 q 720 257 720 262 q 719 250 720 254 q 715 242 718 246 l 600 4 q 543 -22 582 -14 q 412 -29 504 -29 q 354 -27 385 -29 q 288 -22 323 -26 l 241 -17 q 88 -4 159 -9 q -4 1 17 1 q -53 -2 -24 1 q -140 -12 -83 -5 z "},"M":{"ha":1186,"x_min":-46,"x_max":1331,"o":"m -46 0 q -18 42 -40 9 q 20 98 3 75 q 48 96 29 98 q 113 93 96 93 q 187 102 159 93 q 231 131 215 111 q 329 382 272 180 q 338 411 334 401 l 429 729 q 359 741 392 737 q 296 745 327 745 q 181 709 223 745 q 139 612 139 673 q 147 562 139 593 q 182 456 155 530 q 129 418 157 437 q 69 380 100 399 q 46 447 54 416 q 39 509 39 479 q 59 605 39 555 q 121 705 80 654 q 230 806 179 779 q 363 833 280 833 q 424 831 376 833 q 498 828 471 829 l 551 872 q 584 546 569 709 q 611 218 599 382 q 641 255 625 235 q 679 310 656 275 l 960 711 q 1046 829 1013 786 q 1096 885 1080 871 q 1212 962 1158 935 q 1305 989 1265 989 q 1317 988 1312 989 q 1331 986 1323 987 l 1287 882 q 1239 894 1256 890 q 1214 897 1223 897 q 1098 671 1153 897 q 1063 529 1076 583 l 1046 468 q 992 253 1015 346 q 970 155 970 161 l 961 106 q 960 97 960 102 q 960 85 960 92 q 976 57 960 66 q 1029 49 991 49 q 1076 49 1051 49 q 1145 51 1101 50 l 1121 7 q 982 -15 1047 -6 q 854 -28 917 -23 l 827 -1 q 929 431 827 51 q 991 668 968 581 q 884 519 959 629 q 828 436 848 465 l 796 390 q 663 189 714 271 q 583 45 612 106 l 524 -7 l 509 -3 q 489 374 504 197 q 488 397 488 393 l 479 510 q 474 574 479 520 q 465 671 469 627 l 372 346 q 249 71 313 144 q 83 -3 185 -3 q -41 0 43 -3 q -46 0 -45 0 z "},"N":{"ha":1007,"x_min":-9,"x_max":1190,"o":"m -9 -4 l 53 101 q 98 96 81 98 q 127 94 115 94 q 248 139 205 94 q 342 363 290 184 l 364 441 q 390 547 372 467 q 429 729 408 627 q 384 732 402 731 q 354 733 365 733 q 199 698 253 733 q 146 596 146 663 q 182 484 146 567 q 195 454 191 465 l 93 379 q 65 451 74 419 q 56 513 56 484 q 107 661 56 578 q 229 787 159 744 q 310 823 267 810 q 399 835 353 835 q 433 834 415 835 q 469 831 450 833 l 509 868 l 600 501 q 657 305 623 410 q 733 98 692 200 l 829 507 q 842 564 834 527 q 935 838 892 779 q 1046 958 1001 927 q 1149 989 1092 989 q 1171 988 1162 989 q 1190 987 1181 988 l 1137 885 q 1109 886 1122 886 q 1083 886 1096 886 q 980 822 1019 886 q 889 536 941 758 l 864 429 q 820 237 842 336 q 775 28 798 138 q 877 -116 816 -64 q 1004 -168 937 -168 q 1078 -143 1042 -168 q 1154 -61 1113 -118 l 1161 -199 q 1092 -218 1126 -212 q 1018 -224 1057 -224 q 683 -42 804 -224 q 464 644 562 140 q 306 137 393 283 q 83 -9 219 -9 q 10 -5 63 -9 q -9 -4 -3 -5 z "},"O":{"ha":846,"x_min":26,"x_max":822,"o":"m 26 271 q 77 512 26 396 q 216 708 127 627 q 382 811 288 773 q 566 848 476 848 q 755 774 688 848 q 822 564 822 701 q 783 349 822 455 q 675 165 743 242 q 495 29 600 79 q 286 -21 390 -21 q 96 57 165 -21 q 26 271 26 135 m 484 785 q 250 649 346 785 q 154 309 154 513 q 211 116 154 186 q 366 45 268 45 q 598 180 503 45 q 694 517 694 315 q 637 713 694 641 q 484 785 581 785 z "},"P":{"ha":846,"x_min":0,"x_max":867,"o":"m 457 407 q 490 404 476 405 q 515 403 505 403 q 673 476 606 403 q 741 647 741 549 q 702 750 741 715 q 590 786 663 786 q 569 786 576 786 q 555 785 562 785 l 457 407 m 0 5 l 69 64 q 134 66 113 66 q 174 66 155 66 q 210 66 185 66 q 245 65 234 65 q 298 262 267 153 q 332 380 330 370 l 397 623 q 432 760 405 649 l 436 777 q 236 698 308 764 q 164 526 164 632 q 168 478 164 505 q 180 418 172 452 q 123 385 151 400 q 69 357 95 370 q 55 426 60 394 q 50 486 50 458 q 167 710 50 615 q 475 827 284 806 l 572 864 l 564 833 q 584 834 574 834 q 614 835 594 835 q 803 795 740 835 q 867 676 867 755 q 748 449 867 543 q 440 345 629 355 l 366 66 q 395 66 380 66 q 439 66 411 66 q 494 66 463 66 q 533 65 526 65 q 563 66 548 65 q 596 68 578 66 l 596 57 q 481 14 545 28 q 342 0 418 0 l 139 0 q 117 -1 131 0 q 96 -1 102 -1 q 46 2 78 -1 q 0 5 14 5 z "},"Q":{"ha":846,"x_min":26,"x_max":1002,"o":"m 404 -3 q 342 -17 372 -12 q 288 -22 313 -22 q 97 56 167 -22 q 26 269 26 134 q 77 511 26 394 q 215 708 127 627 q 381 811 286 773 q 566 848 475 848 q 755 774 688 848 q 822 564 822 701 q 743 262 822 401 q 526 46 664 123 q 702 -132 621 -68 q 833 -196 784 -196 q 901 -165 869 -196 q 960 -75 933 -134 q 974 -111 966 -93 q 1002 -164 983 -130 q 909 -221 954 -204 q 812 -239 864 -239 q 611 -183 708 -239 q 404 -3 515 -127 m 407 47 l 482 106 l 500 86 q 643 258 591 143 q 694 517 694 372 q 637 713 694 641 q 484 785 581 785 q 250 650 346 785 q 154 311 154 515 q 211 115 154 185 q 371 45 269 45 q 384 45 377 45 q 407 47 391 45 z "},"R":{"ha":819,"x_min":-40,"x_max":1013,"o":"m 191 443 l 71 385 q 59 451 63 422 q 56 500 56 479 q 151 716 56 631 q 422 825 246 800 l 543 878 l 532 838 q 742 800 680 836 q 804 682 804 764 q 742 542 804 604 q 559 441 680 481 l 637 170 q 745 -94 688 -9 q 869 -179 802 -179 q 938 -157 905 -179 q 1007 -87 971 -136 l 1013 -208 q 950 -224 977 -220 q 899 -229 923 -229 q 645 -108 739 -229 q 490 301 551 14 l 464 422 l 427 419 q 337 201 388 281 q 210 71 287 121 q 296 68 252 70 q 385 62 340 66 q 302 14 343 28 q 204 -1 262 -1 q 174 -1 194 -1 q 142 0 153 0 l -40 0 l 8 68 l 21 68 q 196 118 142 68 q 292 330 250 168 l 407 779 q 235 706 294 764 q 176 553 176 648 q 179 508 176 532 q 191 443 182 483 m 441 463 q 615 533 551 475 q 679 677 679 592 q 645 758 679 729 q 551 786 612 786 q 523 784 543 786 q 518 783 519 783 l 441 463 z "},"S":{"ha":607,"x_min":-132,"x_max":636,"o":"m 281 371 q 197 456 224 412 q 170 551 170 500 q 197 653 170 600 q 272 751 224 706 q 382 825 323 799 q 496 851 441 851 q 593 821 556 851 q 636 737 631 791 l 530 664 q 492 751 518 723 q 422 779 465 779 q 313 727 360 779 q 267 611 267 675 q 286 541 267 572 q 366 464 304 510 l 415 425 q 418 422 416 424 q 533 256 533 334 q 503 137 533 198 q 421 28 473 77 q 273 -71 350 -39 q 109 -103 197 -103 q -30 -79 27 -103 q -132 0 -86 -54 q -106 76 -121 36 q -75 158 -92 116 l -50 161 q 23 20 -42 76 q 178 -36 89 -36 q 347 31 271 -36 q 422 180 422 97 q 399 263 422 224 q 328 338 376 302 l 281 371 z "},"T":{"ha":836,"x_min":47,"x_max":1028,"o":"m 186 0 l 228 57 q 334 89 298 71 q 386 132 370 106 q 421 213 403 159 q 463 359 439 267 l 568 781 q 458 789 498 787 q 396 791 419 791 q 229 739 289 791 q 168 595 168 686 q 175 531 168 563 q 196 461 181 499 q 144 428 181 452 q 85 390 106 404 q 57 465 66 430 q 47 533 47 500 q 167 756 47 660 q 447 852 287 852 q 572 847 465 852 q 602 846 591 846 l 690 842 q 811 836 773 838 q 872 835 849 835 q 944 854 918 835 q 1004 936 970 873 l 1028 908 q 1010 856 1021 888 q 925 753 976 753 q 895 754 921 753 q 838 758 869 756 l 684 771 l 607 480 q 598 446 604 468 q 378 60 526 162 l 467 60 q 624 64 509 60 q 679 65 659 64 l 679 56 q 564 11 624 25 q 433 -4 505 -4 q 396 -3 422 -4 q 357 -1 370 -1 l 186 0 z "},"U":{"ha":1025,"x_min":43,"x_max":978,"o":"m 668 75 l 607 50 l 597 46 q 353 -24 427 -24 q 232 26 278 -24 q 186 155 186 75 q 241 386 186 250 q 419 725 297 522 q 358 745 387 739 q 300 751 329 751 q 182 716 225 751 q 139 621 139 681 q 150 552 139 587 q 186 468 160 517 q 138 429 163 449 q 83 389 112 410 q 53 459 62 426 q 43 524 43 492 q 74 643 43 583 q 165 760 105 703 q 258 823 211 803 q 363 843 305 843 q 444 833 401 843 q 490 823 486 823 q 516 829 501 824 q 550 844 530 834 l 559 822 q 376 492 446 667 q 307 197 307 317 q 343 95 307 132 q 441 57 378 57 q 564 83 494 57 q 681 147 633 109 q 744 400 711 275 q 810 650 777 526 l 831 728 q 834 741 833 735 q 835 751 835 747 q 833 768 835 760 q 829 775 831 775 l 747 782 l 781 825 q 850 836 813 829 q 942 854 886 842 l 978 846 l 957 770 q 888 513 899 560 l 868 432 q 807 179 821 243 q 793 92 793 115 q 806 55 793 65 q 854 45 820 45 q 954 56 878 45 l 962 57 l 937 12 q 818 -9 877 0 q 700 -24 758 -18 l 672 -5 q 668 20 669 7 q 667 47 667 33 q 667 64 667 58 q 668 75 667 70 z "},"V":{"ha":878,"x_min":32,"x_max":1004,"o":"m 262 -28 q 286 174 273 71 q 314 383 299 277 l 326 468 q 345 609 336 532 q 363 775 355 686 q 354 776 359 776 q 338 777 349 777 q 192 728 247 777 q 138 599 138 679 q 145 543 138 575 q 166 467 152 510 l 158 462 q 61 411 100 430 q 39 484 46 453 q 32 541 32 515 q 65 672 32 614 q 165 774 98 730 q 275 821 215 806 q 453 835 334 835 l 482 835 l 547 835 l 482 772 q 437 461 481 772 l 387 107 q 778 570 679 419 q 876 832 876 722 q 867 888 876 861 q 839 940 858 915 q 898 979 866 958 q 975 1025 930 999 q 997 971 989 999 q 1004 914 1004 944 q 931 681 1004 811 q 697 371 857 551 l 526 179 q 459 105 503 153 q 363 3 416 58 q 357 1 361 2 q 278 -25 315 -12 l 262 -28 z "},"W":{"ha":1276,"x_min":32,"x_max":1379,"o":"m 266 -26 q 322 381 296 181 q 370 778 348 582 l 345 778 q 191 746 243 778 q 139 654 139 715 q 148 579 139 618 q 175 493 156 541 q 117 457 153 479 q 68 428 81 435 q 41 493 50 462 q 32 554 32 525 q 62 674 32 616 q 147 774 93 733 q 254 826 195 810 q 421 842 313 842 l 547 842 l 482 787 q 445 496 465 649 q 400 163 425 343 q 593 444 491 291 q 836 818 694 597 l 925 852 q 896 491 909 671 q 875 136 884 311 q 1175 544 1093 399 q 1257 799 1257 690 q 1245 874 1257 841 q 1206 940 1233 907 l 1321 1022 q 1365 950 1352 985 q 1379 876 1379 916 q 1323 677 1379 795 q 1161 419 1267 559 l 998 205 q 973 172 989 194 q 856 12 897 72 q 808 -9 833 1 q 758 -26 784 -19 l 806 676 l 529 260 l 522 249 q 374 16 428 107 q 322 -11 349 -1 q 266 -26 295 -22 z "},"X":{"ha":765,"x_min":-171,"x_max":856,"o":"m -170 3 q -129 65 -144 43 q -100 106 -114 87 q -86 106 -94 106 q -62 106 -78 106 q 77 143 17 106 q 232 300 137 180 l 335 431 l 292 652 q 260 743 279 719 q 201 766 241 766 q 172 765 193 766 q 164 764 167 764 l 98 757 l 139 807 l 282 839 q 319 845 300 843 q 358 847 338 847 l 376 838 l 432 549 l 589 742 q 675 823 633 795 q 758 850 718 850 q 803 841 781 850 q 856 812 825 833 q 822 763 847 800 q 781 701 798 726 q 736 723 756 716 q 699 730 716 730 q 645 710 672 730 q 576 637 618 690 l 447 478 l 507 172 q 548 76 520 102 q 632 50 576 50 l 647 50 l 736 56 l 711 11 q 588 -10 649 -1 q 467 -26 528 -19 q 433 -11 444 -24 q 414 43 422 2 l 349 359 l 233 215 l 225 205 q -83 -7 54 -7 q -120 -4 -98 -7 q -170 3 -142 -2 z "},"Y":{"ha":907,"x_min":4,"x_max":1064,"o":"m 486 113 q 525 215 513 164 q 536 351 536 267 q 487 658 536 552 q 343 764 437 764 q 214 714 262 764 q 165 581 165 664 q 173 508 165 547 q 199 416 181 469 q 144 383 172 399 q 86 353 116 368 q 61 434 69 397 q 53 503 53 470 q 85 624 53 566 q 184 741 117 682 q 307 821 246 793 q 421 848 367 848 q 585 759 529 848 q 640 497 640 669 q 640 468 640 484 q 637 420 640 452 l 772 685 q 887 847 826 791 q 1010 903 947 903 q 1039 902 1027 903 q 1063 899 1051 901 q 1036 830 1055 877 q 1008 760 1018 783 q 968 770 986 767 q 933 774 949 774 q 869 748 896 774 q 800 636 843 723 l 596 221 q 568 163 586 201 q 418 -103 473 -35 q 292 -204 361 -174 q 113 -235 224 -235 q 55 -234 80 -235 q 4 -232 31 -233 l 57 -119 q 110 -122 83 -121 q 172 -123 136 -123 q 340 -92 283 -123 q 450 40 398 -61 l 486 113 z "},"Z":{"ha":871,"x_min":-81,"x_max":815,"o":"m -81 36 q 248 358 75 186 q 616 728 421 530 q 560 722 587 724 q 509 720 533 720 q 488 720 494 720 q 476 721 481 720 l 421 725 q 332 731 378 727 q 281 734 286 734 q 127 544 228 734 l 126 542 l 102 586 q 146 685 122 633 q 197 796 170 736 l 215 833 q 231 846 220 842 q 261 850 242 850 q 339 842 281 850 q 433 832 398 835 l 530 823 q 576 820 556 821 q 606 818 597 818 q 695 830 659 818 q 774 872 732 843 l 774 821 q 715 767 743 793 q 665 717 688 741 l 489 532 q 343 383 478 521 q 88 119 208 245 q 148 123 123 121 q 189 125 172 125 q 266 119 222 125 q 315 113 309 113 l 438 100 q 508 95 477 96 q 564 93 538 93 q 676 121 637 93 q 714 203 714 149 q 709 240 714 220 q 696 278 705 259 l 668 339 l 777 403 q 806 337 797 368 q 815 277 815 307 q 767 153 815 208 q 755 140 760 145 l 743 125 q 582 -17 629 -13 q 543 -22 557 -20 q 517 -24 528 -24 q 332 -4 486 -24 q 323 -3 327 -3 l 170 18 q 121 23 146 22 q 68 25 96 25 q -64 -13 12 25 q -81 -21 -75 -18 l -81 36 z "},"[":{"ha":463,"x_min":-4,"x_max":578,"o":"m 293 -248 l 265 -283 l 171 -289 q 160 -290 168 -289 q 150 -290 153 -290 q 84 -289 116 -290 q 22 -286 53 -288 l -4 -260 l -4 -245 q 2 -183 -4 -218 q 22 -92 7 -148 l 244 769 q 249 788 246 776 q 319 904 268 867 q 419 910 370 908 q 514 913 468 913 q 553 912 541 913 q 578 911 566 912 l 547 871 q 336 753 370 861 q 334 743 334 747 l 311 668 q 255 468 291 604 q 140 29 218 332 l 115 -64 q 99 -136 104 -105 q 93 -180 93 -167 q 233 -243 94 -233 q 293 -248 271 -245 z "},"\\":{"ha":386,"x_min":86,"x_max":272,"o":"m 205 -25 q 189 147 199 58 q 165 334 179 236 l 144 490 q 119 650 134 557 q 86 848 104 743 l 147 848 q 173 636 158 749 q 174 632 174 633 l 235 204 q 238 181 236 196 q 272 -25 258 53 l 205 -25 z "},"]":{"ha":463,"x_min":-131,"x_max":458,"o":"m 161 875 l 192 911 l 370 911 q 444 903 429 911 q 458 872 458 895 q 418 703 458 859 l 415 693 l 192 -142 l 191 -144 q 164 -232 178 -197 q 142 -258 154 -245 q 119 -280 131 -270 q 7 -284 59 -283 q -90 -285 -44 -285 l -131 -285 l -100 -242 q 50 -217 17 -237 q 106 -117 83 -198 l 126 -41 q 226 330 184 174 q 296 597 268 486 l 319 692 q 335 760 330 733 q 340 800 340 787 q 165 875 340 855 q 161 875 163 875 z "},"^":{"ha":1389,"x_min":279,"x_max":1107,"o":"m 633 991 l 754 991 l 1107 608 l 1044 608 l 693 904 l 340 608 l 279 608 l 633 991 z "},"_":{"ha":694,"x_min":0,"x_max":694,"o":"m 0 -248 l 694 -248 l 694 -328 l 0 -328 l 0 -248 z "},"`":{"ha":694,"x_min":310,"x_max":507,"o":"m 468 688 q 386 802 426 748 q 310 903 347 855 l 363 930 q 376 909 367 924 q 507 694 455 779 l 468 688 z "},"a":{"ha":575,"x_min":5,"x_max":593,"o":"m 298 129 q 236 87 277 115 q 87 -12 136 19 l 47 -18 q 15 19 24 -1 q 5 79 5 40 q 34 269 5 160 q 103 446 63 378 q 191 534 127 488 q 339 612 254 579 l 353 612 q 460 604 411 612 q 554 578 510 595 l 505 518 l 418 199 q 409 162 412 178 q 406 136 406 146 q 411 117 406 123 q 427 111 416 111 q 469 124 439 111 q 593 191 498 138 l 593 142 q 444 50 509 88 q 321 -21 380 11 q 300 -17 308 -21 q 288 -3 293 -13 q 286 16 286 7 q 285 33 285 24 q 288 74 285 51 q 298 129 291 96 m 313 201 q 339 295 321 233 q 403 514 382 444 q 339 528 363 524 q 296 532 314 532 q 238 517 258 532 q 189 446 218 503 q 138 300 160 387 q 117 157 117 212 q 127 118 117 132 q 155 104 137 104 q 272 172 180 104 q 313 201 298 191 z "},"b":{"ha":559,"x_min":-24,"x_max":557,"o":"m -24 -21 q 34 208 7 101 q 81 393 61 314 l 113 525 l 115 536 q 193 794 170 755 q 366 951 224 847 q 419 991 401 977 q 456 998 441 996 q 484 1000 472 1000 q 515 997 497 1000 q 557 989 533 994 q 527 947 543 969 q 494 903 511 925 q 481 905 490 903 q 427 911 441 911 q 325 865 362 911 q 250 668 288 819 l 204 488 q 254 519 222 498 q 437 602 386 602 q 502 571 480 602 q 524 482 524 541 q 479 267 524 376 q 367 97 435 158 q 343 81 359 92 q 135 -12 207 -12 q 92 -7 114 -12 q 41 9 70 -2 l 4 -26 l -24 -21 m 111 117 q 148 85 127 95 q 196 75 168 75 q 275 97 241 75 q 335 161 310 118 q 357 209 346 180 q 378 275 368 238 q 402 378 395 339 q 410 441 410 416 q 394 485 410 467 q 357 503 378 503 q 291 478 338 503 q 186 414 244 454 q 136 215 153 285 q 111 117 118 145 z "},"c":{"ha":514,"x_min":4,"x_max":468,"o":"m 468 154 l 468 113 q 269 16 360 51 q 131 -20 178 -20 q 38 23 73 -20 q 4 139 4 66 q 38 309 4 212 q 117 464 72 406 q 243 568 162 522 q 368 614 323 614 q 428 584 406 614 q 460 490 450 554 q 407 457 433 471 q 354 435 381 444 q 338 511 352 488 q 293 534 323 534 q 235 511 260 534 q 187 436 210 488 q 137 286 157 366 q 118 160 118 205 q 143 93 118 117 q 212 69 168 69 q 453 148 272 69 l 468 154 z "},"d":{"ha":572,"x_min":4,"x_max":794,"o":"m 290 119 q 184 47 238 81 q 75 -16 130 14 l 40 -16 q 13 35 22 12 q 4 81 4 58 q 15 170 4 114 q 49 306 26 225 q 80 393 62 355 q 121 461 98 432 q 196 528 144 490 q 322 608 247 565 q 338 609 330 609 q 358 610 347 610 q 382 609 370 610 q 407 607 394 608 q 427 688 415 635 q 505 864 457 819 q 633 964 581 933 q 728 996 686 996 q 753 994 739 996 q 794 986 768 991 l 786 972 q 745 905 760 928 l 659 905 q 612 897 628 905 q 585 867 596 888 q 557 794 572 841 q 522 667 542 747 l 420 243 q 408 189 412 212 q 404 149 404 165 q 411 117 404 129 q 428 106 417 106 q 477 120 444 106 q 585 175 510 134 l 582 127 q 454 57 522 92 q 311 -16 387 21 q 297 -12 302 -16 q 289 1 292 -8 q 286 31 287 18 q 285 53 285 44 q 290 111 285 71 q 290 119 290 117 m 307 193 q 352 368 334 294 q 383 507 370 442 q 332 524 351 519 q 300 529 312 529 q 229 503 258 529 q 174 412 200 476 q 129 273 146 346 q 113 150 113 200 q 122 109 113 124 q 147 94 132 94 q 206 120 165 94 q 307 193 248 145 z "},"e":{"ha":494,"x_min":7,"x_max":460,"o":"m 460 154 l 460 113 q 278 17 363 51 q 136 -17 193 -17 q 40 21 74 -17 q 7 127 7 58 q 36 303 7 211 q 109 453 65 395 q 235 565 160 520 q 368 610 311 610 q 432 585 407 610 q 457 524 457 561 q 137 224 457 410 l 115 211 q 113 190 114 200 q 113 163 113 179 q 134 90 113 113 q 203 66 156 66 q 303 88 241 66 q 460 154 365 109 m 127 277 q 198 316 157 288 q 207 322 204 320 l 248 350 q 313 414 290 379 q 336 484 336 449 q 324 524 336 510 q 289 538 312 538 q 201 464 248 538 q 127 277 155 391 z "},"f":{"ha":418,"x_min":-245,"x_max":657,"o":"m -245 -433 l -203 -339 l -142 -338 q -114 -337 -132 -337 q -16 -298 -45 -336 q 23 -205 0 -280 q 98 87 45 -130 l 191 460 l 22 464 l 82 504 l 201 509 q 211 552 205 524 q 342 857 257 764 q 466 966 411 933 q 576 999 521 999 q 612 997 593 998 q 656 991 631 996 l 597 907 q 541 915 558 913 q 513 917 524 917 q 445 903 471 917 q 406 860 419 888 q 320 564 387 819 l 304 503 l 465 498 l 412 460 l 292 456 l 195 77 q 122 -160 151 -90 q 53 -282 92 -231 q -11 -355 23 -321 q -75 -411 -44 -389 q -115 -429 -93 -424 q -182 -435 -136 -435 q -212 -434 -197 -435 q -245 -433 -228 -434 z "},"g":{"ha":572,"x_min":-265,"x_max":611,"o":"m 329 155 q -17 -105 114 17 q -147 -282 -147 -227 q -108 -339 -147 -318 q 0 -359 -68 -359 q 131 -342 79 -359 q 201 -290 182 -324 q 237 -202 217 -262 q 277 -60 256 -142 l 329 155 m 418 97 q 390 -17 408 56 q 293 -289 330 -257 q 127 -403 195 -373 q -28 -433 59 -433 q -209 -412 -153 -433 q -265 -343 -265 -390 q -185 -202 -265 -293 q 52 16 -104 -111 q 24 75 33 45 q 16 138 16 104 q 25 211 16 172 q 62 325 34 250 l 64 328 q 131 460 102 431 q 276 570 207 534 q 415 606 345 606 l 428 606 l 514 602 q 564 600 540 600 q 611 599 587 599 l 562 529 q 532 510 543 522 q 514 469 522 498 l 418 97 m 349 232 l 367 300 q 375 331 370 309 q 407 436 393 395 q 448 469 428 452 q 489 505 468 486 l 317 515 q 305 516 313 515 q 294 517 298 517 q 250 507 267 517 q 216 471 233 496 q 191 416 204 450 q 161 324 178 382 q 155 304 159 316 q 125 176 125 204 q 133 135 125 153 q 161 100 142 117 q 252 164 178 111 q 349 232 311 205 z "},"h":{"ha":624,"x_min":-24,"x_max":644,"o":"m -24 -20 l 164 654 q 215 798 193 756 q 273 871 237 840 q 415 971 361 947 q 545 994 468 994 q 576 994 559 994 q 612 993 594 994 q 584 949 601 973 q 545 899 566 925 q 484 909 508 906 q 439 913 460 912 q 254 599 342 913 q 235 532 241 555 l 207 435 q 411 552 328 508 q 532 606 494 595 q 550 596 542 602 q 564 580 557 590 q 555 534 563 562 q 551 524 553 528 l 461 201 q 451 160 454 180 q 447 131 447 140 q 453 106 448 115 q 468 97 459 97 q 526 117 480 97 q 644 174 572 137 l 644 127 q 507 56 579 90 q 353 -9 435 22 q 331 -4 338 -9 q 321 14 323 1 q 326 73 322 45 q 335 122 329 100 l 415 411 q 424 444 420 429 q 427 467 427 458 q 421 481 427 476 q 406 486 416 486 q 330 452 389 486 q 183 358 271 418 l 85 14 q 30 -2 56 7 q -24 -20 3 -10 z "},"i":{"ha":386,"x_min":46,"x_max":383,"o":"m 279 713 q 246 759 260 735 q 222 811 232 783 q 271 850 245 831 q 328 884 298 868 q 353 839 334 874 q 383 785 372 804 q 322 741 347 758 q 279 713 298 724 m 56 498 q 208 585 158 559 q 292 619 258 610 l 310 600 q 292 519 307 574 q 285 493 287 502 l 225 274 q 220 254 223 267 q 197 142 197 171 q 205 112 197 124 q 225 100 214 100 q 345 142 249 100 q 375 154 365 150 l 375 113 q 194 13 247 37 q 104 -12 140 -11 q 92 -5 97 -9 q 83 5 86 0 q 76 50 79 29 q 74 89 74 70 q 77 117 74 100 q 85 153 79 134 l 168 433 q 170 438 169 435 q 178 473 178 465 q 175 486 178 483 q 165 489 172 489 q 120 480 151 489 q 46 454 90 471 l 56 498 z "},"j":{"ha":338,"x_min":-318,"x_max":366,"o":"m 260 713 q 228 758 241 734 q 204 811 214 781 q 254 851 228 833 q 309 884 279 869 q 321 862 313 877 q 366 785 350 810 q 309 744 335 762 q 260 713 282 726 m -318 -429 q -289 -382 -306 -406 q -252 -335 -273 -358 q -186 -339 -221 -336 q -147 -342 -152 -342 q 30 -54 -40 -342 q 57 57 47 17 l 144 396 q 151 426 149 412 q 153 460 153 441 q 148 483 153 477 q 129 489 142 489 q 80 474 117 489 q 24 453 43 460 l 31 503 q 185 580 131 555 q 273 615 239 605 l 293 603 q 289 556 293 584 q 273 486 284 528 l 158 12 q 2 -311 110 -187 q -225 -435 -106 -435 q -268 -433 -244 -435 q -318 -429 -292 -432 z "},"k":{"ha":541,"x_min":-26,"x_max":903,"o":"m 282 380 q 465 -155 395 -43 q 640 -267 534 -267 q 750 -226 707 -267 q 821 -94 793 -185 q 860 -130 841 -111 q 903 -178 879 -149 q 780 -276 852 -242 q 623 -310 709 -310 q 472 -276 535 -310 q 361 -171 408 -242 q 248 126 308 -90 q 233 179 239 161 l 196 312 q 191 309 194 311 q 158 286 170 294 l 87 26 l -26 -21 l 147 635 q 153 659 149 642 q 252 856 188 792 q 396 970 323 928 q 518 1013 469 1013 q 546 1009 529 1013 q 585 999 564 1006 l 517 901 q 471 909 488 907 q 440 911 454 911 q 358 886 389 911 q 302 793 328 861 q 241 600 272 708 q 179 361 210 491 l 435 583 q 460 604 444 590 q 612 686 551 686 q 631 685 621 686 q 651 682 640 684 q 644 624 648 654 q 635 567 640 595 q 623 569 631 568 q 574 575 589 575 q 508 559 541 575 q 415 493 476 544 l 282 380 z "},"l":{"ha":325,"x_min":36,"x_max":593,"o":"m 342 129 q 224 56 285 91 q 98 -12 163 20 l 66 -7 q 44 38 52 16 q 36 82 36 60 q 79 271 36 122 l 82 283 l 197 693 q 201 706 199 698 q 277 864 231 816 q 331 914 296 886 q 406 970 366 942 q 445 990 427 985 q 494 996 462 996 q 530 995 505 996 q 593 991 555 994 l 526 906 q 482 914 498 911 q 454 917 465 917 q 311 719 366 917 q 292 650 299 675 l 175 236 q 165 189 169 215 q 161 147 161 163 q 171 114 161 126 q 199 102 181 102 q 258 129 205 102 l 267 134 l 349 176 l 342 129 z "},"m":{"ha":939,"x_min":9,"x_max":958,"o":"m 9 -21 l 138 418 q 142 441 140 429 q 144 463 144 453 q 139 482 144 475 q 123 489 134 489 q 87 479 115 489 q 80 476 83 477 l 16 456 l 18 494 l 89 532 l 117 547 q 257 612 238 612 q 275 606 267 612 q 283 591 283 600 q 282 584 283 589 q 279 572 281 578 l 248 452 l 319 492 q 497 587 454 566 q 554 607 540 607 q 574 601 567 607 q 581 582 581 594 q 579 563 581 572 q 576 547 578 553 l 549 456 l 646 511 q 789 588 744 567 q 851 610 834 610 q 872 604 866 610 q 878 583 878 599 q 876 559 878 571 q 872 538 875 548 l 787 241 q 771 173 777 205 q 765 129 765 141 q 773 115 765 121 q 793 109 782 109 q 876 139 811 109 l 888 144 l 958 178 l 958 135 l 831 58 q 740 6 770 22 q 686 -18 709 -9 l 659 -11 q 645 25 649 9 q 640 56 640 41 q 652 119 640 73 l 653 121 l 728 390 l 729 394 q 739 432 739 428 l 739 465 q 735 483 739 479 q 720 486 731 486 q 665 464 709 486 q 562 408 620 442 l 532 390 l 424 12 l 307 -21 l 431 416 q 431 420 431 418 q 436 457 436 442 q 432 472 436 468 q 416 476 427 476 q 355 453 406 476 q 258 400 304 430 l 231 382 l 123 12 l 9 -21 z "},"n":{"ha":614,"x_min":5,"x_max":623,"o":"m 5 -8 l 131 432 q 137 461 134 447 q 140 478 140 475 q 135 494 140 488 q 119 500 129 500 q 76 488 104 500 q 63 482 66 484 l 12 463 l 12 498 l 71 534 q 181 591 125 567 q 245 615 236 615 q 261 609 256 615 q 267 593 267 604 q 263 574 267 589 q 261 566 262 568 l 232 452 l 321 504 q 473 591 431 569 q 528 612 515 612 q 550 603 543 612 q 558 578 558 594 q 548 529 558 564 q 542 507 544 515 l 485 307 q 460 207 469 254 q 452 140 452 161 q 458 111 452 123 q 473 100 465 100 q 515 118 483 100 q 547 136 534 130 l 623 176 l 621 136 q 493 54 556 93 q 370 -22 431 14 q 347 -13 356 -19 q 330 3 337 -7 q 328 20 330 9 q 325 47 325 41 q 326 79 325 68 q 329 97 327 89 l 414 415 q 419 435 416 422 q 425 463 425 456 q 420 484 425 477 q 406 490 416 490 q 344 464 395 490 q 256 410 294 438 l 212 376 l 114 25 l 5 -8 z "},"o":{"ha":536,"x_min":17,"x_max":517,"o":"m 323 539 q 185 432 246 539 q 123 183 123 325 q 147 91 123 124 q 212 58 170 58 q 284 83 250 58 q 343 150 319 107 q 393 280 374 208 q 412 414 412 353 q 389 506 412 473 q 323 539 366 539 m 17 154 q 51 338 17 246 q 140 489 85 431 q 263 578 191 542 q 390 614 336 614 q 484 573 452 614 q 517 457 517 533 q 487 279 517 368 q 407 126 458 190 q 280 25 359 66 q 146 -17 202 -17 q 50 27 83 -17 q 17 154 17 72 z "},"p":{"ha":579,"x_min":-158,"x_max":549,"o":"m 237 408 l 174 146 q 173 142 174 144 q 172 138 172 139 q 200 96 172 113 q 268 79 229 79 q 334 106 307 79 q 387 196 361 133 q 428 324 414 257 q 443 443 443 391 q 431 486 443 471 q 397 501 419 501 q 332 477 374 501 q 237 408 290 452 m 142 14 q 89 -198 110 -113 q 52 -357 68 -284 q 118 -368 84 -361 q 183 -382 151 -374 l 153 -414 q 121 -413 138 -413 q 69 -412 104 -412 q -146 -418 -1 -412 l -158 -418 l -113 -364 q -85 -361 -99 -363 q -50 -357 -71 -360 q 3 -152 -21 -245 q 36 -18 26 -58 l 114 296 l 119 318 q 149 457 149 437 q 142 481 149 473 q 123 490 135 490 q 75 475 115 490 l 69 472 l 32 457 l 32 497 l 144 559 l 250 612 q 272 604 265 610 q 279 587 279 598 q 277 576 279 584 q 277 571 277 572 l 256 484 q 328 531 282 500 q 484 612 450 612 q 530 575 511 612 q 549 484 549 538 q 525 331 549 419 q 463 170 501 242 q 374 83 420 123 q 277 9 328 43 q 238 2 257 5 q 201 0 219 0 q 176 3 189 0 q 142 14 163 6 z "},"q":{"ha":570,"x_min":20,"x_max":590,"o":"m 351 210 q 394 380 377 311 q 425 511 411 450 q 384 520 404 517 q 334 524 364 524 q 241 511 264 524 q 199 461 218 498 q 186 430 193 451 q 170 379 178 410 q 138 255 146 299 q 129 179 129 212 q 140 119 129 140 q 174 98 152 98 q 220 116 189 98 q 302 172 251 134 l 351 210 m 336 139 q 220 60 281 98 q 90 -14 159 22 l 65 -9 l 46 1 q 29 34 38 6 q 20 89 20 62 q 50 304 20 199 q 127 468 80 410 q 175 513 144 487 q 244 564 206 539 q 318 601 286 591 q 399 610 351 610 q 424 609 403 610 q 460 607 446 608 l 561 704 l 570 701 l 545 603 l 590 586 q 563 557 577 573 q 524 514 548 541 q 507 446 519 496 q 408 35 452 220 l 349 -221 q 334 -287 341 -251 q 319 -362 327 -322 q 375 -368 343 -364 q 452 -379 408 -372 l 418 -416 q 344 -415 378 -416 q 279 -415 309 -415 q 135 -417 243 -415 q 69 -418 92 -418 l 115 -372 q 218 -363 183 -366 q 261 -174 240 -263 q 301 -4 281 -85 l 336 139 z "},"r":{"ha":437,"x_min":21,"x_max":497,"o":"m 254 460 q 158 103 229 369 l 135 17 q 70 -4 97 4 q 21 -18 43 -12 q 67 154 39 50 q 104 289 96 258 l 126 372 q 142 433 138 414 q 146 465 146 452 q 142 487 146 481 q 126 493 138 493 q 93 487 113 493 q 24 460 73 481 l 21 501 q 128 559 71 532 q 253 612 185 587 l 275 603 q 275 599 275 602 q 278 578 278 583 l 278 567 q 278 560 278 562 q 277 556 277 558 l 264 515 l 340 574 q 390 603 366 593 q 441 612 415 612 q 467 610 454 612 q 497 602 480 608 q 476 529 486 559 q 456 469 467 498 q 396 491 419 485 q 353 497 373 497 q 310 488 334 497 q 254 460 286 479 z "},"s":{"ha":440,"x_min":-53,"x_max":461,"o":"m -53 114 q -6 148 -32 132 q 56 180 20 164 q 87 84 60 119 q 157 50 113 50 q 237 85 201 50 q 272 163 272 119 q 260 211 272 189 q 227 248 249 233 l 183 275 q 130 328 149 298 q 111 390 111 357 q 133 468 111 427 q 196 546 155 509 q 275 601 235 582 q 351 619 315 619 q 408 607 381 619 q 461 570 435 595 q 424 528 450 557 q 382 479 398 498 q 329 526 353 511 q 279 541 304 541 q 222 515 246 541 q 199 453 199 490 q 210 411 199 431 q 244 376 222 391 l 298 342 q 354 291 335 318 q 372 232 372 263 q 280 64 372 146 q 89 -17 187 -17 q -2 16 34 -17 q -53 114 -37 49 z "},"t":{"ha":453,"x_min":12,"x_max":469,"o":"m 395 122 q 270 51 334 85 q 136 -18 206 16 l 104 -11 q 71 47 81 22 q 61 97 61 72 q 73 159 61 118 q 75 169 74 165 l 147 460 l 94 460 q 65 461 85 460 q 13 464 44 462 l 62 511 q 99 512 78 512 q 161 513 119 513 l 214 709 q 265 727 237 717 q 326 751 293 738 q 290 614 311 696 q 283 585 286 593 l 265 513 l 349 513 q 419 511 365 513 q 469 510 452 510 l 410 461 q 381 460 399 460 q 326 458 339 458 q 287 459 305 458 q 252 460 269 459 l 207 278 l 207 276 q 187 178 187 203 q 203 123 187 144 q 241 102 219 102 q 300 121 258 102 q 316 129 311 127 l 400 168 l 395 122 z "},"u":{"ha":621,"x_min":29,"x_max":647,"o":"m 358 131 q 195 28 245 58 q 110 -18 145 -1 l 79 -9 q 56 38 64 17 q 49 75 49 58 q 66 154 49 90 q 81 205 75 186 l 132 399 q 140 436 137 418 q 143 464 143 454 q 139 482 143 477 q 125 486 136 486 q 33 450 103 486 l 31 449 l 29 490 q 164 567 102 534 q 264 612 227 599 l 277 604 q 275 571 277 587 q 269 543 273 555 l 186 230 q 177 185 180 208 q 174 147 174 163 q 179 111 174 124 q 196 98 185 98 q 330 169 219 98 q 374 196 358 186 l 383 235 q 427 407 414 361 l 468 559 l 587 614 q 545 474 569 552 q 519 387 522 396 l 500 310 q 471 189 478 223 q 464 139 464 155 q 470 110 464 121 q 485 98 476 98 q 540 123 496 98 q 559 135 553 131 l 647 180 l 640 134 q 493 42 557 79 q 375 -18 428 5 l 354 1 q 353 23 353 12 q 353 50 353 34 q 354 85 353 64 q 358 131 355 106 z "},"v":{"ha":646,"x_min":9,"x_max":661,"o":"m 281 491 q 259 493 271 492 q 232 493 248 493 q 215 494 227 494 l 176 494 q 114 478 135 494 q 66 401 94 463 l 41 343 l 9 376 l 31 437 q 90 568 63 531 q 155 604 117 604 q 225 596 173 604 q 311 587 277 587 q 346 591 329 587 q 378 602 363 595 l 400 611 q 403 597 402 604 q 404 587 404 591 q 376 539 404 572 l 375 538 l 346 503 q 245 337 283 431 q 207 171 207 243 q 225 104 207 129 q 272 79 243 79 q 339 104 302 79 q 415 178 376 130 q 513 345 478 255 q 549 518 549 435 q 545 571 549 544 q 528 644 541 598 q 582 665 553 655 q 642 684 610 675 q 656 635 652 657 q 661 589 661 612 q 609 379 661 500 q 473 163 556 258 q 323 31 404 82 q 187 -20 241 -20 q 116 14 141 -20 q 92 111 92 47 q 227 418 92 237 q 262 465 252 450 l 281 491 z "},"w":{"ha":954,"x_min":3,"x_max":987,"o":"m 292 488 q 240 495 261 493 q 201 497 220 497 q 117 474 146 497 q 64 395 87 452 l 35 322 l 3 363 q 27 427 12 385 q 150 600 92 600 q 238 592 179 600 q 328 583 298 583 q 374 589 354 583 q 414 608 395 595 q 416 606 415 607 q 424 590 424 596 q 404 554 424 578 q 395 544 398 547 l 354 493 q 234 311 276 397 q 192 163 192 224 q 208 107 192 129 q 250 86 224 86 q 416 218 329 86 q 570 575 503 349 l 685 614 q 608 393 647 517 q 596 356 600 366 l 576 294 q 552 209 560 245 q 545 144 545 172 q 560 92 545 111 q 603 72 576 72 q 669 102 631 72 q 747 186 708 133 q 839 357 803 260 q 875 526 875 454 q 871 576 875 547 q 859 654 868 604 l 972 691 q 984 644 980 666 q 987 603 987 623 q 941 399 987 509 q 812 191 895 289 q 655 39 733 94 q 521 -16 576 -16 q 454 7 475 -16 q 433 81 433 30 q 440 164 433 94 l 440 168 q 286 24 343 64 q 179 -16 229 -16 q 113 13 138 -16 q 89 90 89 41 q 141 280 89 178 q 292 488 193 382 z "},"x":{"ha":553,"x_min":-49,"x_max":694,"o":"m 216 314 q 190 471 208 429 q 132 513 171 513 q 85 498 114 513 q 5 449 57 484 l 5 489 q 124 584 83 560 q 200 608 165 608 q 294 441 270 608 q 302 395 299 410 q 433 522 370 452 q 443 533 440 530 l 472 564 q 482 574 475 568 q 567 614 519 614 q 572 613 569 614 q 582 611 574 613 l 615 598 q 610 572 614 591 q 591 473 597 511 q 554 484 571 481 q 522 488 538 488 q 329 351 463 488 l 311 334 l 335 184 q 418 -148 376 -75 q 538 -220 460 -220 q 606 -195 574 -220 q 667 -118 638 -170 q 679 -157 673 -136 q 694 -218 684 -177 q 616 -253 656 -242 q 530 -264 577 -264 q 334 -174 401 -264 q 239 140 267 -84 l 225 249 l 183 207 q 86 79 122 146 q 28 -85 50 12 q -9 -41 9 -65 q -49 18 -28 -16 q 91 201 -30 103 q 153 254 132 235 l 216 314 z "},"y":{"ha":591,"x_min":-149,"x_max":579,"o":"m 415 -10 q 406 -50 412 -24 q 306 -273 371 -197 q 166 -400 229 -365 q 25 -435 104 -435 q -125 -418 -14 -435 q -149 -414 -141 -415 l -96 -321 q 0 -334 -38 -330 q 65 -338 37 -338 q 175 -322 132 -338 q 237 -277 219 -307 q 298 -65 252 -254 q 318 12 311 -16 l 351 147 q 208 51 269 87 q 92 -8 147 15 l 61 14 q 47 54 52 37 q 43 86 43 71 q 58 177 43 115 q 64 199 62 193 l 121 428 q 123 441 122 431 q 123 467 123 452 q 118 486 123 479 q 104 493 113 493 q 93 490 102 493 q 70 482 83 487 l 14 463 l 11 507 q 150 578 87 549 q 244 616 212 608 l 262 603 q 257 576 260 594 q 252 547 254 557 l 175 243 q 166 198 169 220 q 163 158 163 176 q 171 121 163 136 q 191 107 178 107 q 274 153 207 107 l 276 154 l 371 221 l 458 566 l 579 614 q 519 391 548 500 q 464 179 490 283 l 415 -10 z "},"z":{"ha":602,"x_min":-107,"x_max":576,"o":"m -107 69 l -107 94 l 39 192 q 198 311 108 237 q 401 489 288 385 q 370 492 387 490 q 321 494 353 493 l 278 497 q 259 498 269 498 q 232 498 250 498 q 145 418 193 498 q 122 380 131 395 l 96 414 l 144 521 q 177 581 163 563 q 205 599 191 599 q 244 598 224 599 q 286 596 264 597 l 418 589 q 439 588 428 588 q 473 587 451 587 q 527 595 505 587 q 576 621 549 603 l 576 585 l 389 414 q 256 298 328 357 q 90 167 184 238 q 196 133 134 167 q 211 125 206 127 l 250 104 q 315 78 281 87 q 374 68 349 68 q 426 92 406 68 q 447 150 447 115 q 443 181 447 166 q 429 211 439 195 l 529 265 q 543 225 539 242 q 547 192 547 208 q 529 134 547 163 q 471 71 511 106 q 374 -1 412 20 q 304 -22 335 -22 q 257 -15 283 -22 q 183 14 231 -7 l 131 36 q 106 47 123 39 q -16 85 20 85 q -47 82 -29 85 q -107 69 -66 79 z "},"{":{"ha":694,"x_min":119,"x_max":574,"o":"m 574 1028 l 574 994 q 442 956 477 992 q 407 814 407 920 l 407 717 q 366 508 407 564 q 212 431 324 452 q 366 354 324 410 q 407 144 407 298 l 407 47 q 442 -94 407 -58 q 574 -131 477 -130 l 574 -165 l 567 -165 q 365 -116 420 -165 q 310 69 310 -66 l 310 214 q 270 361 310 321 q 119 411 230 402 l 119 452 q 271 502 231 462 q 310 648 310 542 l 310 793 q 365 978 310 928 q 567 1028 420 1028 l 574 1028 z "},"|":{"ha":694,"x_min":304,"x_max":390,"o":"m 304 1061 l 390 1061 l 390 -328 l 304 -328 l 304 1061 z "},"}":{"ha":694,"x_min":121,"x_max":575,"o":"m 121 1028 l 127 1028 q 329 978 274 1028 q 385 793 385 928 l 385 648 q 424 502 385 542 q 575 452 463 462 l 575 411 q 425 361 465 402 q 385 214 385 321 l 385 69 q 329 -115 385 -65 q 127 -165 274 -165 l 121 -165 l 121 -131 q 253 -94 218 -130 q 288 47 288 -58 l 288 144 q 329 354 288 298 q 482 431 370 410 q 329 508 370 452 q 288 717 288 564 l 288 814 q 252 956 288 920 q 121 994 217 992 l 121 1028 z "},"~":{"ha":1157,"x_min":121,"x_max":1038,"o":"m 1038 514 l 1038 425 q 904 352 969 376 q 775 328 838 328 q 714 334 746 328 q 646 351 682 340 q 587 372 625 358 q 382 421 450 421 q 264 396 326 421 q 121 313 203 370 l 121 403 q 258 477 192 452 q 383 501 323 501 q 462 493 421 501 q 581 457 503 484 q 604 448 589 454 q 777 408 715 408 q 896 433 834 408 q 1038 514 958 458 z "},"Ä":{"ha":861,"x_min":-110,"x_max":859,"o":"m 232 164 q 98 22 158 64 q -26 -20 39 -20 q -63 -18 -43 -20 q -110 -12 -83 -16 q -84 41 -97 14 q -60 96 -72 68 q -33 94 -54 96 q 1 92 -11 92 q 89 109 47 92 q 164 160 132 127 q 287 312 203 200 q 467 562 371 423 l 533 660 q 562 701 545 676 q 581 730 578 726 l 471 746 q 420 751 439 749 q 387 753 401 753 q 274 718 313 753 q 235 615 235 682 q 242 557 235 590 q 265 479 250 524 q 220 448 245 465 q 157 410 195 431 q 138 471 144 443 q 132 522 132 499 q 161 639 132 581 q 249 753 191 697 q 353 827 300 804 q 468 850 406 850 q 504 848 481 850 q 555 842 526 846 l 598 836 q 623 833 612 834 q 637 832 633 832 q 681 843 662 832 q 726 885 701 854 l 750 871 q 728 725 739 801 q 710 567 718 649 l 688 355 q 674 209 677 257 q 671 129 671 161 q 685 79 671 94 q 737 65 700 65 q 752 66 739 65 q 776 68 765 67 l 859 74 l 827 24 l 785 16 q 682 -5 700 -2 l 587 -25 l 555 -7 q 549 17 551 5 q 547 41 547 28 q 549 88 547 58 q 555 151 551 117 l 571 285 l 472 285 q 417 281 469 285 q 314 273 365 277 l 232 164 m 363 342 q 399 338 380 340 q 419 336 418 336 l 476 336 l 578 336 q 586 415 581 373 q 597 513 591 457 l 623 708 q 553 608 600 675 q 363 342 432 430 m 589 968 q 565 1002 577 983 q 538 1046 552 1021 l 619 1105 q 646 1066 633 1085 q 669 1029 659 1048 q 630 995 650 1010 q 589 968 610 980 m 774 975 q 755 1002 765 987 q 726 1046 745 1017 q 756 1071 740 1058 q 804 1108 772 1084 q 830 1076 817 1093 q 857 1036 842 1059 q 821 1002 841 1017 q 774 975 800 987 z "},"Å":{"ha":861,"x_min":-110,"x_max":859,"o":"m 528 985 q 576 1088 528 1047 q 686 1129 624 1129 q 747 1105 725 1129 q 768 1039 768 1082 q 723 928 768 970 q 612 885 677 885 q 550 910 572 885 q 528 985 528 936 m 654 1084 q 605 1061 624 1084 q 586 999 586 1038 q 601 946 586 965 q 642 928 615 928 q 692 950 674 928 q 710 1015 710 973 q 696 1067 710 1050 q 654 1084 682 1084 m 232 164 q 98 22 158 64 q -26 -20 39 -20 q -63 -18 -43 -20 q -110 -12 -83 -16 q -84 41 -97 14 q -60 96 -72 68 q -33 94 -54 96 q 1 92 -11 92 q 89 109 47 92 q 164 160 132 127 q 287 312 203 200 q 467 562 371 423 l 533 660 q 562 701 545 676 q 581 730 578 726 l 471 746 q 420 751 439 749 q 387 753 401 753 q 274 718 313 753 q 235 615 235 682 q 242 557 235 590 q 265 479 250 524 q 220 448 245 465 q 157 410 195 431 q 138 471 144 443 q 132 522 132 499 q 161 639 132 581 q 249 753 191 697 q 353 827 300 804 q 468 850 406 850 q 504 848 481 850 q 555 842 526 846 l 598 836 q 623 833 612 834 q 637 832 633 832 q 681 843 662 832 q 726 885 701 854 l 750 871 q 728 725 739 801 q 710 567 718 649 l 688 355 q 674 209 677 257 q 671 129 671 161 q 685 79 671 94 q 737 65 700 65 q 752 66 739 65 q 776 68 765 67 l 859 74 l 827 24 l 785 16 q 682 -5 700 -2 l 587 -25 l 555 -7 q 549 17 551 5 q 547 41 547 28 q 549 88 547 58 q 555 151 551 117 l 571 285 l 472 285 q 417 281 469 285 q 314 273 365 277 l 232 164 m 363 342 q 399 338 380 340 q 419 336 418 336 l 476 336 l 578 336 q 586 415 581 373 q 597 513 591 457 l 623 708 q 553 608 600 675 q 363 342 432 430 z "},"Ç":{"ha":768,"x_min":25,"x_max":782,"o":"m 661 135 l 647 89 q 453 1 544 31 q 282 -28 361 -28 q 92 40 159 -28 q 25 233 25 109 q 70 468 25 351 q 192 667 115 585 q 382 802 270 751 q 599 852 494 852 q 701 836 656 852 q 782 782 745 819 q 744 696 762 738 q 710 612 726 654 l 670 599 q 670 617 670 608 q 671 642 671 627 q 632 753 671 714 q 524 793 594 793 q 398 756 462 793 q 283 657 334 720 q 193 479 227 586 q 158 269 158 373 q 212 94 158 157 q 363 32 266 32 q 490 57 416 32 q 661 135 563 82 m 294 16 l 334 7 q 284 -34 307 -14 q 244 -72 262 -54 l 272 -102 q 281 -117 278 -107 q 285 -138 285 -127 q 131 -265 285 -186 l 122 -269 l 87 -254 q 132 -226 104 -243 q 193 -167 193 -186 q 189 -149 193 -159 q 178 -130 184 -139 l 151 -100 q 222 -39 186 -68 q 294 16 258 -10 z "},"É":{"ha":958,"x_min":35,"x_max":922,"o":"m 65 0 l 113 49 q 231 110 191 66 q 298 267 270 153 l 329 393 l 283 395 q 304 414 290 401 q 346 453 332 441 l 428 778 l 410 778 q 216 734 282 778 q 150 607 150 690 q 156 555 150 582 q 174 496 161 528 q 108 455 134 471 q 60 427 82 439 q 41 488 47 461 q 35 539 35 515 q 156 745 35 661 q 464 829 278 829 l 468 829 l 559 856 l 560 829 q 665 830 606 830 q 860 831 724 831 q 894 811 879 824 q 922 775 909 798 q 871 727 897 749 q 818 685 846 705 l 787 737 q 760 772 772 764 q 707 781 747 781 l 546 781 l 461 457 q 506 453 482 454 q 575 452 530 452 l 724 452 l 672 408 l 507 397 q 498 397 504 397 q 444 390 465 393 l 429 335 l 428 330 q 253 68 385 172 l 699 68 q 772 80 757 68 q 787 127 787 93 q 785 148 787 136 q 779 179 783 161 l 895 220 q 896 207 895 214 q 896 191 896 200 q 856 97 896 141 q 707 -14 816 52 q 696 -15 701 -15 q 682 -16 692 -16 l 656 -16 l 65 0 m 615 932 q 691 1051 652 993 q 772 1165 730 1109 l 835 1147 q 738 1032 782 1085 q 651 929 693 979 l 615 932 z "},"Ñ":{"ha":1007,"x_min":-9,"x_max":1190,"o":"m -9 -4 l 53 101 q 98 96 81 98 q 127 94 115 94 q 248 139 205 94 q 342 363 290 184 l 364 441 q 390 547 372 467 q 429 729 408 627 q 384 732 402 731 q 354 733 365 733 q 199 698 253 733 q 146 596 146 663 q 182 484 146 567 q 195 454 191 465 l 93 379 q 65 451 74 419 q 56 513 56 484 q 107 661 56 578 q 229 787 159 744 q 310 823 267 810 q 399 835 353 835 q 433 834 415 835 q 469 831 450 833 l 509 868 l 600 501 q 657 305 623 410 q 733 98 692 200 l 829 507 q 842 564 834 527 q 935 838 892 779 q 1046 958 1001 927 q 1149 989 1092 989 q 1171 988 1162 989 q 1190 987 1181 988 l 1137 885 q 1109 886 1122 886 q 1083 886 1096 886 q 980 822 1019 886 q 889 536 941 758 l 864 429 q 820 237 842 336 q 775 28 798 138 q 877 -116 816 -64 q 1004 -168 937 -168 q 1078 -143 1042 -168 q 1154 -61 1113 -118 l 1161 -199 q 1092 -218 1126 -212 q 1018 -224 1057 -224 q 683 -42 804 -224 q 464 644 562 140 q 306 137 393 283 q 83 -9 219 -9 q 10 -5 63 -9 q -9 -4 -3 -5 m 593 1006 l 582 1025 l 636 1071 q 662 1086 648 1081 q 688 1092 675 1092 q 722 1088 703 1092 q 760 1078 741 1084 l 803 1064 q 826 1058 814 1060 q 850 1055 838 1055 q 902 1067 877 1055 q 957 1105 926 1078 l 969 1086 l 930 1044 q 883 1004 904 1016 q 839 993 863 993 q 813 995 827 993 q 785 1003 800 998 l 740 1019 q 703 1030 722 1026 q 667 1034 684 1034 q 633 1027 650 1034 q 593 1006 616 1020 z "},"Ö":{"ha":846,"x_min":26,"x_max":822,"o":"m 26 271 q 77 512 26 396 q 216 708 127 627 q 382 811 288 773 q 566 848 476 848 q 755 774 688 848 q 822 564 822 701 q 783 349 822 455 q 675 165 743 242 q 495 29 600 79 q 286 -21 390 -21 q 96 57 165 -21 q 26 271 26 135 m 484 785 q 250 649 346 785 q 154 309 154 513 q 211 116 154 186 q 366 45 268 45 q 598 180 503 45 q 694 517 694 315 q 637 713 694 641 q 484 785 581 785 m 444 968 q 420 1002 433 983 q 393 1046 408 1021 l 475 1105 q 502 1066 489 1085 q 525 1029 514 1048 q 486 995 506 1010 q 444 968 466 980 m 629 975 q 611 1002 621 987 q 582 1046 601 1017 q 611 1071 595 1058 q 660 1108 627 1084 q 685 1076 673 1093 q 713 1036 698 1059 q 676 1002 696 1017 q 629 975 656 987 z "},"Ü":{"ha":1025,"x_min":43,"x_max":978,"o":"m 668 75 l 607 50 l 597 46 q 353 -24 427 -24 q 232 26 278 -24 q 186 155 186 75 q 241 386 186 250 q 419 725 297 522 q 358 745 387 739 q 300 751 329 751 q 182 716 225 751 q 139 621 139 681 q 150 552 139 587 q 186 468 160 517 q 138 429 163 449 q 83 389 112 410 q 53 459 62 426 q 43 524 43 492 q 74 643 43 583 q 165 760 105 703 q 258 823 211 803 q 363 843 305 843 q 444 833 401 843 q 490 823 486 823 q 516 829 501 824 q 550 844 530 834 l 559 822 q 376 492 446 667 q 307 197 307 317 q 343 95 307 132 q 441 57 378 57 q 564 83 494 57 q 681 147 633 109 q 744 400 711 275 q 810 650 777 526 l 831 728 q 834 741 833 735 q 835 751 835 747 q 833 768 835 760 q 829 775 831 775 l 747 782 l 781 825 q 850 836 813 829 q 942 854 886 842 l 978 846 l 957 770 q 888 513 899 560 l 868 432 q 807 179 821 243 q 793 92 793 115 q 806 55 793 65 q 854 45 820 45 q 954 56 878 45 l 962 57 l 937 12 q 818 -9 877 0 q 700 -24 758 -18 l 672 -5 q 668 20 669 7 q 667 47 667 33 q 667 64 667 58 q 668 75 667 70 m 607 968 q 583 1002 595 983 q 556 1046 570 1021 l 637 1105 q 664 1066 652 1085 q 688 1029 677 1048 q 649 995 669 1010 q 607 968 629 980 m 792 975 q 773 1002 783 987 q 745 1046 764 1017 q 774 1071 758 1058 q 823 1108 790 1084 q 848 1076 836 1093 q 876 1036 861 1059 q 839 1002 859 1017 q 792 975 819 987 z "},"á":{"ha":575,"x_min":5,"x_max":593,"o":"m 298 129 q 236 87 277 115 q 87 -12 136 19 l 47 -18 q 15 19 24 -1 q 5 79 5 40 q 34 269 5 160 q 103 446 63 378 q 191 534 127 488 q 339 612 254 579 l 353 612 q 460 604 411 612 q 554 578 510 595 l 505 518 l 418 199 q 409 162 412 178 q 406 136 406 146 q 411 117 406 123 q 427 111 416 111 q 469 124 439 111 q 593 191 498 138 l 593 142 q 444 50 509 88 q 321 -21 380 11 q 300 -17 308 -21 q 288 -3 293 -13 q 286 16 286 7 q 285 33 285 24 q 288 74 285 51 q 298 129 291 96 m 313 201 q 339 295 321 233 q 403 514 382 444 q 339 528 363 524 q 296 532 314 532 q 238 517 258 532 q 189 446 218 503 q 138 300 160 387 q 117 157 117 212 q 127 118 117 132 q 155 104 137 104 q 272 172 180 104 q 313 201 298 191 m 350 694 q 426 813 387 755 q 507 928 465 871 l 570 909 q 472 795 517 848 q 386 692 428 742 l 350 694 z "},"à":{"ha":575,"x_min":5,"x_max":593,"o":"m 298 129 q 236 87 277 115 q 87 -12 136 19 l 47 -18 q 15 19 24 -1 q 5 79 5 40 q 34 269 5 160 q 103 446 63 378 q 191 534 127 488 q 339 612 254 579 l 353 612 q 460 604 411 612 q 554 578 510 595 l 505 518 l 418 199 q 409 162 412 178 q 406 136 406 146 q 411 117 406 123 q 427 111 416 111 q 469 124 439 111 q 593 191 498 138 l 593 142 q 444 50 509 88 q 321 -21 380 11 q 300 -17 308 -21 q 288 -3 293 -13 q 286 16 286 7 q 285 33 285 24 q 288 74 285 51 q 298 129 291 96 m 313 201 q 339 295 321 233 q 403 514 382 444 q 339 528 363 524 q 296 532 314 532 q 238 517 258 532 q 189 446 218 503 q 138 300 160 387 q 117 157 117 212 q 127 118 117 132 q 155 104 137 104 q 272 172 180 104 q 313 201 298 191 m 436 688 q 354 802 394 748 q 278 903 315 855 l 331 930 q 344 909 335 924 q 475 694 423 779 l 436 688 z "},"â":{"ha":575,"x_min":5,"x_max":593,"o":"m 298 129 q 236 87 277 115 q 87 -12 136 19 l 47 -18 q 15 19 24 -1 q 5 79 5 40 q 34 269 5 160 q 103 446 63 378 q 191 534 127 488 q 339 612 254 579 l 353 612 q 460 604 411 612 q 554 578 510 595 l 505 518 l 418 199 q 409 162 412 178 q 406 136 406 146 q 411 117 406 123 q 427 111 416 111 q 469 124 439 111 q 593 191 498 138 l 593 142 q 444 50 509 88 q 321 -21 380 11 q 300 -17 308 -21 q 288 -3 293 -13 q 286 16 286 7 q 285 33 285 24 q 288 74 285 51 q 298 129 291 96 m 313 201 q 339 295 321 233 q 403 514 382 444 q 339 528 363 524 q 296 532 314 532 q 238 517 258 532 q 189 446 218 503 q 138 300 160 387 q 117 157 117 212 q 127 118 117 132 q 155 104 137 104 q 272 172 180 104 q 313 201 298 191 m 257 686 l 246 720 q 386 880 296 777 l 424 924 l 469 928 l 550 718 l 501 684 l 431 835 q 339 759 381 795 q 257 686 296 723 z "},"ä":{"ha":575,"x_min":5,"x_max":593,"o":"m 298 129 q 236 87 277 115 q 87 -12 136 19 l 47 -18 q 15 19 24 -1 q 5 79 5 40 q 34 269 5 160 q 103 446 63 378 q 191 534 127 488 q 339 612 254 579 l 353 612 q 460 604 411 612 q 554 578 510 595 l 505 518 l 418 199 q 409 162 412 178 q 406 136 406 146 q 411 117 406 123 q 427 111 416 111 q 469 124 439 111 q 593 191 498 138 l 593 142 q 444 50 509 88 q 321 -21 380 11 q 300 -17 308 -21 q 288 -3 293 -13 q 286 16 286 7 q 285 33 285 24 q 288 74 285 51 q 298 129 291 96 m 313 201 q 339 295 321 233 q 403 514 382 444 q 339 528 363 524 q 296 532 314 532 q 238 517 258 532 q 189 446 218 503 q 138 300 160 387 q 117 157 117 212 q 127 118 117 132 q 155 104 137 104 q 272 172 180 104 q 313 201 298 191 m 298 730 q 274 764 287 745 q 248 808 262 783 l 329 868 q 356 829 343 848 q 379 791 368 810 q 340 758 360 772 q 298 730 320 743 m 484 737 q 465 765 475 750 q 436 808 455 779 q 466 834 450 821 q 514 871 481 847 q 539 839 527 856 q 567 799 552 822 q 530 765 551 780 q 484 737 510 749 z "},"ã":{"ha":575,"x_min":5,"x_max":614,"o":"m 298 129 q 236 87 277 115 q 87 -12 136 19 l 47 -18 q 15 19 24 -1 q 5 79 5 40 q 34 269 5 160 q 103 446 63 378 q 191 534 127 488 q 339 612 254 579 l 353 612 q 460 604 411 612 q 554 578 510 595 l 505 518 l 418 199 q 409 162 412 178 q 406 136 406 146 q 411 117 406 123 q 427 111 416 111 q 469 124 439 111 q 593 191 498 138 l 593 142 q 444 50 509 88 q 321 -21 380 11 q 300 -17 308 -21 q 288 -3 293 -13 q 286 16 286 7 q 285 33 285 24 q 288 74 285 51 q 298 129 291 96 m 313 201 q 339 295 321 233 q 403 514 382 444 q 339 528 363 524 q 296 532 314 532 q 238 517 258 532 q 189 446 218 503 q 138 300 160 387 q 117 157 117 212 q 127 118 117 132 q 155 104 137 104 q 272 172 180 104 q 313 201 298 191 m 237 768 l 227 787 l 281 833 q 306 849 293 844 q 332 854 319 854 q 366 851 347 854 q 404 840 385 847 l 448 827 q 471 820 458 823 q 494 818 483 818 q 546 829 522 818 q 602 868 571 841 l 614 848 l 575 807 q 528 767 549 779 q 484 755 507 755 q 458 758 471 755 q 430 766 444 760 l 385 782 q 348 792 367 789 q 311 796 328 796 q 278 789 295 796 q 237 768 260 783 z "},"å":{"ha":575,"x_min":5,"x_max":593,"o":"m 298 129 q 236 87 277 115 q 87 -12 136 19 l 47 -18 q 15 19 24 -1 q 5 79 5 40 q 34 269 5 160 q 103 446 63 378 q 191 534 127 488 q 339 612 254 579 l 353 612 q 460 604 411 612 q 554 578 510 595 l 505 518 l 418 199 q 409 162 412 178 q 406 136 406 146 q 411 117 406 123 q 427 111 416 111 q 469 124 439 111 q 593 191 498 138 l 593 142 q 444 50 509 88 q 321 -21 380 11 q 300 -17 308 -21 q 288 -3 293 -13 q 286 16 286 7 q 285 33 285 24 q 288 74 285 51 q 298 129 291 96 m 313 201 q 339 295 321 233 q 403 514 382 444 q 339 528 363 524 q 296 532 314 532 q 238 517 258 532 q 189 446 218 503 q 138 300 160 387 q 117 157 117 212 q 127 118 117 132 q 155 104 137 104 q 272 172 180 104 q 313 201 298 191 m 400 854 q 351 831 370 854 q 332 768 332 807 q 346 716 332 734 q 387 697 361 697 q 438 720 420 697 q 456 785 456 743 q 442 837 456 819 q 400 854 428 854 m 273 754 q 321 857 273 817 q 432 897 370 897 q 492 874 471 897 q 514 808 514 850 q 468 697 514 740 q 357 654 422 654 q 295 680 316 654 q 273 754 273 705 z "},"ç":{"ha":514,"x_min":-16,"x_max":468,"o":"m 468 154 l 468 113 q 269 16 360 51 q 131 -20 178 -20 q 38 23 73 -20 q 4 139 4 66 q 38 309 4 212 q 117 464 72 406 q 243 568 162 522 q 368 614 323 614 q 428 584 406 614 q 460 490 450 554 q 407 457 433 471 q 354 435 381 444 q 338 511 352 488 q 293 534 323 534 q 235 511 260 534 q 187 436 210 488 q 137 286 157 366 q 118 160 118 205 q 143 93 118 117 q 212 69 168 69 q 453 148 272 69 l 468 154 m 191 16 l 231 7 q 181 -34 203 -14 q 141 -72 159 -54 l 169 -102 q 178 -117 175 -107 q 182 -138 182 -127 q 28 -265 182 -186 l 19 -269 l -16 -254 q 28 -226 1 -243 q 90 -167 90 -186 q 86 -149 90 -159 q 75 -130 81 -139 l 48 -100 q 119 -39 83 -68 q 191 16 155 -10 z "},"é":{"ha":494,"x_min":7,"x_max":534,"o":"m 460 154 l 460 113 q 278 17 363 51 q 136 -17 193 -17 q 40 21 74 -17 q 7 127 7 58 q 36 303 7 211 q 109 453 65 395 q 235 565 160 520 q 368 610 311 610 q 432 585 407 610 q 457 524 457 561 q 137 224 457 410 l 115 211 q 113 190 114 200 q 113 163 113 179 q 134 90 113 113 q 203 66 156 66 q 303 88 241 66 q 460 154 365 109 m 127 277 q 198 316 157 288 q 207 322 204 320 l 248 350 q 313 414 290 379 q 336 484 336 449 q 324 524 336 510 q 289 538 312 538 q 201 464 248 538 q 127 277 155 391 m 314 694 q 390 813 351 755 q 471 928 429 871 l 534 909 q 436 795 481 848 q 350 692 392 742 l 314 694 z "},"è":{"ha":494,"x_min":7,"x_max":460,"o":"m 460 154 l 460 113 q 278 17 363 51 q 136 -17 193 -17 q 40 21 74 -17 q 7 127 7 58 q 36 303 7 211 q 109 453 65 395 q 235 565 160 520 q 368 610 311 610 q 432 585 407 610 q 457 524 457 561 q 137 224 457 410 l 115 211 q 113 190 114 200 q 113 163 113 179 q 134 90 113 113 q 203 66 156 66 q 303 88 241 66 q 460 154 365 109 m 127 277 q 198 316 157 288 q 207 322 204 320 l 248 350 q 313 414 290 379 q 336 484 336 449 q 324 524 336 510 q 289 538 312 538 q 201 464 248 538 q 127 277 155 391 m 400 688 q 318 802 358 748 q 242 903 279 855 l 295 930 q 308 909 299 924 q 439 694 387 779 l 400 688 z "},"ê":{"ha":494,"x_min":7,"x_max":514,"o":"m 460 154 l 460 113 q 278 17 363 51 q 136 -17 193 -17 q 40 21 74 -17 q 7 127 7 58 q 36 303 7 211 q 109 453 65 395 q 235 565 160 520 q 368 610 311 610 q 432 585 407 610 q 457 524 457 561 q 137 224 457 410 l 115 211 q 113 190 114 200 q 113 163 113 179 q 134 90 113 113 q 203 66 156 66 q 303 88 241 66 q 460 154 365 109 m 127 277 q 198 316 157 288 q 207 322 204 320 l 248 350 q 313 414 290 379 q 336 484 336 449 q 324 524 336 510 q 289 538 312 538 q 201 464 248 538 q 127 277 155 391 m 221 686 l 210 720 q 350 880 260 777 l 388 924 l 433 928 l 514 718 l 465 684 l 395 835 q 303 759 345 795 q 221 686 260 723 z "},"ë":{"ha":494,"x_min":7,"x_max":531,"o":"m 460 154 l 460 113 q 278 17 363 51 q 136 -17 193 -17 q 40 21 74 -17 q 7 127 7 58 q 36 303 7 211 q 109 453 65 395 q 235 565 160 520 q 368 610 311 610 q 432 585 407 610 q 457 524 457 561 q 137 224 457 410 l 115 211 q 113 190 114 200 q 113 163 113 179 q 134 90 113 113 q 203 66 156 66 q 303 88 241 66 q 460 154 365 109 m 127 277 q 198 316 157 288 q 207 322 204 320 l 248 350 q 313 414 290 379 q 336 484 336 449 q 324 524 336 510 q 289 538 312 538 q 201 464 248 538 q 127 277 155 391 m 262 730 q 238 764 251 745 q 212 808 226 783 l 293 868 q 320 829 307 848 q 343 791 332 810 q 304 758 324 772 q 262 730 284 743 m 448 737 q 429 765 439 750 q 400 808 419 779 q 430 834 414 821 q 478 871 446 847 q 504 839 491 856 q 531 799 516 822 q 494 765 515 780 q 448 737 474 749 z "},"í":{"ha":386,"x_min":46,"x_max":448,"o":"m 56 498 q 208 585 158 559 q 292 619 258 610 l 310 600 q 292 519 307 574 q 285 493 287 502 l 225 274 q 220 254 223 267 q 197 142 197 171 q 205 112 197 124 q 225 100 214 100 q 345 142 249 100 q 375 154 365 150 l 375 113 q 194 13 247 37 q 104 -12 140 -11 q 92 -5 97 -9 q 83 5 86 0 q 76 50 79 29 q 74 89 74 70 q 77 117 74 100 q 85 153 79 134 l 168 433 q 170 438 169 435 q 178 473 178 465 q 175 486 178 483 q 165 489 172 489 q 120 480 151 489 q 46 454 90 471 l 56 498 m 228 694 q 304 813 265 755 q 385 928 342 871 l 448 909 q 350 795 395 848 q 264 692 306 742 l 228 694 z "},"ì":{"ha":386,"x_min":46,"x_max":375,"o":"m 56 498 q 208 585 158 559 q 292 619 258 610 l 310 600 q 292 519 307 574 q 285 493 287 502 l 225 274 q 220 254 223 267 q 197 142 197 171 q 205 112 197 124 q 225 100 214 100 q 345 142 249 100 q 375 154 365 150 l 375 113 q 194 13 247 37 q 104 -12 140 -11 q 92 -5 97 -9 q 83 5 86 0 q 76 50 79 29 q 74 89 74 70 q 77 117 74 100 q 85 153 79 134 l 168 433 q 170 438 169 435 q 178 473 178 465 q 175 486 178 483 q 165 489 172 489 q 120 480 151 489 q 46 454 90 471 l 56 498 m 314 688 q 232 802 272 748 q 156 903 193 855 l 209 930 q 222 909 213 924 q 353 694 301 779 l 314 688 z "},"î":{"ha":386,"x_min":46,"x_max":428,"o":"m 56 498 q 208 585 158 559 q 292 619 258 610 l 310 600 q 292 519 307 574 q 285 493 287 502 l 225 274 q 220 254 223 267 q 197 142 197 171 q 205 112 197 124 q 225 100 214 100 q 345 142 249 100 q 375 154 365 150 l 375 113 q 194 13 247 37 q 104 -12 140 -11 q 92 -5 97 -9 q 83 5 86 0 q 76 50 79 29 q 74 89 74 70 q 77 117 74 100 q 85 153 79 134 l 168 433 q 170 438 169 435 q 178 473 178 465 q 175 486 178 483 q 165 489 172 489 q 120 480 151 489 q 46 454 90 471 l 56 498 m 135 686 l 124 720 q 264 880 174 777 l 302 924 l 347 928 l 428 718 l 379 684 l 309 835 q 217 759 259 795 q 135 686 174 723 z "},"ï":{"ha":386,"x_min":46,"x_max":445,"o":"m 56 498 q 208 585 158 559 q 292 619 258 610 l 310 600 q 292 519 307 574 q 285 493 287 502 l 225 274 q 220 254 223 267 q 197 142 197 171 q 205 112 197 124 q 225 100 214 100 q 345 142 249 100 q 375 154 365 150 l 375 113 q 194 13 247 37 q 104 -12 140 -11 q 92 -5 97 -9 q 83 5 86 0 q 76 50 79 29 q 74 89 74 70 q 77 117 74 100 q 85 153 79 134 l 168 433 q 170 438 169 435 q 178 473 178 465 q 175 486 178 483 q 165 489 172 489 q 120 480 151 489 q 46 454 90 471 l 56 498 m 176 730 q 152 764 165 745 q 125 808 140 783 l 207 868 q 234 829 221 848 q 257 791 246 810 q 218 758 238 772 q 176 730 198 743 m 361 737 q 343 765 353 750 q 314 808 333 779 q 343 834 328 821 q 392 871 359 847 q 417 839 405 856 q 445 799 430 822 q 408 765 429 780 q 361 737 388 749 z "},"ñ":{"ha":614,"x_min":5,"x_max":623,"o":"m 5 -8 l 131 432 q 137 461 134 447 q 140 478 140 475 q 135 494 140 488 q 119 500 129 500 q 76 488 104 500 q 63 482 66 484 l 12 463 l 12 498 l 71 534 q 181 591 125 567 q 245 615 236 615 q 261 609 256 615 q 267 593 267 604 q 263 574 267 589 q 261 566 262 568 l 232 452 l 321 504 q 473 591 431 569 q 528 612 515 612 q 550 603 543 612 q 558 578 558 594 q 548 529 558 564 q 542 507 544 515 l 485 307 q 460 207 469 254 q 452 140 452 161 q 458 111 452 123 q 473 100 465 100 q 515 118 483 100 q 547 136 534 130 l 623 176 l 621 136 q 493 54 556 93 q 370 -22 431 14 q 347 -13 356 -19 q 330 3 337 -7 q 328 20 330 9 q 325 47 325 41 q 326 79 325 68 q 329 97 327 89 l 414 415 q 419 435 416 422 q 425 463 425 456 q 420 484 425 477 q 406 490 416 490 q 344 464 395 490 q 256 410 294 438 l 212 376 l 114 25 l 5 -8 m 227 768 l 216 787 l 270 833 q 295 849 282 844 q 321 854 309 854 q 355 851 336 854 q 393 840 374 847 l 437 827 q 460 820 448 823 q 484 818 472 818 q 535 829 511 818 q 591 868 560 841 l 603 848 l 564 807 q 517 767 538 779 q 473 755 496 755 q 447 758 460 755 q 419 766 433 760 l 374 782 q 337 792 356 789 q 300 796 317 796 q 267 789 284 796 q 227 768 250 783 z "},"ó":{"ha":536,"x_min":17,"x_max":562,"o":"m 323 539 q 185 432 246 539 q 123 183 123 325 q 147 91 123 124 q 212 58 170 58 q 284 83 250 58 q 343 150 319 107 q 393 280 374 208 q 412 414 412 353 q 389 506 412 473 q 323 539 366 539 m 17 154 q 51 338 17 246 q 140 489 85 431 q 263 578 191 542 q 390 614 336 614 q 484 573 452 614 q 517 457 517 533 q 487 279 517 368 q 407 126 458 190 q 280 25 359 66 q 146 -17 202 -17 q 50 27 83 -17 q 17 154 17 72 m 342 694 q 418 813 379 755 q 499 928 456 871 l 562 909 q 464 795 509 848 q 378 692 420 742 l 342 694 z "},"ò":{"ha":536,"x_min":17,"x_max":517,"o":"m 323 539 q 185 432 246 539 q 123 183 123 325 q 147 91 123 124 q 212 58 170 58 q 284 83 250 58 q 343 150 319 107 q 393 280 374 208 q 412 414 412 353 q 389 506 412 473 q 323 539 366 539 m 17 154 q 51 338 17 246 q 140 489 85 431 q 263 578 191 542 q 390 614 336 614 q 484 573 452 614 q 517 457 517 533 q 487 279 517 368 q 407 126 458 190 q 280 25 359 66 q 146 -17 202 -17 q 50 27 83 -17 q 17 154 17 72 m 428 688 q 346 802 386 748 q 270 903 307 855 l 323 930 q 336 909 327 924 q 467 694 415 779 l 428 688 z "},"ô":{"ha":536,"x_min":17,"x_max":542,"o":"m 323 539 q 185 432 246 539 q 123 183 123 325 q 147 91 123 124 q 212 58 170 58 q 284 83 250 58 q 343 150 319 107 q 393 280 374 208 q 412 414 412 353 q 389 506 412 473 q 323 539 366 539 m 17 154 q 51 338 17 246 q 140 489 85 431 q 263 578 191 542 q 390 614 336 614 q 484 573 452 614 q 517 457 517 533 q 487 279 517 368 q 407 126 458 190 q 280 25 359 66 q 146 -17 202 -17 q 50 27 83 -17 q 17 154 17 72 m 249 686 l 238 720 q 378 880 288 777 l 416 924 l 461 928 l 542 718 l 493 684 l 422 835 q 331 759 373 795 q 249 686 288 723 z "},"ö":{"ha":536,"x_min":17,"x_max":559,"o":"m 323 539 q 185 432 246 539 q 123 183 123 325 q 147 91 123 124 q 212 58 170 58 q 284 83 250 58 q 343 150 319 107 q 393 280 374 208 q 412 414 412 353 q 389 506 412 473 q 323 539 366 539 m 17 154 q 51 338 17 246 q 140 489 85 431 q 263 578 191 542 q 390 614 336 614 q 484 573 452 614 q 517 457 517 533 q 487 279 517 368 q 407 126 458 190 q 280 25 359 66 q 146 -17 202 -17 q 50 27 83 -17 q 17 154 17 72 m 290 730 q 266 764 279 745 q 239 808 254 783 l 321 868 q 348 829 335 848 q 371 791 360 810 q 332 758 352 772 q 290 730 312 743 m 475 737 q 457 765 467 750 q 428 808 447 779 q 457 834 441 821 q 506 871 473 847 q 531 839 519 856 q 559 799 544 822 q 522 765 543 780 q 475 737 502 749 z "},"õ":{"ha":536,"x_min":17,"x_max":606,"o":"m 323 539 q 185 432 246 539 q 123 183 123 325 q 147 91 123 124 q 212 58 170 58 q 284 83 250 58 q 343 150 319 107 q 393 280 374 208 q 412 414 412 353 q 389 506 412 473 q 323 539 366 539 m 17 154 q 51 338 17 246 q 140 489 85 431 q 263 578 191 542 q 390 614 336 614 q 484 573 452 614 q 517 457 517 533 q 487 279 517 368 q 407 126 458 190 q 280 25 359 66 q 146 -17 202 -17 q 50 27 83 -17 q 17 154 17 72 m 229 768 l 218 787 l 273 833 q 298 849 285 844 q 324 854 311 854 q 358 851 339 854 q 396 840 377 847 l 439 827 q 463 820 450 823 q 486 818 475 818 q 538 829 513 818 q 593 868 563 841 l 606 848 l 567 807 q 520 767 541 779 q 475 755 499 755 q 450 758 463 755 q 422 766 436 760 l 376 782 q 339 792 359 789 q 303 796 320 796 q 270 789 287 796 q 229 768 252 783 z "},"ú":{"ha":621,"x_min":29,"x_max":647,"o":"m 358 131 q 195 28 245 58 q 110 -18 145 -1 l 79 -9 q 56 38 64 17 q 49 75 49 58 q 66 154 49 90 q 81 205 75 186 l 132 399 q 140 436 137 418 q 143 464 143 454 q 139 482 143 477 q 125 486 136 486 q 33 450 103 486 l 31 449 l 29 490 q 164 567 102 534 q 264 612 227 599 l 277 604 q 275 571 277 587 q 269 543 273 555 l 186 230 q 177 185 180 208 q 174 147 174 163 q 179 111 174 124 q 196 98 185 98 q 330 169 219 98 q 374 196 358 186 l 383 235 q 427 407 414 361 l 468 559 l 587 614 q 545 474 569 552 q 519 387 522 396 l 500 310 q 471 189 478 223 q 464 139 464 155 q 470 110 464 121 q 485 98 476 98 q 540 123 496 98 q 559 135 553 131 l 647 180 l 640 134 q 493 42 557 79 q 375 -18 428 5 l 354 1 q 353 23 353 12 q 353 50 353 34 q 354 85 353 64 q 358 131 355 106 m 351 694 q 427 813 389 755 q 509 928 466 871 l 571 909 q 474 795 518 848 q 387 692 429 742 l 351 694 z "},"ù":{"ha":621,"x_min":29,"x_max":647,"o":"m 358 131 q 195 28 245 58 q 110 -18 145 -1 l 79 -9 q 56 38 64 17 q 49 75 49 58 q 66 154 49 90 q 81 205 75 186 l 132 399 q 140 436 137 418 q 143 464 143 454 q 139 482 143 477 q 125 486 136 486 q 33 450 103 486 l 31 449 l 29 490 q 164 567 102 534 q 264 612 227 599 l 277 604 q 275 571 277 587 q 269 543 273 555 l 186 230 q 177 185 180 208 q 174 147 174 163 q 179 111 174 124 q 196 98 185 98 q 330 169 219 98 q 374 196 358 186 l 383 235 q 427 407 414 361 l 468 559 l 587 614 q 545 474 569 552 q 519 387 522 396 l 500 310 q 471 189 478 223 q 464 139 464 155 q 470 110 464 121 q 485 98 476 98 q 540 123 496 98 q 559 135 553 131 l 647 180 l 640 134 q 493 42 557 79 q 375 -18 428 5 l 354 1 q 353 23 353 12 q 353 50 353 34 q 354 85 353 64 q 358 131 355 106 m 437 688 q 356 802 395 748 q 279 903 316 855 l 332 930 q 345 909 336 924 q 477 694 425 779 l 437 688 z "},"û":{"ha":621,"x_min":29,"x_max":647,"o":"m 358 131 q 195 28 245 58 q 110 -18 145 -1 l 79 -9 q 56 38 64 17 q 49 75 49 58 q 66 154 49 90 q 81 205 75 186 l 132 399 q 140 436 137 418 q 143 464 143 454 q 139 482 143 477 q 125 486 136 486 q 33 450 103 486 l 31 449 l 29 490 q 164 567 102 534 q 264 612 227 599 l 277 604 q 275 571 277 587 q 269 543 273 555 l 186 230 q 177 185 180 208 q 174 147 174 163 q 179 111 174 124 q 196 98 185 98 q 330 169 219 98 q 374 196 358 186 l 383 235 q 427 407 414 361 l 468 559 l 587 614 q 545 474 569 552 q 519 387 522 396 l 500 310 q 471 189 478 223 q 464 139 464 155 q 470 110 464 121 q 485 98 476 98 q 540 123 496 98 q 559 135 553 131 l 647 180 l 640 134 q 493 42 557 79 q 375 -18 428 5 l 354 1 q 353 23 353 12 q 353 50 353 34 q 354 85 353 64 q 358 131 355 106 m 258 686 l 248 720 q 387 880 298 777 l 425 924 l 471 928 l 551 718 l 503 684 l 432 835 q 340 759 382 795 q 258 686 298 723 z "},"ü":{"ha":621,"x_min":29,"x_max":647,"o":"m 358 131 q 195 28 245 58 q 110 -18 145 -1 l 79 -9 q 56 38 64 17 q 49 75 49 58 q 66 154 49 90 q 81 205 75 186 l 132 399 q 140 436 137 418 q 143 464 143 454 q 139 482 143 477 q 125 486 136 486 q 33 450 103 486 l 31 449 l 29 490 q 164 567 102 534 q 264 612 227 599 l 277 604 q 275 571 277 587 q 269 543 273 555 l 186 230 q 177 185 180 208 q 174 147 174 163 q 179 111 174 124 q 196 98 185 98 q 330 169 219 98 q 374 196 358 186 l 383 235 q 427 407 414 361 l 468 559 l 587 614 q 545 474 569 552 q 519 387 522 396 l 500 310 q 471 189 478 223 q 464 139 464 155 q 470 110 464 121 q 485 98 476 98 q 540 123 496 98 q 559 135 553 131 l 647 180 l 640 134 q 493 42 557 79 q 375 -18 428 5 l 354 1 q 353 23 353 12 q 353 50 353 34 q 354 85 353 64 q 358 131 355 106 m 300 730 q 276 764 288 745 q 249 808 263 783 l 330 868 q 357 829 345 848 q 380 791 370 810 q 341 758 361 772 q 300 730 321 743 m 485 737 q 466 765 476 750 q 437 808 456 779 q 467 834 451 821 q 515 871 483 847 q 541 839 528 856 q 568 799 553 822 q 532 765 552 780 q 485 737 511 749 z "},"†":{"ha":607,"x_min":43,"x_max":615,"o":"m 158 -43 q 216 213 184 79 q 248 349 247 347 l 283 511 l 182 507 q 109 505 143 506 q 104 504 104 504 q 75 504 90 504 q 43 505 60 505 l 77 593 q 127 591 102 591 q 186 590 152 590 q 296 593 220 590 l 300 593 q 324 716 313 657 q 345 831 335 774 l 447 846 q 417 725 432 787 q 388 593 403 663 q 426 594 405 594 q 492 595 446 595 q 566 594 540 595 q 615 593 591 594 l 581 503 q 511 510 548 507 q 435 513 474 513 q 395 512 408 513 q 370 511 382 512 l 293 150 q 278 70 286 115 q 262 -36 271 25 l 158 -43 z "},"°":{"ha":457,"x_min":37,"x_max":421,"o":"m 229 930 q 132 891 172 930 q 92 794 92 851 q 132 697 92 737 q 229 657 172 657 q 326 697 286 657 q 366 794 366 737 q 326 891 366 851 q 229 930 286 930 m 229 986 q 365 930 309 986 q 421 794 421 873 q 365 659 421 715 q 228 603 308 603 q 93 659 148 603 q 37 794 37 714 q 93 930 37 875 q 229 986 149 986 z "},"¢":{"ha":627,"x_min":50,"x_max":553,"o":"m 343 545 q 219 433 277 541 q 161 204 161 326 q 178 122 161 153 q 227 83 194 92 q 288 315 258 200 q 343 545 317 431 m 154 -178 q 171 -124 163 -149 q 183 -81 178 -99 l 201 -4 q 88 41 126 -2 q 50 165 50 83 q 137 432 50 308 q 357 604 223 557 l 368 654 q 378 699 374 680 q 385 739 382 718 l 446 757 q 428 700 435 727 q 415 650 420 673 l 407 612 l 412 612 q 501 591 468 612 q 553 525 534 570 l 458 465 q 419 526 433 513 q 386 541 405 540 q 322 296 351 412 q 273 78 294 180 q 372 103 319 79 q 489 179 424 127 l 489 127 q 361 42 418 73 q 253 4 303 12 l 236 -58 q 227 -104 231 -81 q 220 -151 222 -127 l 154 -178 z "},"£":{"ha":627,"x_min":-107,"x_max":618,"o":"m -107 -28 q 114 336 53 77 l 117 347 l 139 439 l 57 439 q 40 438 55 439 q 13 436 24 437 l 68 484 l 149 484 q 178 586 166 551 q 201 647 189 621 q 295 741 220 688 q 307 750 302 747 l 317 758 q 530 851 444 851 q 567 848 545 851 q 618 839 589 845 l 555 754 q 504 762 528 760 q 461 765 481 765 q 345 721 383 765 q 258 484 307 677 l 322 484 q 390 483 368 484 q 430 481 412 483 l 384 439 q 344 438 365 438 q 279 437 323 437 l 245 437 q 182 237 222 319 q 74 83 142 155 q 120 88 105 87 q 149 89 135 89 q 188 87 164 89 q 255 82 212 86 l 288 79 q 316 77 302 78 q 359 77 331 77 q 456 106 415 77 q 581 253 498 136 l 593 205 q 517 72 548 123 q 458 -20 487 20 q 432 -24 445 -22 q 408 -25 419 -25 q 293 -14 391 -25 q 247 -8 264 -10 l 199 -3 q 154 1 176 0 q 113 3 132 3 q 3 -14 52 3 q -107 -69 -45 -30 l -107 -28 z "},"§":{"ha":607,"x_min":14,"x_max":581,"o":"m 383 62 q 417 108 406 81 q 428 176 428 135 q 409 259 428 217 q 349 349 389 300 l 300 407 q 254 479 267 447 q 241 553 241 511 l 241 570 q 193 500 208 534 q 178 427 178 466 q 193 343 178 381 q 252 257 209 306 l 297 205 q 311 191 302 200 q 383 62 374 119 m 14 -229 q 39 -183 25 -206 q 69 -139 54 -161 q 135 -156 106 -151 q 186 -161 163 -161 q 278 -129 243 -161 q 313 -47 313 -96 q 293 19 313 -17 q 231 102 273 55 l 180 157 q 120 249 142 200 q 98 343 98 298 q 138 487 98 416 q 257 624 178 557 q 357 765 292 711 q 494 818 423 818 q 546 810 526 818 q 581 783 566 802 q 551 746 568 766 q 515 704 535 726 q 469 731 490 722 q 431 741 448 741 q 350 704 384 741 q 315 618 315 668 q 378 496 315 568 q 380 493 380 494 l 424 443 q 484 351 467 393 q 501 257 501 309 q 474 136 501 195 q 389 20 446 78 q 366 -64 388 -20 q 296 -165 345 -107 q 213 -235 253 -215 q 117 -254 172 -254 q 70 -249 94 -254 q 14 -229 45 -243 z "},"•":{"ha":819,"x_min":208,"x_max":610,"o":"m 208 517 q 267 659 208 600 q 410 717 326 717 q 551 658 492 717 q 610 517 610 600 q 550 375 610 434 q 408 315 491 315 q 267 374 325 315 q 208 517 208 433 z "},"¶":{"ha":694,"x_min":52,"x_max":643,"o":"m 643 1003 l 643 950 l 558 950 l 558 0 l 494 0 l 494 950 l 371 950 l 371 0 l 306 0 l 306 530 q 120 600 189 536 q 52 766 52 664 q 124 938 52 873 q 318 1003 197 1003 l 643 1003 z "},"ß":{"ha":589,"x_min":-301,"x_max":633,"o":"m 117 403 q 117 407 117 404 q 118 411 118 410 q 100 452 118 431 q 53 486 82 473 q 100 511 77 501 q 147 528 123 522 q 161 581 152 546 q 278 863 218 799 q 400 958 333 921 q 517 996 468 996 q 601 964 569 996 q 633 880 633 932 q 616 806 633 844 q 558 717 599 768 l 496 636 q 433 547 449 576 q 418 496 418 518 q 451 425 418 465 q 454 420 453 422 l 486 382 q 520 329 512 351 q 529 279 529 307 q 509 192 529 239 q 452 96 490 145 q 366 16 408 39 q 265 -7 323 -7 q 219 -4 245 -7 q 161 5 193 -1 l 222 102 q 281 91 256 94 q 328 87 307 87 q 410 123 376 87 q 444 208 444 158 q 400 310 444 254 q 397 314 399 312 l 358 366 q 355 369 357 366 q 315 452 315 421 q 333 491 315 462 q 379 559 350 521 l 457 663 q 514 758 494 712 q 534 839 534 804 q 513 903 534 878 q 460 928 492 928 q 363 872 402 928 q 289 676 323 816 l 186 257 q 98 -69 133 40 q 31 -233 63 -178 q -26 -312 7 -272 q -100 -387 -60 -353 q -157 -425 -132 -415 q -237 -435 -182 -435 q -268 -434 -252 -435 q -301 -433 -283 -434 l -258 -339 l -196 -338 l -195 -338 q -56 -267 -84 -332 q -12 -134 -42 -235 q 45 85 18 -33 l 117 403 z "},"®":{"ha":1141,"x_min":94,"x_max":1047,"o":"m 494 488 q 516 487 505 487 q 539 486 527 486 q 657 517 615 486 q 699 604 699 548 q 663 684 699 654 q 566 714 627 714 q 512 702 530 714 q 494 665 494 689 l 494 488 m 318 741 l 585 741 q 742 704 684 741 q 800 604 800 667 q 753 520 800 553 q 606 469 706 488 q 702 417 669 450 q 750 326 735 384 q 758 283 754 311 q 798 224 766 224 q 831 247 819 224 q 843 314 843 270 l 872 314 l 872 306 q 845 215 872 246 q 764 184 817 184 q 710 196 732 184 q 677 229 688 208 q 663 306 665 256 q 657 371 661 356 q 609 439 644 417 q 517 461 575 461 l 494 461 l 494 293 q 512 242 494 256 q 579 224 530 227 l 579 197 l 318 197 l 318 224 q 386 241 367 227 q 404 293 404 256 l 404 643 q 387 694 404 680 q 318 711 369 709 l 318 741 m 572 884 q 412 851 490 884 q 275 758 335 819 q 184 621 216 698 q 153 460 153 544 q 184 298 153 374 q 277 161 216 222 q 411 70 336 101 q 571 39 486 39 q 731 70 656 39 q 865 161 806 101 q 957 299 925 222 q 989 460 989 376 q 957 624 989 544 q 867 760 924 703 q 731 851 808 819 q 572 884 653 884 m 572 937 q 754 901 666 937 q 909 798 843 864 q 1011 643 975 732 q 1047 458 1047 554 q 1009 277 1047 366 q 903 119 972 189 q 750 18 836 52 q 567 -17 665 -17 q 389 19 474 -17 q 235 122 303 54 q 130 276 166 190 q 94 460 94 362 q 130 642 94 555 q 233 798 166 729 q 388 901 300 865 q 572 937 476 937 z "},"©":{"ha":1141,"x_min":94,"x_max":1047,"o":"m 760 743 l 783 743 l 785 530 l 757 530 q 686 670 734 623 q 567 717 639 717 q 441 653 484 717 q 399 464 399 589 q 444 271 399 336 q 579 205 490 205 q 685 235 637 205 q 771 323 732 264 l 794 307 q 697 201 755 236 q 562 165 640 165 q 369 249 449 165 q 289 450 289 332 q 368 662 289 576 q 561 747 446 747 q 661 724 611 747 q 717 701 711 701 q 745 711 735 701 q 760 743 755 721 m 572 884 q 411 851 489 884 q 275 758 334 818 q 184 621 216 698 q 153 460 153 544 q 184 298 153 375 q 277 161 216 221 q 411 70 336 101 q 571 39 486 39 q 731 70 656 39 q 865 161 806 101 q 957 299 925 222 q 989 460 989 376 q 957 623 989 544 q 867 760 924 702 q 731 851 808 819 q 572 884 653 884 m 572 937 q 753 901 665 937 q 907 799 841 865 q 1010 644 973 733 q 1047 460 1047 555 q 1011 278 1047 365 q 907 122 975 191 q 754 19 840 54 q 571 -17 668 -17 q 389 19 474 -17 q 235 122 303 54 q 130 276 166 190 q 94 460 94 362 q 130 642 94 555 q 233 798 166 729 q 388 901 300 865 q 572 937 476 937 z "},"™":{"ha":1141,"x_min":165,"x_max":972,"o":"m 534 975 l 659 975 l 754 704 l 854 975 l 972 975 l 972 958 l 952 957 q 929 946 937 956 q 921 921 921 937 l 921 668 q 929 643 921 652 q 952 632 937 633 l 972 631 l 972 612 l 812 612 l 812 631 l 833 632 q 856 643 848 633 q 864 668 864 652 l 864 936 l 743 611 l 733 611 l 615 936 l 615 668 q 624 643 615 652 q 647 632 632 633 l 668 631 l 668 612 l 534 612 l 534 631 l 557 632 q 579 643 572 633 q 587 668 587 652 l 587 920 q 579 945 587 935 q 555 956 570 954 l 534 957 l 534 975 m 174 975 l 472 975 l 479 854 l 463 854 q 435 932 457 908 q 370 957 413 957 l 355 957 l 355 668 q 363 643 355 652 q 386 632 372 633 l 407 631 l 407 612 l 239 612 l 239 631 l 260 632 q 282 643 274 633 q 290 668 290 652 l 290 957 l 277 957 q 211 932 233 957 q 183 854 189 908 l 165 854 l 174 975 z "},"´":{"ha":694,"x_min":382,"x_max":602,"o":"m 382 694 q 458 813 419 755 q 539 928 496 871 l 602 909 q 504 795 549 848 q 418 692 460 742 l 382 694 z "},"¨":{"ha":694,"x_min":279,"x_max":599,"o":"m 330 730 q 306 764 319 745 q 279 808 294 783 l 361 868 q 388 829 375 848 q 411 791 400 810 q 372 758 392 772 q 330 730 352 743 m 515 737 q 497 765 507 750 q 468 808 487 779 q 497 834 481 821 q 546 871 513 847 q 571 839 559 856 q 599 799 584 822 q 562 765 583 780 q 515 737 542 749 z "},"≠":{"ha":1157,"x_min":172,"x_max":985,"o":"m 821 800 l 880 753 l 747 583 l 985 583 l 985 505 l 697 505 l 554 322 l 985 322 l 985 244 l 504 244 l 334 28 l 273 75 l 407 244 l 172 244 l 172 322 l 457 322 l 600 505 l 172 505 l 172 583 l 650 583 l 821 800 z "},"Æ":{"ha":1072,"x_min":-117,"x_max":1047,"o":"m 488 446 q 532 608 511 527 q 575 771 554 690 l 559 771 q 407 588 469 663 q 293 447 345 512 q 367 446 329 447 q 378 446 376 446 l 436 446 l 488 446 m 389 61 q 423 189 405 120 q 475 395 441 257 l 322 395 l 261 395 l 90 161 q 46 90 58 116 q 35 41 35 64 q 36 21 35 33 q 40 -4 37 9 q -34 -13 2 -9 q -107 -16 -71 -16 l -114 -1 q -116 6 -115 2 q -117 18 -117 11 q -113 32 -117 24 q -104 45 -110 39 l 155 372 q 277 514 181 404 q 507 774 372 623 q 363 796 472 778 q 357 798 359 797 l 422 832 q 487 829 454 830 q 553 828 519 828 l 600 828 l 631 828 l 881 833 q 941 836 909 834 q 978 838 973 838 q 1018 824 1006 838 q 1033 765 1029 810 l 928 672 q 895 764 913 745 q 811 783 876 783 q 755 781 784 783 q 692 772 726 778 q 641 580 667 682 q 632 546 633 552 l 607 447 q 665 446 627 447 q 867 444 812 444 q 815 407 844 418 q 720 396 786 396 l 661 396 q 618 396 632 396 q 593 394 604 395 l 545 207 q 525 126 533 162 q 511 61 516 90 l 611 61 q 766 69 720 61 q 842 96 811 77 q 1002 273 899 131 q 1023 301 1017 292 l 1038 288 q 1044 276 1042 282 q 1047 265 1047 269 q 1045 254 1047 261 q 1038 237 1042 248 l 1022 203 q 968 91 992 138 q 916 0 943 45 q 484 -1 614 0 q 257 -3 354 -1 l 297 40 q 343 50 320 45 q 389 61 366 55 z "},"Ø":{"ha":846,"x_min":-5,"x_max":840,"o":"m 203 122 q 274 65 234 83 q 364 46 314 46 q 598 181 504 46 q 693 521 693 315 q 686 593 693 555 q 663 673 678 630 q 435 405 550 543 q 203 122 321 267 m 632 722 q 564 769 601 753 q 485 785 527 785 q 250 649 347 785 q 154 310 154 513 q 159 247 154 280 q 176 174 165 214 q 405 444 291 307 q 632 722 518 581 m 125 31 q 66 -46 96 -8 q 5 -121 37 -83 l -5 -45 q 50 22 18 -16 q 86 66 81 60 q 40 153 54 106 q 25 262 25 199 q 75 507 25 390 q 215 707 125 625 q 381 811 288 774 q 570 848 475 848 q 646 839 610 848 q 713 812 683 830 q 785 902 761 873 q 829 954 808 930 l 840 882 q 801 838 831 871 q 751 782 772 804 q 805 690 788 743 q 822 567 822 638 q 783 349 822 456 q 675 165 744 243 q 493 29 598 79 q 283 -21 388 -21 q 201 -8 239 -21 q 125 31 163 4 z "},"∞":{"ha":1157,"x_min":154,"x_max":1003,"o":"m 614 379 q 694 283 648 315 q 800 252 741 252 q 915 300 869 252 q 960 422 960 348 q 918 544 960 496 q 815 593 877 593 q 711 544 758 593 q 614 379 665 494 m 545 452 q 464 548 510 516 q 359 581 418 581 q 243 532 288 581 q 199 408 199 484 q 240 287 199 335 q 343 239 281 239 q 446 286 401 239 q 545 452 492 332 m 587 335 q 487 198 539 241 q 370 155 435 155 q 216 229 279 155 q 154 414 154 303 q 210 602 154 530 q 355 673 266 673 q 472 631 421 673 q 570 493 523 588 q 669 631 615 587 q 787 676 722 676 q 941 603 878 676 q 1003 418 1003 529 q 947 230 1003 302 q 803 158 892 158 q 688 199 738 158 q 587 335 639 239 z "},"±":{"ha":1157,"x_min":172,"x_max":985,"o":"m 172 107 l 985 107 l 985 28 l 172 28 l 172 107 m 539 800 l 619 800 l 619 567 l 985 567 l 985 488 l 619 488 l 619 254 l 539 254 l 539 488 l 172 488 l 172 567 l 539 567 l 539 800 z "},"≤":{"ha":1157,"x_min":178,"x_max":979,"o":"m 178 102 l 979 102 l 979 22 l 178 22 l 178 102 m 979 808 l 979 724 l 317 504 l 979 285 l 979 200 l 178 471 l 178 539 l 979 808 z "},"≥":{"ha":1157,"x_min":178,"x_max":979,"o":"m 178 102 l 979 102 l 979 22 l 178 22 l 178 102 m 178 808 l 979 539 l 979 471 l 178 200 l 178 285 l 842 504 l 178 724 l 178 808 z "},"¥":{"ha":787,"x_min":16,"x_max":901,"o":"m 139 0 l 170 60 q 218 68 195 65 q 261 73 241 71 l 294 178 q 323 281 313 235 q 338 364 334 327 l 39 364 l 50 408 l 338 408 q 342 437 341 425 q 343 457 343 450 q 342 478 343 465 q 339 512 341 492 l 78 513 l 87 558 l 334 558 q 289 714 325 664 q 184 764 252 764 q 112 745 151 764 q 25 686 73 726 q 17 706 19 700 q 16 717 16 711 q 82 798 16 751 q 225 846 149 846 q 374 760 321 846 q 427 514 427 674 q 423 445 427 482 q 412 357 420 407 l 564 659 q 672 805 613 757 q 802 852 730 852 q 849 847 825 852 q 901 832 873 842 q 877 780 889 804 q 853 732 865 756 q 813 747 831 742 q 777 751 795 751 q 671 711 718 751 q 561 558 624 670 l 785 558 l 775 513 l 536 513 q 513 467 530 502 q 484 408 496 433 l 746 408 l 736 364 l 460 364 q 419 241 437 312 q 387 71 401 170 q 484 58 417 68 q 509 54 500 56 l 468 0 q 374 3 416 2 q 298 4 332 4 q 226 3 267 4 q 139 0 186 2 z "},"µ":{"ha":760,"x_min":-54,"x_max":737,"o":"m 111 131 q 76 -99 93 39 q 0 -283 53 -283 q -40 -268 -25 -283 q -54 -224 -54 -252 q -11 -38 -54 -197 q 61 252 33 120 l 135 600 l 235 600 l 164 267 q 158 227 160 246 q 155 191 155 208 q 184 103 155 134 q 264 72 212 72 q 375 118 330 72 q 439 254 419 165 l 514 600 l 615 600 l 538 240 q 526 181 529 200 q 524 147 524 161 q 541 94 524 115 q 586 74 559 74 q 630 86 610 74 q 665 121 651 98 q 693 184 680 143 q 720 225 707 225 q 732 218 728 225 q 737 200 737 212 q 730 155 737 183 q 710 98 722 127 q 646 15 684 43 q 554 -12 607 -12 q 480 22 508 -12 q 453 117 453 57 l 453 132 q 374 21 422 58 q 262 -16 327 -16 q 159 21 197 -16 q 111 131 121 58 z "},"∂":{"ha":708,"x_min":79,"x_max":635,"o":"m 511 410 q 525 519 520 465 q 529 627 529 574 q 502 773 529 722 q 427 825 475 825 q 347 782 391 825 q 273 739 304 739 q 239 754 254 739 q 224 789 224 768 q 270 860 224 829 q 380 892 316 892 q 566 788 496 892 q 635 509 635 685 q 541 132 635 281 q 307 -17 446 -17 q 143 55 208 -17 q 79 240 79 127 q 153 454 79 368 q 334 541 227 541 q 444 509 401 541 q 511 410 487 477 m 481 328 q 450 450 481 407 q 364 493 420 493 q 239 407 288 493 q 191 180 191 320 q 220 60 191 101 q 307 18 250 18 q 432 105 382 18 q 481 328 481 192 z "},"∑":{"ha":972,"x_min":8,"x_max":956,"o":"m 8 999 l 778 999 l 844 768 l 794 768 l 749 917 q 727 943 743 935 q 677 951 711 951 l 175 951 l 761 375 l 761 350 l 179 -163 l 785 -163 q 837 -154 825 -163 q 857 -119 849 -145 l 905 36 l 956 36 l 864 -267 l 9 -267 l 9 -248 l 660 321 l 8 965 l 8 999 z "},"∏":{"ha":1082,"x_min":39,"x_max":1042,"o":"m 39 999 l 1042 999 l 1042 951 l 916 951 l 916 -220 l 1042 -220 l 1042 -267 l 665 -267 l 665 -220 l 799 -220 l 799 951 l 282 951 l 282 -220 l 415 -220 l 415 -267 l 39 -267 l 39 -220 l 165 -220 l 165 951 l 39 951 l 39 999 z "},"π":{"ha":918,"x_min":21,"x_max":901,"o":"m 901 600 l 878 490 l 654 490 q 618 184 631 369 q 536 -29 602 -29 q 497 -13 511 -29 q 484 35 484 4 q 536 225 484 74 q 615 490 588 376 l 361 490 q 325 186 338 370 q 241 -29 308 -29 q 203 -12 216 -29 q 189 36 189 5 q 242 224 189 74 q 322 490 294 374 l 232 490 q 110 461 140 490 q 61 345 80 431 l 21 345 q 101 543 46 485 q 262 600 155 600 l 901 600 z "},"":{"ha":918,"x_min":21,"x_max":901,"o":"m 901 600 l 878 490 l 654 490 q 618 184 631 369 q 536 -29 602 -29 q 497 -13 511 -29 q 484 35 484 4 q 536 225 484 74 q 615 490 588 376 l 361 490 q 325 186 338 370 q 241 -29 308 -29 q 203 -12 216 -29 q 189 36 189 5 q 242 224 189 74 q 322 490 294 374 l 232 490 q 110 461 140 490 q 61 345 80 431 l 21 345 q 101 543 46 485 q 262 600 155 600 l 901 600 z "},"∫":{"ha":692,"x_min":32,"x_max":660,"o":"m 204 -182 q 283 269 274 -182 q 286 415 285 364 q 355 903 294 756 q 546 1050 416 1050 q 629 1023 597 1050 q 660 953 660 997 q 639 900 660 920 q 583 880 618 880 q 526 904 547 880 q 504 966 504 928 q 500 977 504 972 q 490 982 496 982 q 410 552 419 982 q 406 386 408 446 q 384 73 399 177 q 342 -94 370 -31 q 258 -212 309 -172 q 144 -252 208 -252 q 63 -226 95 -252 q 32 -160 32 -200 q 53 -103 32 -124 q 110 -82 75 -82 q 164 -102 142 -82 q 186 -147 186 -121 q 191 -173 186 -163 q 204 -182 196 -182 z "},"ª":{"ha":432,"x_min":4,"x_max":444,"o":"m 224 650 q 149 603 203 637 q 65 551 95 569 l 36 547 q 11 574 18 559 q 4 615 4 589 q 26 748 4 671 q 78 872 47 824 q 144 934 96 902 q 254 989 192 966 l 265 989 q 346 983 309 989 q 415 964 383 977 l 379 922 l 314 700 q 307 675 309 686 q 304 656 304 664 q 308 642 304 646 q 319 637 312 637 q 352 647 330 637 q 444 693 374 656 l 444 659 q 334 594 382 621 q 240 546 285 568 q 225 549 231 546 q 215 558 219 551 q 214 571 214 565 q 214 583 214 577 q 216 609 214 594 q 224 650 218 624 m 235 701 q 273 826 257 776 q 302 920 289 877 q 258 929 277 926 q 222 932 238 932 q 178 921 193 932 q 142 872 162 911 q 104 769 120 831 q 87 669 87 707 q 95 643 87 652 q 117 633 103 633 q 206 682 136 633 q 235 701 224 694 z "},"º":{"ha":403,"x_min":12,"x_max":387,"o":"m 243 937 q 139 862 185 937 q 93 688 93 787 q 111 623 93 646 q 160 600 128 600 q 214 617 188 600 q 257 665 239 635 q 295 756 281 705 q 310 850 310 806 q 292 914 310 891 q 243 937 274 937 m 12 668 q 38 797 12 732 q 106 901 64 861 q 197 964 143 939 q 293 989 252 989 q 363 961 339 989 q 387 879 387 932 q 366 755 387 817 q 306 648 344 693 q 211 578 270 607 q 110 549 152 549 q 37 579 62 549 q 12 668 12 610 z "},"Ω":{"ha":1063,"x_min":21,"x_max":1044,"o":"m 746 127 l 746 110 l 958 110 l 1003 248 l 1044 248 l 971 0 l 632 0 q 769 306 723 158 q 815 586 815 454 q 742 868 815 770 q 533 966 669 966 q 323 868 397 966 q 250 586 250 770 q 296 307 250 454 q 435 0 342 161 l 96 0 l 21 248 l 62 248 l 109 110 l 319 110 l 319 127 q 161 373 208 265 q 114 595 114 480 q 232 897 114 779 q 533 1015 351 1015 q 833 897 715 1015 q 951 595 951 779 q 905 373 951 480 q 746 127 858 265 z "},"Ω":{"ha":1063,"x_min":21,"x_max":1044,"o":"m 746 127 l 746 110 l 958 110 l 1003 248 l 1044 248 l 971 0 l 632 0 q 769 306 723 158 q 815 586 815 454 q 742 868 815 770 q 533 966 669 966 q 323 868 397 966 q 250 586 250 770 q 296 307 250 454 q 435 0 342 161 l 96 0 l 21 248 l 62 248 l 109 110 l 319 110 l 319 127 q 161 373 208 265 q 114 595 114 480 q 232 897 114 779 q 533 1015 351 1015 q 833 897 715 1015 q 951 595 951 779 q 905 373 951 480 q 746 127 858 265 z "},"æ":{"ha":765,"x_min":-12,"x_max":764,"o":"m 764 155 l 757 111 q 558 12 644 45 q 415 -21 473 -21 q 331 10 362 -21 q 300 94 300 41 q 301 114 300 104 q 304 134 302 125 q 182 54 245 92 q 49 -21 118 15 l 24 -8 q -5 17 3 -2 q -12 102 -12 37 q 33 306 -12 179 l 35 309 q 76 405 55 367 q 122 468 97 443 q 161 497 134 479 q 250 554 189 515 q 260 560 253 556 q 355 599 320 599 q 394 592 374 599 q 440 570 414 585 l 511 648 l 538 643 l 506 546 q 522 555 511 549 q 653 607 609 607 q 717 582 692 607 q 742 517 742 556 q 541 296 742 427 q 431 222 470 250 q 429 214 430 219 q 422 147 422 168 q 441 86 422 106 q 500 66 460 66 q 592 89 525 66 q 764 155 660 112 m 441 283 l 502 330 q 528 348 510 336 q 621 475 621 416 q 608 514 621 500 q 575 528 596 528 q 499 467 532 528 q 441 283 467 407 m 309 191 q 342 340 324 272 q 383 467 361 408 q 339 507 359 494 q 298 519 319 519 q 241 499 269 519 q 191 440 213 479 q 161 378 176 415 q 127 283 146 341 q 103 196 109 224 q 97 150 97 169 q 107 108 97 122 q 138 94 117 94 q 206 119 161 94 q 309 191 251 144 z "},"ø":{"ha":538,"x_min":-57,"x_max":575,"o":"m -57 -41 q -32 -15 -43 -28 q -9 11 -20 -2 l 31 61 q 19 106 22 86 q 16 144 16 126 q 43 313 16 225 q 117 460 71 400 q 248 569 166 524 q 392 614 329 614 q 436 607 416 614 q 473 585 455 600 l 511 628 q 533 655 519 635 q 568 705 548 675 l 575 621 q 538 588 557 611 q 529 578 532 581 l 500 547 q 512 511 508 529 q 515 469 515 494 q 487 281 515 370 q 406 126 458 192 q 278 24 356 66 q 139 -17 200 -17 q 92 -8 112 -17 q 56 18 73 0 l 16 -35 q 12 -41 15 -37 q -33 -115 -16 -79 l -57 -41 m 397 493 q 367 528 386 516 q 323 539 349 539 q 184 433 243 539 q 125 167 126 326 l 191 247 q 397 493 327 410 m 134 113 q 166 72 145 86 q 215 58 187 58 q 352 165 296 58 q 411 441 407 271 q 272 280 341 362 q 134 113 203 199 z "},"¿":{"ha":463,"x_min":12,"x_max":436,"o":"m 378 850 q 412 803 398 829 q 436 746 427 778 q 392 714 416 730 q 336 679 368 698 l 282 782 q 324 818 300 802 q 378 850 347 835 m 367 629 q 403 550 392 583 q 414 489 414 517 q 411 456 414 473 q 401 419 408 439 l 296 351 q 273 337 288 347 q 131 165 131 248 q 163 79 131 109 q 260 50 196 50 q 285 51 271 50 q 317 54 300 52 l 296 18 q 257 -9 283 -1 q 189 -18 231 -18 q 59 19 106 -18 q 12 122 12 56 q 39 206 12 168 q 127 289 65 245 l 192 335 l 197 338 q 313 485 313 420 q 306 533 313 509 q 283 589 300 557 l 367 629 z "},"¡":{"ha":382,"x_min":22,"x_max":363,"o":"m 285 604 q 254 425 278 532 q 155 41 231 318 q 92 12 125 26 q 22 -12 59 -1 q 99 197 65 99 q 153 366 132 295 l 172 433 q 189 498 181 464 q 205 568 197 532 q 235 581 218 574 q 285 604 252 589 m 363 746 q 309 702 336 722 q 253 667 281 682 q 220 722 236 696 q 189 771 205 747 q 236 812 212 792 q 292 851 261 831 q 333 800 316 826 q 363 746 351 774 z "},"¬":{"ha":1157,"x_min":172,"x_max":985,"o":"m 172 582 l 985 582 l 985 241 l 907 241 l 907 503 l 172 503 l 172 582 z "},"√":{"ha":873,"x_min":39,"x_max":873,"o":"m 750 1117 l 873 1117 l 873 1061 l 793 1061 l 390 -28 l 354 -28 l 135 578 l 54 549 l 39 595 l 216 657 l 396 163 l 750 1117 z "},"ƒ":{"ha":627,"x_min":-212,"x_max":710,"o":"m -153 -326 q -83 -338 -113 -334 q -35 -343 -54 -343 q 72 -275 32 -343 q 155 -4 112 -208 l 191 163 q 229 351 195 183 l 241 414 q 163 415 218 414 q 79 416 108 416 l 141 455 q 199 461 172 459 q 252 463 227 463 l 272 557 q 375 728 292 644 l 378 730 q 497 825 444 796 q 603 854 551 854 q 650 850 624 854 q 710 836 675 846 l 643 750 q 562 767 583 764 q 528 771 541 771 q 385 574 431 771 q 380 557 382 563 l 358 463 q 435 460 366 463 q 568 457 505 458 l 504 415 q 488 415 498 415 q 349 412 391 412 l 298 194 l 290 155 q 176 -241 213 -179 q 126 -304 161 -268 q 40 -380 90 -340 q -32 -425 -3 -416 q -111 -433 -62 -433 q -153 -432 -128 -433 q -212 -429 -178 -431 l -153 -326 z "},"≈":{"ha":1157,"x_min":121,"x_max":1038,"o":"m 1038 396 l 1038 307 q 901 232 965 256 q 774 208 836 208 q 578 255 707 208 q 382 302 450 302 q 267 278 326 302 q 121 195 208 254 l 121 283 q 259 358 194 334 q 383 383 323 383 q 588 336 458 383 q 775 289 717 289 q 893 313 833 289 q 1038 396 953 337 m 1038 633 l 1038 545 q 902 471 967 495 q 775 447 837 447 q 578 494 707 447 q 382 541 450 541 q 266 516 326 541 q 121 433 205 492 l 121 522 q 258 596 193 572 q 383 621 323 621 q 587 574 458 621 q 775 528 715 528 q 894 551 834 528 q 1038 633 954 575 z "},"Δ":{"ha":819,"x_min":20,"x_max":800,"o":"m 376 822 l 113 115 l 633 115 l 376 822 m 404 1015 l 424 1015 l 800 0 l 20 0 l 404 1015 z "},"∆":{"ha":819,"x_min":20,"x_max":800,"o":"m 376 822 l 113 115 l 633 115 l 376 822 m 404 1015 l 424 1015 l 800 0 l 20 0 l 404 1015 z "},"«":{"ha":633,"x_min":135,"x_max":553,"o":"m 372 538 q 299 420 349 499 q 225 301 250 341 q 254 184 241 245 q 277 58 267 124 l 216 22 q 180 147 201 82 q 135 286 160 212 q 247 440 193 368 q 353 581 300 512 l 372 538 m 553 539 q 476 419 515 477 q 396 307 437 361 q 427 199 412 257 q 460 72 443 142 l 393 28 q 356 162 376 96 q 313 293 336 228 q 432 441 377 374 q 536 570 486 509 l 553 539 z "},"»":{"ha":633,"x_min":111,"x_max":541,"o":"m 282 58 q 363 167 321 114 q 456 279 405 220 q 425 400 439 338 q 397 524 410 461 l 468 575 q 498 439 480 512 q 541 286 517 366 q 329 58 484 222 l 304 32 l 282 58 m 111 61 q 200 177 158 120 q 279 289 242 235 q 257 407 267 347 q 239 527 247 466 l 298 571 q 321 475 308 530 q 364 300 334 420 q 259 168 315 236 q 139 24 203 99 l 111 61 z "},"…":{"ha":1389,"x_min":91,"x_max":1196,"o":"m 172 -8 q 126 33 146 9 q 91 89 106 57 q 129 125 108 106 q 191 182 149 144 q 235 124 216 150 q 270 78 255 98 q 221 28 245 50 q 172 -8 197 7 m 635 -8 q 588 33 608 9 q 553 89 568 57 q 591 125 570 106 q 653 182 612 144 q 698 124 678 150 q 732 78 718 98 q 684 28 707 50 q 635 -8 660 7 m 1099 -8 q 1052 33 1072 9 q 1017 89 1032 57 q 1055 125 1034 106 q 1117 182 1076 144 q 1162 124 1142 150 q 1196 78 1181 98 q 1147 28 1171 50 q 1099 -8 1124 7 z "}," ":{"ha":627,"x_min":0,"x_max":0,"o":""},"À":{"ha":861,"x_min":-110,"x_max":859,"o":"m 232 164 q 98 22 158 64 q -26 -20 39 -20 q -63 -18 -43 -20 q -110 -12 -83 -16 q -84 41 -97 14 q -60 96 -72 68 q -33 94 -54 96 q 1 92 -11 92 q 89 109 47 92 q 164 160 132 127 q 287 312 203 200 q 467 562 371 423 l 533 660 q 562 701 545 676 q 581 730 578 726 l 471 746 q 420 751 439 749 q 387 753 401 753 q 274 718 313 753 q 235 615 235 682 q 242 557 235 590 q 265 479 250 524 q 220 448 245 465 q 157 410 195 431 q 138 471 144 443 q 132 522 132 499 q 161 639 132 581 q 249 753 191 697 q 353 827 300 804 q 468 850 406 850 q 504 848 481 850 q 555 842 526 846 l 598 836 q 623 833 612 834 q 637 832 633 832 q 681 843 662 832 q 726 885 701 854 l 750 871 q 728 725 739 801 q 710 567 718 649 l 688 355 q 674 209 677 257 q 671 129 671 161 q 685 79 671 94 q 737 65 700 65 q 752 66 739 65 q 776 68 765 67 l 859 74 l 827 24 l 785 16 q 682 -5 700 -2 l 587 -25 l 555 -7 q 549 17 551 5 q 547 41 547 28 q 549 88 547 58 q 555 151 551 117 l 571 285 l 472 285 q 417 281 469 285 q 314 273 365 277 l 232 164 m 363 342 q 399 338 380 340 q 419 336 418 336 l 476 336 l 578 336 q 586 415 581 373 q 597 513 591 457 l 623 708 q 553 608 600 675 q 363 342 432 430 m 726 925 q 645 1039 684 985 q 568 1140 605 1093 l 621 1168 q 634 1147 625 1161 q 766 932 713 1016 l 726 925 z "},"Ã":{"ha":861,"x_min":-110,"x_max":904,"o":"m 232 164 q 98 22 158 64 q -26 -20 39 -20 q -63 -18 -43 -20 q -110 -12 -83 -16 q -84 41 -97 14 q -60 96 -72 68 q -33 94 -54 96 q 1 92 -11 92 q 89 109 47 92 q 164 160 132 127 q 287 312 203 200 q 467 562 371 423 l 533 660 q 562 701 545 676 q 581 730 578 726 l 471 746 q 420 751 439 749 q 387 753 401 753 q 274 718 313 753 q 235 615 235 682 q 242 557 235 590 q 265 479 250 524 q 220 448 245 465 q 157 410 195 431 q 138 471 144 443 q 132 522 132 499 q 161 639 132 581 q 249 753 191 697 q 353 827 300 804 q 468 850 406 850 q 504 848 481 850 q 555 842 526 846 l 598 836 q 623 833 612 834 q 637 832 633 832 q 681 843 662 832 q 726 885 701 854 l 750 871 q 728 725 739 801 q 710 567 718 649 l 688 355 q 674 209 677 257 q 671 129 671 161 q 685 79 671 94 q 737 65 700 65 q 752 66 739 65 q 776 68 765 67 l 859 74 l 827 24 l 785 16 q 682 -5 700 -2 l 587 -25 l 555 -7 q 549 17 551 5 q 547 41 547 28 q 549 88 547 58 q 555 151 551 117 l 571 285 l 472 285 q 417 281 469 285 q 314 273 365 277 l 232 164 m 363 342 q 399 338 380 340 q 419 336 418 336 l 476 336 l 578 336 q 586 415 581 373 q 597 513 591 457 l 623 708 q 553 608 600 675 q 363 342 432 430 m 528 1006 l 517 1025 l 571 1071 q 596 1086 583 1081 q 623 1092 610 1092 q 656 1088 637 1092 q 694 1078 675 1084 l 738 1064 q 761 1058 749 1060 q 785 1055 773 1055 q 837 1067 812 1055 q 892 1105 861 1078 l 904 1086 l 865 1044 q 818 1004 839 1016 q 774 993 798 993 q 748 995 762 993 q 720 1003 734 998 l 675 1019 q 638 1030 657 1026 q 602 1034 618 1034 q 568 1027 585 1034 q 528 1006 551 1020 z "},"Õ":{"ha":846,"x_min":26,"x_max":822,"o":"m 26 271 q 77 512 26 396 q 216 708 127 627 q 382 811 288 773 q 566 848 476 848 q 755 774 688 848 q 822 564 822 701 q 783 349 822 455 q 675 165 743 242 q 495 29 600 79 q 286 -21 390 -21 q 96 57 165 -21 q 26 271 26 135 m 484 785 q 250 649 346 785 q 154 309 154 513 q 211 116 154 186 q 366 45 268 45 q 598 180 503 45 q 694 517 694 315 q 637 713 694 641 q 484 785 581 785 m 383 1006 l 372 1025 l 427 1071 q 452 1086 439 1081 q 478 1092 465 1092 q 512 1088 493 1092 q 550 1078 531 1084 l 593 1064 q 616 1058 604 1060 q 640 1055 629 1055 q 692 1067 667 1055 q 747 1105 717 1078 l 760 1086 l 721 1044 q 674 1004 694 1016 q 629 993 653 993 q 604 995 617 993 q 576 1003 590 998 l 530 1019 q 493 1030 513 1026 q 457 1034 474 1034 q 424 1027 441 1034 q 383 1006 406 1020 z "},"Œ":{"ha":1227,"x_min":24,"x_max":1204,"o":"m 981 -1 l 623 0 q 435 -13 550 0 q 278 -26 321 -26 q 87 39 151 -26 q 24 233 24 104 q 77 468 24 347 q 220 679 130 590 q 401 806 300 761 q 603 851 502 851 q 742 841 640 851 q 908 831 844 831 l 1189 832 q 1193 809 1192 821 q 1194 786 1194 798 q 1194 769 1194 774 q 1193 758 1194 763 q 1137 705 1164 729 q 1082 661 1109 682 q 1040 761 1072 735 q 920 786 1009 786 q 876 786 892 786 q 846 785 860 785 l 757 449 q 797 446 780 447 q 821 444 814 444 l 1011 444 q 946 400 985 412 q 791 387 906 387 l 742 387 l 656 60 q 715 58 679 59 q 779 57 766 57 q 925 66 882 57 q 996 96 968 75 q 1081 175 1033 124 q 1185 293 1130 226 q 1199 274 1194 282 q 1204 261 1204 267 q 1203 251 1204 256 q 1197 237 1201 245 l 1168 186 q 1118 92 1147 149 q 1026 -4 1069 -4 q 1003 -3 1019 -4 q 981 -1 988 -1 m 635 444 l 718 753 q 643 791 677 779 q 574 803 608 803 q 424 767 496 803 q 301 668 351 731 q 198 475 237 587 q 158 265 158 363 q 214 94 158 155 q 370 33 269 33 q 450 49 408 33 q 545 98 493 65 l 621 387 l 571 387 q 601 418 585 404 q 635 444 616 432 z "},"œ":{"ha":848,"x_min":16,"x_max":812,"o":"m 479 277 q 555 319 510 288 l 559 322 l 599 350 q 665 415 642 380 q 689 484 689 450 q 677 524 689 510 q 642 538 665 538 q 553 464 600 538 q 479 277 506 391 m 323 539 q 185 432 246 539 q 123 183 123 325 q 147 91 123 124 q 212 58 170 58 q 284 83 250 58 q 343 150 319 107 q 393 280 374 208 q 412 414 412 353 q 389 506 412 473 q 323 539 366 539 m 511 510 q 624 585 572 560 q 721 610 676 610 q 784 585 760 610 q 808 524 808 561 q 486 222 808 409 l 468 211 q 466 188 467 199 q 465 163 465 176 q 486 92 465 113 q 562 72 507 72 q 787 142 635 72 q 812 154 804 151 l 812 113 q 630 17 715 51 q 489 -17 545 -17 q 407 7 439 -17 q 363 81 375 32 q 248 10 309 37 q 146 -17 188 -17 q 50 27 83 -17 q 16 153 16 72 q 50 336 16 244 q 140 489 84 429 q 262 577 189 541 q 390 614 336 614 q 471 587 440 614 q 511 510 502 561 z "},"–":{"ha":694,"x_min":-11,"x_max":700,"o":"m 682 269 l -11 269 l 5 326 l 700 326 l 682 269 z "},"—":{"ha":1389,"x_min":-11,"x_max":1394,"o":"m 1394 326 l 1378 269 l -11 269 l 5 326 l 1394 326 z "},"“":{"ha":498,"x_min":135,"x_max":545,"o":"m 545 821 q 428 703 455 741 q 401 629 401 665 q 405 583 401 609 q 418 515 409 557 q 382 499 402 507 q 322 475 361 490 q 309 531 313 507 q 304 574 304 554 q 496 837 304 672 l 507 846 l 545 821 m 378 825 q 259 704 290 749 q 229 612 229 659 q 234 567 229 591 q 249 514 239 543 q 209 498 241 511 q 154 475 176 486 q 140 534 144 507 q 135 586 135 562 q 171 683 135 632 q 335 851 207 734 l 378 825 z "},"”":{"ha":498,"x_min":82,"x_max":524,"o":"m 293 492 q 386 620 355 562 q 418 721 418 677 q 415 755 418 734 q 404 806 412 775 q 435 819 414 810 q 513 852 486 840 q 521 808 518 827 q 524 772 524 789 q 484 652 524 717 q 335 471 445 587 l 293 492 m 82 488 l 87 492 q 225 721 225 624 q 221 759 225 738 q 207 810 216 780 q 250 830 226 819 q 304 852 273 840 q 322 789 316 817 q 328 741 328 762 q 161 509 328 656 q 121 472 135 485 l 82 488 z "},"‘":{"ha":314,"x_min":110,"x_max":364,"o":"m 364 822 q 240 687 267 731 q 214 597 214 644 q 218 556 214 578 q 232 504 222 534 q 176 480 199 491 q 132 458 153 470 q 114 515 118 497 q 110 550 110 534 q 156 672 110 608 q 332 851 203 737 l 364 822 z "},"’":{"ha":314,"x_min":83,"x_max":329,"o":"m 83 488 l 99 503 q 227 721 227 625 q 222 760 227 739 q 208 810 218 781 q 251 830 227 819 q 306 852 275 840 q 323 789 317 817 q 329 741 329 762 q 163 509 329 656 q 122 472 136 485 l 83 488 z "},"÷":{"ha":1157,"x_min":172,"x_max":985,"o":"m 579 248 q 634 224 611 248 q 657 170 657 201 q 634 115 657 138 q 579 92 612 92 q 524 114 547 92 q 501 170 501 137 q 524 225 501 202 q 579 248 547 248 m 172 454 l 985 454 l 985 375 l 172 375 l 172 454 m 579 736 q 634 713 612 736 q 657 659 657 690 q 634 603 657 626 q 579 581 612 581 q 524 603 546 581 q 501 659 501 626 q 524 713 501 690 q 579 736 547 736 z "},"◊":{"ha":686,"x_min":4,"x_max":682,"o":"m 343 956 l 82 401 l 343 -158 l 604 401 l 343 956 m 343 1121 l 682 401 l 343 -323 l 4 401 l 343 1121 z "},"ÿ":{"ha":591,"x_min":-149,"x_max":579,"o":"m 415 -10 q 406 -50 412 -24 q 306 -273 371 -197 q 166 -400 229 -365 q 25 -435 104 -435 q -125 -418 -14 -435 q -149 -414 -141 -415 l -96 -321 q 0 -334 -38 -330 q 65 -338 37 -338 q 175 -322 132 -338 q 237 -277 219 -307 q 298 -65 252 -254 q 318 12 311 -16 l 351 147 q 208 51 269 87 q 92 -8 147 15 l 61 14 q 47 54 52 37 q 43 86 43 71 q 58 177 43 115 q 64 199 62 193 l 121 428 q 123 441 122 431 q 123 467 123 452 q 118 486 123 479 q 104 493 113 493 q 93 490 102 493 q 70 482 83 487 l 14 463 l 11 507 q 150 578 87 549 q 244 616 212 608 l 262 603 q 257 576 260 594 q 252 547 254 557 l 175 243 q 166 198 169 220 q 163 158 163 176 q 171 121 163 136 q 191 107 178 107 q 274 153 207 107 l 276 154 l 371 221 l 458 566 l 579 614 q 519 391 548 500 q 464 179 490 283 l 415 -10 m 279 730 q 255 764 267 745 q 228 808 242 783 l 309 868 q 336 829 323 848 q 359 791 349 810 q 320 758 340 772 q 279 730 300 743 m 464 737 q 445 765 455 750 q 416 808 435 779 q 446 834 430 821 q 494 871 462 847 q 520 839 507 856 q 547 799 532 822 q 511 765 531 780 q 464 737 490 749 z "},"Ÿ":{"ha":907,"x_min":4,"x_max":1064,"o":"m 486 113 q 525 215 513 164 q 536 351 536 267 q 487 658 536 552 q 343 764 437 764 q 214 714 262 764 q 165 581 165 664 q 173 508 165 547 q 199 416 181 469 q 144 383 172 399 q 86 353 116 368 q 61 434 69 397 q 53 503 53 470 q 85 624 53 566 q 184 741 117 682 q 307 821 246 793 q 421 848 367 848 q 585 759 529 848 q 640 497 640 669 q 640 468 640 484 q 637 420 640 452 l 772 685 q 887 847 826 791 q 1010 903 947 903 q 1039 902 1027 903 q 1063 899 1051 901 q 1036 830 1055 877 q 1008 760 1018 783 q 968 770 986 767 q 933 774 949 774 q 869 748 896 774 q 800 636 843 723 l 596 221 q 568 163 586 201 q 418 -103 473 -35 q 292 -204 361 -174 q 113 -235 224 -235 q 55 -234 80 -235 q 4 -232 31 -233 l 57 -119 q 110 -122 83 -121 q 172 -123 136 -123 q 340 -92 283 -123 q 450 40 398 -61 l 486 113 m 519 968 q 495 1002 508 983 q 469 1046 483 1021 l 550 1105 q 577 1066 564 1085 q 600 1029 589 1048 q 561 995 581 1010 q 519 968 541 980 m 705 975 q 686 1002 696 987 q 657 1046 676 1017 q 687 1071 671 1058 q 735 1108 703 1084 q 761 1076 748 1093 q 788 1036 773 1059 q 751 1002 772 1017 q 705 975 731 987 z "},"⁄":{"ha":232,"x_min":-260,"x_max":446,"o":"m 175 450 l -29 113 q -84 18 -49 80 q -176 -147 -119 -45 l -260 -147 q -50 182 -178 -30 l -32 212 l 212 625 l 220 638 q 364 885 299 769 l 446 885 q 236 551 377 784 q 175 450 196 484 z "},"∕":{"ha":232,"x_min":-260,"x_max":446,"o":"m 175 450 l -29 113 q -84 18 -49 80 q -176 -147 -119 -45 l -260 -147 q -50 182 -178 -30 l -32 212 l 212 625 l 220 638 q 364 885 299 769 l 446 885 q 236 551 377 784 q 175 450 196 484 z "},"¤":{"ha":842,"x_min":58,"x_max":785,"o":"m 422 814 q 272 751 334 814 q 210 602 210 689 q 272 450 210 513 q 422 387 334 387 q 572 450 510 387 q 635 602 635 513 q 573 751 635 689 q 422 814 511 814 m 107 962 l 248 822 q 331 868 288 853 q 421 884 373 884 q 513 868 469 884 q 597 822 557 853 l 736 962 l 785 913 l 646 774 q 689 692 675 735 q 704 600 704 648 q 689 508 704 552 q 646 427 675 465 l 785 288 l 736 237 l 597 378 q 515 333 559 348 q 421 318 471 318 q 329 333 371 318 q 248 378 286 347 l 107 237 l 58 288 l 199 427 q 154 509 169 466 q 139 600 139 553 q 154 691 139 647 q 199 774 169 734 l 58 913 l 107 962 z "},"‹":{"ha":457,"x_min":135,"x_max":361,"o":"m 361 522 q 286 419 321 470 q 218 315 251 368 q 245 201 230 264 q 278 69 260 139 l 224 26 q 180 164 203 96 q 135 300 158 232 q 239 433 184 366 q 355 571 294 501 l 361 522 z "},"›":{"ha":457,"x_min":109,"x_max":335,"o":"m 109 75 q 183 178 148 127 q 251 281 218 230 q 248 297 250 287 q 193 528 218 429 l 248 571 q 295 419 275 481 q 335 298 315 357 q 223 155 277 222 q 115 26 170 88 l 109 75 z "},"":{"ha":704,"x_min":-245,"x_max":736,"o":"m 292 456 l 195 77 q 122 -160 151 -90 q 53 -282 92 -231 q -11 -355 23 -321 q -75 -411 -44 -389 q -115 -429 -93 -424 q -182 -435 -136 -435 q -212 -434 -197 -435 q -245 -433 -228 -434 l -203 -339 l -142 -338 q -114 -337 -132 -337 q -16 -298 -45 -336 q 23 -205 0 -280 q 98 87 45 -130 l 191 460 l 22 464 l 82 504 l 201 509 q 209 542 204 520 q 342 857 260 771 q 481 967 415 933 q 624 1002 548 1002 q 666 1000 640 1002 q 736 994 691 998 l 671 907 q 620 914 645 911 q 574 917 595 917 q 474 901 515 917 q 415 856 433 884 q 374 756 395 823 q 306 507 353 690 l 340 507 q 426 521 381 507 q 505 559 470 535 q 532 581 515 566 q 607 616 576 616 l 612 616 l 623 600 q 606 519 621 574 q 599 494 601 502 l 539 273 q 516 182 522 208 q 511 140 511 156 q 518 116 511 127 q 534 106 526 106 q 578 120 546 106 q 703 182 611 135 l 703 131 q 507 14 559 39 q 428 -12 455 -12 l 423 -12 q 411 -5 416 -9 q 403 5 406 0 q 394 54 397 35 q 392 89 392 73 q 403 146 392 103 l 404 153 l 475 420 q 478 433 476 425 q 485 461 485 457 q 483 473 485 469 q 478 476 481 476 q 420 466 467 476 q 338 456 374 456 l 292 456 z "},"ﬁ":{"ha":704,"x_min":-245,"x_max":736,"o":"m 292 456 l 195 77 q 122 -160 151 -90 q 53 -282 92 -231 q -11 -355 23 -321 q -75 -411 -44 -389 q -115 -429 -93 -424 q -182 -435 -136 -435 q -212 -434 -197 -435 q -245 -433 -228 -434 l -203 -339 l -142 -338 q -114 -337 -132 -337 q -16 -298 -45 -336 q 23 -205 0 -280 q 98 87 45 -130 l 191 460 l 22 464 l 82 504 l 201 509 q 209 542 204 520 q 342 857 260 771 q 481 967 415 933 q 624 1002 548 1002 q 666 1000 640 1002 q 736 994 691 998 l 671 907 q 620 914 645 911 q 574 917 595 917 q 474 901 515 917 q 415 856 433 884 q 374 756 395 823 q 306 507 353 690 l 340 507 q 426 521 381 507 q 505 559 470 535 q 532 581 515 566 q 607 616 576 616 l 612 616 l 623 600 q 606 519 621 574 q 599 494 601 502 l 539 273 q 516 182 522 208 q 511 140 511 156 q 518 116 511 127 q 534 106 526 106 q 578 120 546 106 q 703 182 611 135 l 703 131 q 507 14 559 39 q 428 -12 455 -12 l 423 -12 q 411 -5 416 -9 q 403 5 406 0 q 394 54 397 35 q 392 89 392 73 q 403 146 392 103 l 404 153 l 475 420 q 478 433 476 425 q 485 461 485 457 q 483 473 485 469 q 478 476 481 476 q 420 466 467 476 q 338 456 374 456 l 292 456 z "},"":{"ha":685,"x_min":-245,"x_max":951,"o":"m 465 498 l 412 460 l 292 456 l 195 77 q 122 -160 151 -90 q 53 -282 92 -231 q -11 -355 23 -321 q -75 -411 -44 -389 q -115 -429 -93 -424 q -182 -435 -136 -435 q -212 -434 -197 -435 q -245 -433 -228 -434 l -203 -339 l -142 -338 q -114 -337 -132 -337 q -16 -298 -45 -336 q 23 -205 0 -280 q 98 87 45 -130 l 191 460 l 22 464 l 82 504 l 201 513 q 280 752 248 682 q 354 860 313 823 q 470 937 409 908 q 579 965 531 965 q 635 959 600 965 q 725 939 669 953 q 789 984 763 972 q 852 996 814 996 q 889 995 864 996 q 951 991 913 994 l 884 906 q 840 914 857 911 q 812 917 824 917 q 672 724 725 917 q 652 650 659 677 l 534 237 q 523 189 527 215 q 519 147 519 163 q 530 114 519 126 q 557 102 540 102 q 615 128 564 102 l 625 134 l 707 176 l 700 129 q 580 54 641 90 q 458 -12 519 19 l 425 -7 q 402 38 410 16 q 395 82 395 60 q 403 144 395 106 q 440 283 411 182 l 557 692 q 562 709 559 699 q 636 867 594 825 q 576 891 602 884 q 528 899 551 899 q 315 530 413 899 l 310 507 l 465 498 z "},"ﬂ":{"ha":685,"x_min":-245,"x_max":951,"o":"m 465 498 l 412 460 l 292 456 l 195 77 q 122 -160 151 -90 q 53 -282 92 -231 q -11 -355 23 -321 q -75 -411 -44 -389 q -115 -429 -93 -424 q -182 -435 -136 -435 q -212 -434 -197 -435 q -245 -433 -228 -434 l -203 -339 l -142 -338 q -114 -337 -132 -337 q -16 -298 -45 -336 q 23 -205 0 -280 q 98 87 45 -130 l 191 460 l 22 464 l 82 504 l 201 513 q 280 752 248 682 q 354 860 313 823 q 470 937 409 908 q 579 965 531 965 q 635 959 600 965 q 725 939 669 953 q 789 984 763 972 q 852 996 814 996 q 889 995 864 996 q 951 991 913 994 l 884 906 q 840 914 857 911 q 812 917 824 917 q 672 724 725 917 q 652 650 659 677 l 534 237 q 523 189 527 215 q 519 147 519 163 q 530 114 519 126 q 557 102 540 102 q 615 128 564 102 l 625 134 l 707 176 l 700 129 q 580 54 641 90 q 458 -12 519 19 l 425 -7 q 402 38 410 16 q 395 82 395 60 q 403 144 395 106 q 440 283 411 182 l 557 692 q 562 709 559 699 q 636 867 594 825 q 576 891 602 884 q 528 899 551 899 q 315 530 413 899 l 310 507 l 465 498 z "},"‡":{"ha":607,"x_min":43,"x_max":575,"o":"m 258 386 l 345 395 q 306 234 331 334 l 302 216 q 384 220 353 218 q 440 221 414 221 l 472 221 l 443 154 l 403 154 q 297 152 369 154 l 289 151 q 271 68 279 106 q 256 -5 262 30 l 167 -14 q 210 137 178 33 l 214 151 q 155 149 196 151 q 92 147 115 147 l 43 147 l 74 212 l 135 212 q 170 213 151 212 q 227 216 189 214 l 258 386 m 359 446 l 273 437 q 306 572 285 488 q 317 616 313 603 q 244 611 279 613 q 178 610 210 610 l 146 610 l 174 677 q 204 677 183 677 q 236 676 226 676 q 281 677 258 676 q 329 680 304 678 q 347 760 339 722 q 363 836 355 799 l 452 846 q 433 777 444 814 q 404 681 422 739 q 470 684 436 683 q 542 685 505 685 l 575 685 l 545 618 q 492 619 520 618 q 484 619 485 619 q 448 619 467 619 q 392 616 430 618 l 359 446 z "},"·":{"ha":314,"x_min":72,"x_max":241,"o":"m 140 334 q 109 375 125 353 q 72 432 93 398 l 175 511 q 204 463 187 486 q 241 418 220 439 l 207 380 q 176 353 193 364 q 140 334 160 341 z "},"∙":{"ha":314,"x_min":72,"x_max":241,"o":"m 140 334 q 109 375 125 353 q 72 432 93 398 l 175 511 q 204 463 187 486 q 241 418 220 439 l 207 380 q 176 353 193 364 q 140 334 160 341 z "},"‚":{"ha":314,"x_min":-60,"x_max":164,"o":"m -60 -147 q -41 -125 -54 -140 q 65 89 65 5 q 62 124 65 106 q 52 167 59 142 q 101 188 76 178 q 154 210 126 199 q 162 151 160 171 q 164 117 164 132 q 129 6 164 62 q -24 -167 94 -50 l -60 -147 z "},"„":{"ha":498,"x_min":-47,"x_max":351,"o":"m -47 -149 q 52 -12 27 -59 q 77 79 77 36 q 73 118 77 98 q 61 161 69 138 q 128 192 106 182 q 168 210 150 201 q 176 159 174 175 q 178 132 178 144 q 132 -14 178 58 q -18 -174 86 -86 l -47 -149 m 126 -160 q 220 -27 195 -77 q 244 71 244 23 q 242 110 244 89 q 233 157 239 130 q 289 182 263 171 q 339 203 315 193 q 348 160 345 178 q 351 134 351 143 q 171 -172 351 41 l 165 -178 l 126 -160 z "},"‰":{"ha":1362,"x_min":53,"x_max":1310,"o":"m 292 783 q 185 701 233 783 q 138 514 138 619 q 156 438 138 465 q 207 411 174 411 q 314 495 267 411 q 361 686 361 579 q 342 758 361 732 q 292 783 324 783 m 432 793 q 441 763 439 778 q 444 729 444 748 q 425 601 444 667 q 375 488 406 534 q 272 392 338 431 q 154 353 206 353 q 79 388 106 353 q 53 486 53 422 q 143 737 53 631 q 349 843 233 843 q 414 838 354 843 q 530 833 475 833 q 619 840 587 833 q 668 860 651 846 q 745 952 692 880 q 768 983 760 972 q 803 967 785 974 q 846 954 821 960 q 702 739 768 840 q 599 576 636 638 l 424 286 q 275 17 338 144 q 171 -227 212 -111 l 117 -142 q 211 33 165 -48 q 298 183 256 115 l 540 576 q 557 604 545 585 q 675 802 624 713 q 605 795 640 798 q 536 793 570 793 l 432 793 m 736 404 q 630 322 677 404 q 582 135 582 240 q 600 58 582 85 q 650 32 617 32 q 758 116 711 32 q 804 307 804 200 q 786 378 804 353 q 736 404 768 404 m 496 104 q 523 248 496 176 q 593 366 549 319 q 689 435 631 407 q 789 464 747 464 q 862 432 837 464 q 886 340 886 401 q 864 202 886 270 q 802 83 841 134 q 703 5 764 37 q 597 -28 642 -28 q 522 6 549 -28 q 496 104 496 41 m 1158 404 q 1052 322 1100 404 q 1004 135 1004 240 q 1022 59 1004 85 q 1074 32 1040 32 q 1181 116 1134 32 q 1227 307 1227 200 q 1209 378 1227 353 q 1158 404 1191 404 m 920 104 q 946 248 920 176 q 1017 366 973 319 q 1112 435 1055 407 q 1211 464 1169 464 q 1284 432 1259 464 q 1310 340 1310 401 q 1287 202 1310 271 q 1223 83 1264 134 q 1126 4 1187 37 q 1021 -28 1065 -28 q 946 6 972 -28 q 920 104 920 41 z "},"Â":{"ha":861,"x_min":-110,"x_max":859,"o":"m 232 164 q 98 22 158 64 q -26 -20 39 -20 q -63 -18 -43 -20 q -110 -12 -83 -16 q -84 41 -97 14 q -60 96 -72 68 q -33 94 -54 96 q 1 92 -11 92 q 89 109 47 92 q 164 160 132 127 q 287 312 203 200 q 467 562 371 423 l 533 660 q 562 701 545 676 q 581 730 578 726 l 471 746 q 420 751 439 749 q 387 753 401 753 q 274 718 313 753 q 235 615 235 682 q 242 557 235 590 q 265 479 250 524 q 220 448 245 465 q 157 410 195 431 q 138 471 144 443 q 132 522 132 499 q 161 639 132 581 q 249 753 191 697 q 353 827 300 804 q 468 850 406 850 q 504 848 481 850 q 555 842 526 846 l 598 836 q 623 833 612 834 q 637 832 633 832 q 681 843 662 832 q 726 885 701 854 l 750 871 q 728 725 739 801 q 710 567 718 649 l 688 355 q 674 209 677 257 q 671 129 671 161 q 685 79 671 94 q 737 65 700 65 q 752 66 739 65 q 776 68 765 67 l 859 74 l 827 24 l 785 16 q 682 -5 700 -2 l 587 -25 l 555 -7 q 549 17 551 5 q 547 41 547 28 q 549 88 547 58 q 555 151 551 117 l 571 285 l 472 285 q 417 281 469 285 q 314 273 365 277 l 232 164 m 363 342 q 399 338 380 340 q 419 336 418 336 l 476 336 l 578 336 q 586 415 581 373 q 597 513 591 457 l 623 708 q 553 608 600 675 q 363 342 432 430 m 547 924 l 536 957 q 676 1117 587 1014 l 714 1161 l 760 1165 l 840 956 l 791 921 l 721 1072 q 629 997 671 1033 q 547 924 587 960 z "},"Ê":{"ha":958,"x_min":35,"x_max":922,"o":"m 65 0 l 113 49 q 231 110 191 66 q 298 267 270 153 l 329 393 l 283 395 q 304 414 290 401 q 346 453 332 441 l 428 778 l 410 778 q 216 734 282 778 q 150 607 150 690 q 156 555 150 582 q 174 496 161 528 q 108 455 134 471 q 60 427 82 439 q 41 488 47 461 q 35 539 35 515 q 156 745 35 661 q 464 829 278 829 l 468 829 l 559 856 l 560 829 q 665 830 606 830 q 860 831 724 831 q 894 811 879 824 q 922 775 909 798 q 871 727 897 749 q 818 685 846 705 l 787 737 q 760 772 772 764 q 707 781 747 781 l 546 781 l 461 457 q 506 453 482 454 q 575 452 530 452 l 724 452 l 672 408 l 507 397 q 498 397 504 397 q 444 390 465 393 l 429 335 l 428 330 q 253 68 385 172 l 699 68 q 772 80 757 68 q 787 127 787 93 q 785 148 787 136 q 779 179 783 161 l 895 220 q 896 207 895 214 q 896 191 896 200 q 856 97 896 141 q 707 -14 816 52 q 696 -15 701 -15 q 682 -16 692 -16 l 656 -16 l 65 0 m 522 924 l 511 957 q 651 1117 562 1014 l 689 1161 l 734 1165 l 815 956 l 766 921 l 696 1072 q 604 997 646 1033 q 522 924 562 960 z "},"Á":{"ha":861,"x_min":-110,"x_max":860,"o":"m 232 164 q 98 22 158 64 q -26 -20 39 -20 q -63 -18 -43 -20 q -110 -12 -83 -16 q -84 41 -97 14 q -60 96 -72 68 q -33 94 -54 96 q 1 92 -11 92 q 89 109 47 92 q 164 160 132 127 q 287 312 203 200 q 467 562 371 423 l 533 660 q 562 701 545 676 q 581 730 578 726 l 471 746 q 420 751 439 749 q 387 753 401 753 q 274 718 313 753 q 235 615 235 682 q 242 557 235 590 q 265 479 250 524 q 220 448 245 465 q 157 410 195 431 q 138 471 144 443 q 132 522 132 499 q 161 639 132 581 q 249 753 191 697 q 353 827 300 804 q 468 850 406 850 q 504 848 481 850 q 555 842 526 846 l 598 836 q 623 833 612 834 q 637 832 633 832 q 681 843 662 832 q 726 885 701 854 l 750 871 q 728 725 739 801 q 710 567 718 649 l 688 355 q 674 209 677 257 q 671 129 671 161 q 685 79 671 94 q 737 65 700 65 q 752 66 739 65 q 776 68 765 67 l 859 74 l 827 24 l 785 16 q 682 -5 700 -2 l 587 -25 l 555 -7 q 549 17 551 5 q 547 41 547 28 q 549 88 547 58 q 555 151 551 117 l 571 285 l 472 285 q 417 281 469 285 q 314 273 365 277 l 232 164 m 363 342 q 399 338 380 340 q 419 336 418 336 l 476 336 l 578 336 q 586 415 581 373 q 597 513 591 457 l 623 708 q 553 608 600 675 q 363 342 432 430 m 640 932 q 716 1051 677 993 q 798 1165 755 1109 l 860 1147 q 763 1032 807 1085 q 676 929 718 979 l 640 932 z "},"Ë":{"ha":958,"x_min":35,"x_max":922,"o":"m 65 0 l 113 49 q 231 110 191 66 q 298 267 270 153 l 329 393 l 283 395 q 304 414 290 401 q 346 453 332 441 l 428 778 l 410 778 q 216 734 282 778 q 150 607 150 690 q 156 555 150 582 q 174 496 161 528 q 108 455 134 471 q 60 427 82 439 q 41 488 47 461 q 35 539 35 515 q 156 745 35 661 q 464 829 278 829 l 468 829 l 559 856 l 560 829 q 665 830 606 830 q 860 831 724 831 q 894 811 879 824 q 922 775 909 798 q 871 727 897 749 q 818 685 846 705 l 787 737 q 760 772 772 764 q 707 781 747 781 l 546 781 l 461 457 q 506 453 482 454 q 575 452 530 452 l 724 452 l 672 408 l 507 397 q 498 397 504 397 q 444 390 465 393 l 429 335 l 428 330 q 253 68 385 172 l 699 68 q 772 80 757 68 q 787 127 787 93 q 785 148 787 136 q 779 179 783 161 l 895 220 q 896 207 895 214 q 896 191 896 200 q 856 97 896 141 q 707 -14 816 52 q 696 -15 701 -15 q 682 -16 692 -16 l 656 -16 l 65 0 m 564 968 q 539 1002 552 983 q 513 1046 527 1021 l 594 1105 q 621 1066 608 1085 q 644 1029 633 1048 q 605 995 625 1010 q 564 968 585 980 m 749 975 q 730 1002 740 987 q 701 1046 720 1017 q 731 1071 715 1058 q 779 1108 747 1084 q 805 1076 792 1093 q 832 1036 817 1059 q 795 1002 816 1017 q 749 975 775 987 z "},"È":{"ha":958,"x_min":35,"x_max":922,"o":"m 65 0 l 113 49 q 231 110 191 66 q 298 267 270 153 l 329 393 l 283 395 q 304 414 290 401 q 346 453 332 441 l 428 778 l 410 778 q 216 734 282 778 q 150 607 150 690 q 156 555 150 582 q 174 496 161 528 q 108 455 134 471 q 60 427 82 439 q 41 488 47 461 q 35 539 35 515 q 156 745 35 661 q 464 829 278 829 l 468 829 l 559 856 l 560 829 q 665 830 606 830 q 860 831 724 831 q 894 811 879 824 q 922 775 909 798 q 871 727 897 749 q 818 685 846 705 l 787 737 q 760 772 772 764 q 707 781 747 781 l 546 781 l 461 457 q 506 453 482 454 q 575 452 530 452 l 724 452 l 672 408 l 507 397 q 498 397 504 397 q 444 390 465 393 l 429 335 l 428 330 q 253 68 385 172 l 699 68 q 772 80 757 68 q 787 127 787 93 q 785 148 787 136 q 779 179 783 161 l 895 220 q 896 207 895 214 q 896 191 896 200 q 856 97 896 141 q 707 -14 816 52 q 696 -15 701 -15 q 682 -16 692 -16 l 656 -16 l 65 0 m 701 925 q 620 1039 659 985 q 543 1140 580 1093 l 596 1168 q 609 1147 600 1161 q 741 932 688 1016 l 701 925 z "},"Í":{"ha":602,"x_min":26,"x_max":637,"o":"m 81 58 q 117 60 85 58 q 174 64 149 62 q 279 254 239 92 l 282 265 l 330 468 l 404 768 q 390 769 397 769 q 370 770 383 770 q 227 731 274 770 q 179 614 179 692 q 182 571 179 595 q 191 517 185 547 l 74 489 q 71 512 72 500 q 71 542 71 524 q 90 636 71 593 q 151 724 109 679 q 278 806 208 781 q 471 831 348 831 l 572 831 l 515 765 l 427 400 l 425 393 q 239 58 368 154 l 304 58 q 440 67 391 58 q 534 97 489 77 l 534 90 q 430 20 492 43 q 279 -3 367 -3 q 236 -1 266 -3 q 191 0 206 0 l 26 0 l 81 58 m 418 932 q 494 1051 455 993 q 575 1165 532 1109 l 637 1147 q 540 1032 585 1085 q 454 929 496 979 l 418 932 z "},"Î":{"ha":602,"x_min":26,"x_max":618,"o":"m 81 58 q 117 60 85 58 q 174 64 149 62 q 279 254 239 92 l 282 265 l 330 468 l 404 768 q 390 769 397 769 q 370 770 383 770 q 227 731 274 770 q 179 614 179 692 q 182 571 179 595 q 191 517 185 547 l 74 489 q 71 512 72 500 q 71 542 71 524 q 90 636 71 593 q 151 724 109 679 q 278 806 208 781 q 471 831 348 831 l 572 831 l 515 765 l 427 400 l 425 393 q 239 58 368 154 l 304 58 q 440 67 391 58 q 534 97 489 77 l 534 90 q 430 20 492 43 q 279 -3 367 -3 q 236 -1 266 -3 q 191 0 206 0 l 26 0 l 81 58 m 325 924 l 314 957 q 454 1117 364 1014 l 492 1161 l 537 1165 l 618 956 l 569 921 l 498 1072 q 407 997 449 1033 q 325 924 364 960 z "},"Ï":{"ha":602,"x_min":26,"x_max":635,"o":"m 81 58 q 117 60 85 58 q 174 64 149 62 q 279 254 239 92 l 282 265 l 330 468 l 404 768 q 390 769 397 769 q 370 770 383 770 q 227 731 274 770 q 179 614 179 692 q 182 571 179 595 q 191 517 185 547 l 74 489 q 71 512 72 500 q 71 542 71 524 q 90 636 71 593 q 151 724 109 679 q 278 806 208 781 q 471 831 348 831 l 572 831 l 515 765 l 427 400 l 425 393 q 239 58 368 154 l 304 58 q 440 67 391 58 q 534 97 489 77 l 534 90 q 430 20 492 43 q 279 -3 367 -3 q 236 -1 266 -3 q 191 0 206 0 l 26 0 l 81 58 m 366 968 q 342 1002 355 983 q 315 1046 330 1021 l 397 1105 q 424 1066 411 1085 q 447 1029 436 1048 q 408 995 428 1010 q 366 968 388 980 m 551 975 q 533 1002 543 987 q 504 1046 523 1017 q 533 1071 517 1058 q 582 1108 549 1084 q 607 1076 595 1093 q 635 1036 620 1059 q 598 1002 618 1017 q 551 975 578 987 z "},"Ì":{"ha":602,"x_min":26,"x_max":572,"o":"m 81 58 q 117 60 85 58 q 174 64 149 62 q 279 254 239 92 l 282 265 l 330 468 l 404 768 q 390 769 397 769 q 370 770 383 770 q 227 731 274 770 q 179 614 179 692 q 182 571 179 595 q 191 517 185 547 l 74 489 q 71 512 72 500 q 71 542 71 524 q 90 636 71 593 q 151 724 109 679 q 278 806 208 781 q 471 831 348 831 l 572 831 l 515 765 l 427 400 l 425 393 q 239 58 368 154 l 304 58 q 440 67 391 58 q 534 97 489 77 l 534 90 q 430 20 492 43 q 279 -3 367 -3 q 236 -1 266 -3 q 191 0 206 0 l 26 0 l 81 58 m 504 925 q 422 1039 462 985 q 346 1140 382 1093 l 399 1168 q 412 1147 403 1161 q 543 932 491 1016 l 504 925 z "},"Ó":{"ha":846,"x_min":26,"x_max":822,"o":"m 26 271 q 77 512 26 396 q 216 708 127 627 q 382 811 288 773 q 566 848 476 848 q 755 774 688 848 q 822 564 822 701 q 783 349 822 455 q 675 165 743 242 q 495 29 600 79 q 286 -21 390 -21 q 96 57 165 -21 q 26 271 26 135 m 484 785 q 250 649 346 785 q 154 309 154 513 q 211 116 154 186 q 366 45 268 45 q 598 180 503 45 q 694 517 694 315 q 637 713 694 641 q 484 785 581 785 m 496 932 q 572 1051 533 993 q 653 1165 610 1109 l 715 1147 q 618 1032 663 1085 q 532 929 574 979 l 496 932 z "},"Ô":{"ha":846,"x_min":26,"x_max":822,"o":"m 26 271 q 77 512 26 396 q 216 708 127 627 q 382 811 288 773 q 566 848 476 848 q 755 774 688 848 q 822 564 822 701 q 783 349 822 455 q 675 165 743 242 q 495 29 600 79 q 286 -21 390 -21 q 96 57 165 -21 q 26 271 26 135 m 484 785 q 250 649 346 785 q 154 309 154 513 q 211 116 154 186 q 366 45 268 45 q 598 180 503 45 q 694 517 694 315 q 637 713 694 641 q 484 785 581 785 m 403 924 l 392 957 q 532 1117 442 1014 l 570 1161 l 615 1165 l 696 956 l 647 921 l 576 1072 q 485 997 527 1033 q 403 924 442 960 z "},"Ò":{"ha":846,"x_min":26,"x_max":822,"o":"m 26 271 q 77 512 26 396 q 216 708 127 627 q 382 811 288 773 q 566 848 476 848 q 755 774 688 848 q 822 564 822 701 q 783 349 822 455 q 675 165 743 242 q 495 29 600 79 q 286 -21 390 -21 q 96 57 165 -21 q 26 271 26 135 m 484 785 q 250 649 346 785 q 154 309 154 513 q 211 116 154 186 q 366 45 268 45 q 598 180 503 45 q 694 517 694 315 q 637 713 694 641 q 484 785 581 785 m 582 925 q 500 1039 540 985 q 424 1140 460 1093 l 477 1168 q 490 1147 481 1161 q 621 932 569 1016 l 582 925 z "},"Ú":{"ha":1025,"x_min":43,"x_max":978,"o":"m 668 75 l 607 50 l 597 46 q 353 -24 427 -24 q 232 26 278 -24 q 186 155 186 75 q 241 386 186 250 q 419 725 297 522 q 358 745 387 739 q 300 751 329 751 q 182 716 225 751 q 139 621 139 681 q 150 552 139 587 q 186 468 160 517 q 138 429 163 449 q 83 389 112 410 q 53 459 62 426 q 43 524 43 492 q 74 643 43 583 q 165 760 105 703 q 258 823 211 803 q 363 843 305 843 q 444 833 401 843 q 490 823 486 823 q 516 829 501 824 q 550 844 530 834 l 559 822 q 376 492 446 667 q 307 197 307 317 q 343 95 307 132 q 441 57 378 57 q 564 83 494 57 q 681 147 633 109 q 744 400 711 275 q 810 650 777 526 l 831 728 q 834 741 833 735 q 835 751 835 747 q 833 768 835 760 q 829 775 831 775 l 747 782 l 781 825 q 850 836 813 829 q 942 854 886 842 l 978 846 l 957 770 q 888 513 899 560 l 868 432 q 807 179 821 243 q 793 92 793 115 q 806 55 793 65 q 854 45 820 45 q 954 56 878 45 l 962 57 l 937 12 q 818 -9 877 0 q 700 -24 758 -18 l 672 -5 q 668 20 669 7 q 667 47 667 33 q 667 64 667 58 q 668 75 667 70 m 659 932 q 734 1051 696 993 q 816 1165 773 1109 l 878 1147 q 781 1032 825 1085 q 694 929 736 979 l 659 932 z "},"Û":{"ha":1025,"x_min":43,"x_max":978,"o":"m 668 75 l 607 50 l 597 46 q 353 -24 427 -24 q 232 26 278 -24 q 186 155 186 75 q 241 386 186 250 q 419 725 297 522 q 358 745 387 739 q 300 751 329 751 q 182 716 225 751 q 139 621 139 681 q 150 552 139 587 q 186 468 160 517 q 138 429 163 449 q 83 389 112 410 q 53 459 62 426 q 43 524 43 492 q 74 643 43 583 q 165 760 105 703 q 258 823 211 803 q 363 843 305 843 q 444 833 401 843 q 490 823 486 823 q 516 829 501 824 q 550 844 530 834 l 559 822 q 376 492 446 667 q 307 197 307 317 q 343 95 307 132 q 441 57 378 57 q 564 83 494 57 q 681 147 633 109 q 744 400 711 275 q 810 650 777 526 l 831 728 q 834 741 833 735 q 835 751 835 747 q 833 768 835 760 q 829 775 831 775 l 747 782 l 781 825 q 850 836 813 829 q 942 854 886 842 l 978 846 l 957 770 q 888 513 899 560 l 868 432 q 807 179 821 243 q 793 92 793 115 q 806 55 793 65 q 854 45 820 45 q 954 56 878 45 l 962 57 l 937 12 q 818 -9 877 0 q 700 -24 758 -18 l 672 -5 q 668 20 669 7 q 667 47 667 33 q 667 64 667 58 q 668 75 667 70 m 566 924 l 555 957 q 694 1117 605 1014 l 732 1161 l 778 1165 l 859 956 l 810 921 l 739 1072 q 647 997 690 1033 q 566 924 605 960 z "},"Ù":{"ha":1025,"x_min":43,"x_max":978,"o":"m 668 75 l 607 50 l 597 46 q 353 -24 427 -24 q 232 26 278 -24 q 186 155 186 75 q 241 386 186 250 q 419 725 297 522 q 358 745 387 739 q 300 751 329 751 q 182 716 225 751 q 139 621 139 681 q 150 552 139 587 q 186 468 160 517 q 138 429 163 449 q 83 389 112 410 q 53 459 62 426 q 43 524 43 492 q 74 643 43 583 q 165 760 105 703 q 258 823 211 803 q 363 843 305 843 q 444 833 401 843 q 490 823 486 823 q 516 829 501 824 q 550 844 530 834 l 559 822 q 376 492 446 667 q 307 197 307 317 q 343 95 307 132 q 441 57 378 57 q 564 83 494 57 q 681 147 633 109 q 744 400 711 275 q 810 650 777 526 l 831 728 q 834 741 833 735 q 835 751 835 747 q 833 768 835 760 q 829 775 831 775 l 747 782 l 781 825 q 850 836 813 829 q 942 854 886 842 l 978 846 l 957 770 q 888 513 899 560 l 868 432 q 807 179 821 243 q 793 92 793 115 q 806 55 793 65 q 854 45 820 45 q 954 56 878 45 l 962 57 l 937 12 q 818 -9 877 0 q 700 -24 758 -18 l 672 -5 q 668 20 669 7 q 667 47 667 33 q 667 64 667 58 q 668 75 667 70 m 745 925 q 663 1039 703 985 q 587 1140 623 1093 l 640 1168 q 652 1147 644 1161 q 784 932 732 1016 l 745 925 z "},"ı":{"ha":386,"x_min":46,"x_max":375,"o":"m 56 498 q 208 585 158 559 q 292 619 258 610 l 310 600 q 292 519 307 574 q 285 493 287 502 l 225 274 q 220 254 223 267 q 197 142 197 171 q 205 112 197 124 q 225 100 214 100 q 345 142 249 100 q 375 154 365 150 l 375 113 q 194 13 247 37 q 104 -12 140 -11 q 92 -5 97 -9 q 83 5 86 0 q 76 50 79 29 q 74 89 74 70 q 77 117 74 100 q 85 153 79 134 l 168 433 q 170 438 169 435 q 178 473 178 465 q 175 486 178 483 q 165 489 172 489 q 120 480 151 489 q 46 454 90 471 l 56 498 z "},"ˆ":{"ha":694,"x_min":278,"x_max":582,"o":"m 289 686 l 278 720 q 418 880 328 777 l 456 924 l 501 928 l 582 718 l 533 684 l 463 835 q 371 759 413 795 q 289 686 328 723 z "},"˜":{"ha":694,"x_min":258,"x_max":646,"o":"m 269 768 l 258 787 l 313 833 q 338 849 325 844 q 364 854 351 854 q 398 851 379 854 q 436 840 417 847 l 479 827 q 503 820 490 823 q 526 818 515 818 q 578 829 553 818 q 633 868 603 841 l 646 848 l 607 807 q 560 767 581 779 q 515 755 539 755 q 490 758 503 755 q 462 766 476 760 l 416 782 q 379 792 399 789 q 343 796 360 796 q 310 789 327 796 q 269 768 292 783 z "},"ˉ":{"ha":694,"x_min":272,"x_max":597,"o":"m 576 753 q 510 755 543 754 q 431 755 477 755 q 345 755 382 755 q 272 753 309 754 l 292 811 q 375 808 338 809 q 439 807 412 807 q 507 808 467 807 q 597 811 547 809 l 576 753 z "},"˘":{"ha":694,"x_min":301,"x_max":652,"o":"m 301 884 l 338 885 q 379 824 354 843 q 441 804 404 804 q 533 828 488 804 q 604 889 578 851 l 652 884 q 543 765 593 800 q 433 730 493 730 q 338 770 375 730 q 301 873 301 810 l 301 884 z "},"˙":{"ha":694,"x_min":367,"x_max":514,"o":"m 407 720 q 382 772 392 746 q 367 825 372 798 q 419 860 391 844 q 481 888 447 876 q 497 836 486 872 q 514 782 509 800 q 464 751 490 766 q 407 720 437 735 z "},"˚":{"ha":694,"x_min":342,"x_max":582,"o":"m 468 882 q 419 859 437 882 q 400 798 400 836 q 415 745 400 764 q 456 726 429 726 q 506 748 488 726 q 524 812 524 770 q 510 864 524 847 q 468 882 496 882 m 342 783 q 389 886 342 846 q 498 926 437 926 q 560 902 538 926 q 582 836 582 878 q 536 726 582 768 q 425 684 490 684 q 363 709 385 684 q 342 783 342 734 z "},"¸":{"ha":694,"x_min":58,"x_max":304,"o":"m 265 16 l 304 7 q 255 -34 277 -14 q 215 -72 233 -54 l 243 -102 q 252 -117 249 -107 q 256 -138 256 -127 q 102 -265 256 -186 l 93 -269 l 58 -254 q 102 -226 75 -243 q 164 -167 164 -186 q 160 -149 164 -159 q 149 -130 155 -139 l 122 -100 q 193 -39 157 -68 q 265 16 229 -10 z "},"˝":{"ha":694,"x_min":374,"x_max":736,"o":"m 515 694 q 591 813 552 755 q 672 928 630 871 l 736 909 l 701 869 q 551 692 604 755 l 515 694 m 374 694 q 452 819 414 760 q 529 928 491 877 l 593 909 l 558 869 q 408 692 460 755 l 374 694 z "},"˛":{"ha":694,"x_min":143,"x_max":393,"o":"m 347 21 q 255 -72 285 -28 q 225 -160 225 -117 q 244 -218 225 -197 q 293 -240 262 -240 q 340 -228 320 -240 q 374 -191 360 -216 l 393 -203 q 331 -278 368 -252 q 250 -304 294 -304 q 173 -277 203 -304 q 143 -207 143 -249 q 185 -91 143 -147 q 314 21 227 -35 l 347 21 z "},"ˇ":{"ha":694,"x_min":323,"x_max":625,"o":"m 323 886 l 371 914 l 437 760 q 532 833 486 796 q 623 909 578 871 l 625 860 q 537 762 583 808 q 442 674 492 716 q 430 670 435 671 q 421 669 425 669 q 412 672 418 669 q 400 679 406 675 q 359 778 378 726 q 323 886 340 829 z "}}}
